<?xml version="1.0" standalone="no"?>
<!DOCTYPE svg PUBLIC "-//W3C//DTD SVG 1.1//EN" "http://www.w3.org/Graphics/SVG/1.1/DTD/svg11.dtd" >
<svg xmlns="http://www.w3.org/2000/svg">
<metadata></metadata>
<defs>
<font id="formosa_alternateregular" horiz-adv-x="708" >
<font-face units-per-em="2048" ascent="1638" descent="-410" />
<missing-glyph horiz-adv-x="921" />
<glyph horiz-adv-x="0" />
<glyph horiz-adv-x="682" />
<glyph unicode=" "  horiz-adv-x="921" />
<glyph unicode="&#x09;" horiz-adv-x="921" />
<glyph unicode="&#xa0;" horiz-adv-x="921" />
<glyph unicode="!" horiz-adv-x="409" d="M41 33q0 -17 26.5 -35t51.5 -18q37 0 80 30l2 6q37 43 37 72q0 18 -25 51q-25 29 -25 51l-14 11q-2 0 -6 4l-6 4q-32 -5 -45.5 -11.5t-36.5 -29.5q-39 -54 -39 -135zM164 387q0 -44 8 -68l4 -12q12 -31 37.5 -58.5t52.5 -27.5q13 0 17 2.5t4 12.5l18 71q0 35 10 45l13 72 q0 6 2 12q1 3 2 9.5t2 9.5q0 10 2 16v10q21 79 51 156q9 26 28.5 76t28.5 75q56 148 103 281q49 141 108 279q0 4 -2 6t-2 6l-26 31q-4 4 -10 10.5t-10 12t-7 9.5q-8 10 -23 25q-21 16 -65 16h-29q0 -7 -8 -20q-5 -8 -18 -39q-28 -62 -35 -100l-29 -115q-14 -42 -76 -227 q-26 -72 -84 -279q-6 -39 -18 -74q-20 -57 -23 -69q-26 -87 -26 -154z" />
<glyph unicode="&#x22;" horiz-adv-x="667" d="M188 823q0 -22 3 -36t16 -26.5t37 -12.5q21 0 41 20q26 26 77 111q12 20 25.5 38t31 39t21.5 25q15 15 15 57t-18 74.5t-56 32.5q-24 0 -39 -15q-27 -23 -49 -81q-8 -19 -19 -37q-8 -14 -57 -88q-29 -44 -29 -101zM438 803q0 -22 3 -36.5t16 -27t37 -12.5q20 0 41 21 q28 27 77 110q12 20 25.5 38t32 40.5t20.5 24.5q15 15 15 57t-18 74t-56 32q-25 0 -39 -14q-26 -23 -49 -82q-8 -19 -19 -37q-8 -14 -57 -88q-29 -43 -29 -100z" />
<glyph unicode="#" horiz-adv-x="1204" d="M29 285q0 -7 2 -13v-12l32 -61q20 -30 37.5 -39.5t49.5 -9.5q61 0 157 34v-18l-31 -62q-34 -69 -34 -155q0 -123 116 -123q16 0 20.5 5t8.5 22q1 4 2 6l31 139q26 92 35 119q11 38 22 65q9 21 15 27t12 6l162 14v-6q0 -30 -25 -82q-25 -56 -25 -82q0 -61 66 -61 q56 0 82 33l10 14t9.5 16t8 15.5t8 18t7 16.5t7 19t5.5 18t6 19.5t6 18.5q13 43 46 60l131 14q33 6 82 62q-16 23 -33 34q-26 16 -86 31q-22 3 -43 12l24 47q20 38 58 103q6 12 14 20q6 -2 31 -2h43q65 0 92 8q47 10 47 48q0 26 -17.5 41t-48.5 26q-5 2 -18.5 6.5t-19 6.5 t-13.5 6.5t-11 9.5t-3 12v6l49 109l37 92q20 46 25 61q20 50 20 93v4q-2 2 -2 6v8l-98 92l-7 2q-1 0 -10 -6q-12 -8 -18 -14q-25 -18 -29 -29q-23 -98 -59 -209q-27 -87 -56 -143q-34 -66 -63 -66h-160q0 7 -2 11q-2 2 -2 6q35 77 45 114q14 52 37 103q10 34 23 57 q12 27 12 57q0 50 -19.5 82.5t-66.5 51.5h-14q-30 0 -54 -50q-37 -77 -96 -270q-16 -59 -45 -131l-12 -23q-9 -18 -21 -22q-28 -15 -67.5 -24t-55.5 -9q-23 0 -35 2h-22l-180 -16q-9 0 -19 2h-26q-22 0 -47 -23t-25 -55q0 -24 10.5 -39.5t42.5 -38.5q2 -2 17 -12 q32 -22 39 -27l8 -6h2q7 0 82 15l194 30v-14l-18 -47q-8 -22 -12 -41q-8 -19 -13 -27q-15 -21 -55 -24h-33l-129 -17q-12 -2 -45 -2l-49 -6q-55 -14 -55 -59zM586 399q3 41 30 97q28 54 66 57q13 0 25 2q22 0 34 2q25 0 35 2h23q0 -12 -11 -45q-23 -52 -53 -96 q-16 -19 -20 -19h-129z" />
<glyph unicode="$" horiz-adv-x="1011" d="M41 174q0 -35 29 -61q50 -44 131 -72q37 -13 51 -27q2 -2 6 -2l6 -6l6 -6q0 -66 -18 -133q-20 -77 -23 -135q-6 -42 -6 -51q0 -54 45 -54q2 0 31 19q24 16 37 26.5t28.5 34.5t20.5 55q8 43 18 80q6 3 15 27q7 20 18 55q27 76 45 76l92 14q133 21 256 97q127 78 150 170 v22q0 91 -105 164q-53 37 -190 92q-10 3 -14 14v15q49 149 66 180q6 10 12 18q18 24 40.5 31.5t67.5 7.5h64l53 41v15q0 46 -41 75q-36 23 -80 23q-45 0 -53 -6q7 30 28 78q19 40 19 77v33q0 2 -10.5 17.5t-14.5 19.5l-43 41q-18 0 -28 2h-29q-16 0 -25 -6q-9 -7 -20 -37 q-3 -12 -12 -24l-23 -95l-41 -133q0 -15 -16 -31q-32 -23 -92 -45q-9 -4 -23 -9.5t-16 -6.5q-95 -43 -119 -53q-70 -30 -131 -64q-148 -76 -156 -137v-4q0 -44 49 -80q47 -35 78 -35q11 0 25 -2q7 -1 23 -2t24 -2q70 -8 98 -8q19 0 37 2h33q-3 -6 0 -33q0 -23 -4 -35 q0 -4 -11 -41l-26 -69q-53 -141 -62 -168q-91 9 -125 24q-36 14 -49 31q-13 13 -20 27q-7 10 -37 10q-21 0 -29.5 -6.5t-9.5 -28.5v-6zM307 612l19 15l45 24q19 12 53 27q67 29 94 29q-3 -11 -10 -29q-11 -33 -25 -60q-6 -15 -6 -18h-153zM508 133q28 77 47 119 q27 66 35 123q16 24 20 47q3 18 19 18q51 0 112 -30q76 -37 76 -91v-6q-8 -57 -110 -110q-69 -39 -183 -70h-16z" />
<glyph unicode="%" horiz-adv-x="864" d="M41 786q0 -52 49 -98q50 -47 111 -47h10q14 7 18 8q30 13 45 15q6 2 13 2l104 92q26 26 47 55l43 57v-12q-13 -40 -32 -76q-29 -49 -43 -63q-75 -142 -82 -154q-59 -103 -84 -151q-82 -154 -103 -207q-49 -125 -49 -221q0 -54 27 -81.5t90 -27.5h20q11 3 47 39 q6 88 31 178q39 136 148 338q24 43 92 172q0 21 22 49q25 28 39 54q0 5 6 20q2 6 19 35q24 47 51 84q4 10 14 28q15 34 33 66q42 82 74 123q34 45 106 113q59 56 90 114v4q0 2 2 2v2l-2 9q-24 36 -49 49.5t-71 13.5q-30 0 -48 -14l-57 -49q-17 -17 -45 -56l-47 -61 q-6 -6 -14 -25q-12 -21 -17 -26q-47 -54 -121 -76h-14l-74 45q-33 20 -84 20q-116 0 -217 -120q-45 -51 -71.5 -111t-26.5 -111zM225 821q36 71 105 140q5 -1 18 -15v-12q-8 -8 -26 -35q-21 -27 -68 -65q-1 -4 -6.5 -8.5t-7.5 -4.5l-7 -2q-2 0 -4 2h-4zM348 145 q5 -26 16.5 -45.5t33.5 -35.5t36 -24t47 -24q4 3 51 27l72 39l17 12l28 39q46 46 65.5 66.5t51 61t49.5 77.5v4q0 21 -25.5 46.5t-50.5 25.5h-104q-5 0 -14 -6q-14 -7 -17 -7q-6 0 -45 13h-10q-35 0 -65.5 -14t-30.5 -38q-5 -8 -32.5 -48t-38 -57.5t-22.5 -50.5t-12 -61z " />
<glyph unicode="&#x26;" horiz-adv-x="794" d="M41 170q4 -101 65 -147l31 -25q-11 -24 -18 -37q-13 -16 -13 -39q0 -17 11 -43l10 -10q12 -4 16 -4q39 0 73.5 27.5t55.5 66.5q6 -2 21 -2h18q21 0 51 6q39 8 39 23l-16 49l-6 4q-30 15 -51 22q-32 11 -52 25q-55 27 -55 74q0 25 26.5 58.5t69.5 62.5q101 69 209 69 q62 0 103 -8q52 -10 82 -10q31 0 49 18v2l-2 8q-1 2 -6 17l-9 20q-5 15 -6 17l-22 35q-6 0 -23 10t-33 10q-18 0 -26 -2q-10 -2 -31 -2l-139 18q-29 9 -55.5 25.5t-26.5 32.5l4 14l4 14l57 33l68 25q72 14 133 14q58 0 80 -12l12 -8l39 -95q7 -12 31 -12q33 0 52.5 24 t19.5 56q0 64 -50 121q-39 42 -98 57q3 12 10 35q5 30 5 35q0 53 -56 53q-50 0 -88 -51q-17 -23 -37 -76q-42 -13 -102 -23q-41 -7 -96 -26q-103 -44 -103 -152q0 -4 4 -32l43 -109l-104 -55q-16 -11 -41 -25q-31 -20 -47 -33q-58 -47 -70 -88l-4 -10q-6 -21 -6 -45z" />
<glyph unicode="'" horiz-adv-x="421" d="M197 823q0 -22 2.5 -36t15.5 -26.5t37 -12.5q21 0 41 20q29 28 78 111q12 20 25.5 38t31 39t21.5 25q14 14 14 57q0 42 -18 74.5t-56 32.5q-24 0 -39 -15q-27 -23 -49 -81q-11 -25 -18 -37q-3 -6 -58 -88q-28 -42 -28 -101z" />
<glyph unicode="(" horiz-adv-x="606" d="M41 190q0 -87 33 -137q45 -69 153 -133q18 -6 33 -6q49 0 49 47q0 63 -84 156q-2 6 -2 18v19q0 50 17 116q33 116 94 228l53 100l43 82l27 29l41 84q57 88 113.5 155.5t127.5 116.5q54 33 82 61q49 45 49 84q0 26 -33 51t-83 25q-76 0 -144 -61q-33 -28 -118 -131 l-121 -166q-54 -74 -80 -119q-55 -87 -101 -184q-14 -32 -45 -95q-7 -14 -20 -39.5t-20.5 -40.5t-17 -36.5t-15.5 -40.5q-31 -91 -31 -183z" />
<glyph unicode=")" horiz-adv-x="679" d="M43 -10q0 -26 33.5 -51t83.5 -25q72 0 145 63q40 36 117 129l121 166q37 50 82 119q52 85 98 187l45 92q36 72 53 109.5t33 101.5t16 129q0 88 -30 137q-42 63 -154 133q-18 6 -35 6q-47 0 -47 -49q0 -61 84 -154q2 -6 2 -18v-18q0 -103 -57 -234q-38 -88 -107 -211 l-43 -82l-26 -28l-41 -84q-122 -190 -242 -273q-53 -32 -82 -59q-49 -49 -49 -86z" />
<glyph unicode="*" horiz-adv-x="798" d="M41 520q0 -49 35 -84t80 -35q40 0 112 11l-57 -90q0 -7 -4 -11l2 8q-43 -74 -43 -118v-6q2 -23 16.5 -42.5t38.5 -19.5q14 0 19.5 2.5t11.5 14.5l24 45q30 52 121 192l35 -51q1 -1 3.5 -6t4.5 -8q17 -45 19 -50q3 -13 6 -16q17 -34 37 -61q14 -24 28 -27h11q19 0 33 12.5 t16 26.5v8q0 42 -13 86.5t-22.5 64t-38.5 76.5q33 3 98 13l54 8h16q6 -2 21 -2q23 0 38 20.5t15 50.5q0 23 -15 29q-109 9 -208 12q75 98 100 189q-8 21 -39 45t-55 24q-17 0 -23 -12l-94 -180q-8 14 -30 58t-36 69q-22 39 -38.5 48t-55.5 9q-42 0 -65 -12.5t-23 -50.5 q-2 -4 -2 -15v-12q25 -51 51 -80q37 -47 56 -80h-189q-21 -7 -36 -20.5t-15 -32.5z" />
<glyph unicode="+" horiz-adv-x="817" d="M41 457q0 -53 35.5 -89t81.5 -36q56 0 166 16l-7 -31q-22 -90 -24 -151l-2 -41q-2 -32 13 -61.5t50 -34.5q49 0 80 110q21 82 21 129l32 105q81 3 127 12l68 12h16q6 -2 21 -2q23 0 39 23t16 53q0 23 -14 29q-41 6 -119 10q-19 1 -58 2t-59 2q29 116 29 207 q-63 63 -115 63q-34 0 -49 -30q-8 -18 -8 -60v-43l-27 -137h-260q-53 -16 -53 -57z" />
<glyph unicode="," horiz-adv-x="348" d="M41 -127q0 -22 2.5 -36t15.5 -27t37 -13q20 0 41 21q30 30 78 110q12 20 25.5 38t32 40.5t20.5 24.5q14 14 14 57q0 42 -18 74.5t-56 32.5q-23 0 -38 -15q-28 -24 -50 -82q-11 -24 -18 -37q-7 -14 -57 -88q-29 -43 -29 -100z" />
<glyph unicode="-" horiz-adv-x="817" d="M41 457q0 -53 35.5 -89t81.5 -36q82 0 161 18q105 23 293 29q49 0 70 18h16q6 -2 21 -2q23 0 39 23t16 53q0 23 -14 29q-100 14 -291 14h-375q-53 -16 -53 -57z" />
<glyph unicode="." horiz-adv-x="280" d="M43 53q0 -17 26.5 -35t51.5 -18q35 0 80 31l2 6q37 43 37 72q0 18 -25 51q-25 29 -25 51l-14 10q-2 0 -6 4l-6 4q-32 -5 -45.5 -11.5t-36.5 -29.5q-39 -54 -39 -135z" />
<glyph unicode="/" horiz-adv-x="606" d="M43 -35v-10q2 -30 21 -58t47 -28q13 0 17.5 2t8.5 12l43 72q2 5 11.5 22t13.5 21l39 72q1 1 3 5.5t5.5 12t5.5 12.5q1 3 4 8.5t4 8.5q1 2 2 4.5t1.5 3.5t0.5 2q56 92 215 303q50 66 203 279q77 112 205 276v12l-19 29q-13 28 -17 36t-15.5 20.5t-26 15t-39.5 2.5h-28 l-39 -43q-2 -5 -17 -23q-4 -5 -24 -35l-23 -34q-12 -15 -16 -23l-68 -115q-12 -17 -32.5 -46t-37 -52.5t-32.5 -44.5q-59 -79 -99 -145q-4 -5 -24 -37l-43 -68q-64 -100 -68 -106q-4 -4 -16 -25q-23 -32 -31 -45q-44 -64 -47 -74q-40 -68 -55 -104q-33 -72 -33 -115z" />
<glyph unicode="0" horiz-adv-x="606" d="M41 352q0 -66 47 -116q47 -54 115 -54q33 0 92 37.5t115 95.5q138 146 141 265v26q-2 14 -2 43q0 25 2 32t14 26v14l-28 55q-19 30 -34.5 37.5t-47.5 7.5q-96 0 -158 -59q-112 -99 -168 -180q-88 -121 -88 -230zM211 367v14q21 58 94 149q76 91 105 91v-15 q0 -48 -76 -135q-70 -77 -123 -104z" />
<glyph unicode="1" horiz-adv-x="532" d="M41 53l12 -35q6 -6 37 -30l37 -29q2 1 10.5 4.5t13 5.5t10 6t9.5 9q16 55 53 141q20 43 129 272q25 50 60 140l80 213v34l-72 58h-14q-1 1 -4 2t-8 2.5t-9 3.5q-18 6 -25.5 3t-21.5 -26q-25 -44 -31 -59q-37 -92 -37 -127l-53 -139q-37 -99 -78 -176q-40 -73 -71 -179 q0 -1 -4 -9.5t-5 -14.5q-1 -5 -4 -15.5t-4 -15.5q-2 -6 -5 -15.5t-3 -10.5z" />
<glyph unicode="2" horiz-adv-x="765" d="M41 481q11 -23 20 -39t22.5 -34t31.5 -27.5t39 -9.5q27 0 55.5 16.5t28.5 38.5v25q69 142 258 245q45 15 47 15v-15l-4 -12q-1 -2 -4.5 -9.5t-4.5 -12.5q-14 -28 -18 -44l-76 -122l-135 -154q-41 -48 -74 -74q-64 -55 -69 -59q-37 -30 -55.5 -54.5t-18.5 -52.5 q0 -33 14 -53q18 -37 68 -69q5 -5 14.5 -12.5t12.5 -10.5q31 -16 108 -16q64 0 137 31t135 77q15 15 15 17l14 67q0 17 -9 21t-26 4q-46 0 -112 -17q-59 -18 -111 -30h-14q70 78 108 116q74 78 109 119q124 145 164 272q4 9 9 32.5t5 29.5q0 102 -70 149q-55 37 -163 37 q-32 0 -70 -16q-265 -116 -381 -354v-15z" />
<glyph unicode="3" horiz-adv-x="665" d="M41 -164q34 -52 67.5 -68t86.5 -16q88 0 200 105q64 60 158 186q47 73 55 107q4 16 4 30q0 51 -16 88q-27 47 -94 94q-34 26 -53 54q37 37 57.5 59t48 60t41.5 73q4 18 18 47q1 5 4.5 13t4.5 10l2 10q0 81 -72 135q-60 45 -133 45h-25q-10 -2 -18 -2q-24 -3 -70 -45 q-47 -44 -47 -67q0 -19 2 -25q2 -18 31 -47q12 -15 24 -27q4 -5 12 -12t9 -8l10 -10h43l-41 -50q-36 -40 -45 -49q-16 -13 -41 -24l-55 -29q-66 -38 -66 -74q0 -14 15 -49q18 -49 50 -64.5t81 -15.5q12 0 18 2h19q74 0 108 -34v-17l-14 -31l-25 -36q-41 -51 -57 -70 q-77 -95 -137 -152l-86 -49l-45 -14q-12 -12 -15 -16q-9 -12 -14 -17z" />
<glyph unicode="4" horiz-adv-x="636" d="M41 537q0 -47 39 -86q6 -6 18 -15q11 -11 23 -20l20 -19q12 -10 23 -12q3 -1 9.5 -2t10.5 -2l21 -6l8 -2q19 -6 29 -8q18 -6 18 -9v-4q-6 -38 -20 -63q-15 -26 -27 -62q-29 -72 -43 -135q-4 -18 -16 -119q0 -10 -2 -20t-2 -31q-2 -23 -9 -51l29 -35q19 -26 47 -29l23 5 q10 2 26 2l15 10q3 3 14 29q10 23 10 34l4 31q11 35 23 55q12 24 22 54l2 32q50 197 166 347l21 20l51 39l2 14q-4 8 -6 10q-8 8 -8 11l2 22q0 31 -39 64t-88 39h-2q-27 0 -56 -41l-39 -52q0 -26 -16 -26q-3 -1 -12 -2t-19 -3t-20 -5l-47 -7h-6q-1 0 -4 3v22v33q0 37 4 53 q9 43 75 113q64 68 64 106v2q0 31 -45 72q-40 37 -72 37q-23 0 -41 -15q-35 -28 -63 -86l-25 -41l-59 -94l-13 -26q-2 -6 -4.5 -12.5t-3.5 -10t-2 -4.5l-6 -59q-4 -32 -4 -45z" />
<glyph unicode="5" horiz-adv-x="729" d="M41 629q0 -53 59 -123q56 -70 93 -70h256q5 0 11.5 -5t6.5 -9q0 -18 -49 -74q-46 -56 -88 -84l-101 -82l-69 -47q-11 -11 -29 -26q-6 -5 -11 -10.5t-8 -8.5l-3 -4q0 -10 16 -47l18 -14q11 -8 31 -15q48 -17 59 -18q6 -2 13 -2h10q4 0 6 2l170 94q48 42 63.5 56.5 t54.5 52.5t57.5 61.5t42 60t38.5 72.5v14q0 89 -92 150q-74 46 -180 61h-6q-19 0 -29 -2t-29 -2q-36 0 -55 19q21 77 135 96h51q50 5 82.5 14t71.5 33l35 31q0 8 2 18v23q0 69 -37 69q-28 -4 -68 -4q-53 0 -80 11q-20 8 -57 45q-54 30 -94 30h-8q-60 -46 -137 -145 l-117 -158q-35 -56 -35 -63z" />
<glyph unicode="6" horiz-adv-x="806" d="M41 145q0 -60 31 -71l75 -29l29 -41q40 -43 75 -63.5t85 -20.5q96 0 135 41q116 126 139 160q16 23 20.5 46t4.5 66q0 51 -62 99q-58 45 -122 45q-31 0 -97 -17v9q0 31 30.5 94t80.5 135q112 171 213 248q4 3 8 5.5t9.5 5.5t9.5 5l28 19q33 22 33 51v22q-9 17 -29 39.5 t-30 30.5h-103q-3 0 -16 -10l-62 -60q-10 -12 -26 -28q-19 -19 -84 -105l-49 -65q-9 -13 -24.5 -35t-20.5 -29l-27 -55q-92 -141 -119 -221l-47 -137q-7 -19 -20 -33l-31 -31q-37 -37 -37 -70zM295 129v8q0 13 22.5 29t55.5 29q72 28 104 28h8q-15 -46 -55 -96 q-43 -53 -92 -53h-31q-12 48 -12 55z" />
<glyph unicode="7" horiz-adv-x="940" d="M43 195q0 -42 29 -82q32 -45 84 -45q28 0 47 8q21 6 47 6q0 -6 2 -12t2 -15v-2q0 -5 -6 -20q-3 -6 -9 -19t-8 -16l-16 -37q-8 -13 -8 -20l-33 -129v-15q0 -35 37 -78q31 -36 59 -36q5 0 17 5t16 9l33 29q3 3 6 22q13 51 20 72l5 20l16 41l25 56l15 33t15 34l27 62 q13 29 14 30l33 43l66 129l47 70l49 88q63 63 63 84q66 94 94 131q47 62 68 139v8q0 39 -53 76q-45 31 -76 31q-38 8 -78 10q-70 4 -84 4q-19 0 -39 -2q-10 -1 -32 -2t-33 -2t-33.5 -2t-32.5 -2q-8 -1 -17 -2t-14 -1.5t-8 -0.5h-57q-11 0 -19 -1t-11 -2t-11.5 -4t-13.5 -5 l-33 -29v-10q-2 -6 -2 -17q0 -52 43 -86q40 -32 76 -32q48 0 98 16q43 14 98 14q90 0 90 -14l-16 -29q-1 -2 -3.5 -5.5l-7.5 -10.5t-9 -12q-54 -77 -70 -99q-22 -25 -23 -28l-63 -103q-15 -22 -23 -37q-31 -43 -69 -110q-8 -15 -23 -37l-192 -14l-97 -15q-18 -7 -18 -30z " />
<glyph unicode="8" horiz-adv-x="634" d="M41 178q30 -88 73 -135t119 -47q68 0 115 65q37 50 68 132q4 0 10 14q2 8 10 33q15 47 15 65l14 287q50 20 90 98q36 70 39 141v9q0 80 -51 143q-56 66 -129 66q-23 0 -29 -2q-22 -3 -41 -33q-8 -13 -14 -49q-7 -28 -17 -105q-9 -71 -12 -184q-154 -44 -211 -180 q-49 -117 -49 -318zM205 188q12 202 100 275q0 -9 2 -19v-18q0 -51 -26 -137q-13 -44 -33 -72.5t-43 -28.5z" />
<glyph unicode="9" horiz-adv-x="747" d="M41 557q0 -35 12 -72q14 -47 49 -61l86 -41h17q8 -2 20 -2q83 0 156 43v-8q0 -4 2 -6v-7q0 -23 -10 -61q-26 -90 -51 -162q-25 -76 -27 -88q-2 -6 -8.5 -23t-9 -24t-7.5 -22t-7.5 -23.5t-6 -22t-5 -24t-2.5 -23t-1 -24.5q0 -47 14 -76q22 -45 76 -45q20 0 41 35 q40 69 70 180q16 66 20 78l12 35q33 106 37 123l12 36q73 240 117 334l45 84v15q1 2 5 11t7 17.5t3 11.5q0 41 -52 80q-42 31 -65 31q-18 0 -33 -6q-13 -8 -33 -8h-112l-88 -27l-29 -12q-25 -14 -33 -17l-74 -41q-58 -50 -89 -86t-58 -94v-8zM233 537q13 45 93 92 q61 35 129 47q-3 -34 -97 -86q-91 -50 -125 -53z" />
<glyph unicode=":" horiz-adv-x="348" d="M43 53q0 -17 26.5 -35t51.5 -18q35 0 80 31l2 6q37 43 37 72q0 18 -25 51q-25 29 -25 51l-14 10q-2 0 -6 4l-6 4q-32 -5 -45.5 -11.5t-36.5 -29.5q-39 -54 -39 -135zM264 602q0 -17 26.5 -35t51.5 -18q35 0 80 31l2 6q37 43 37 71q0 19 -25 52q-24 28 -24 51l-15 10 q-2 0 -6 4l-6 4q-32 -4 -45.5 -11t-36.5 -30q-39 -54 -39 -135z" />
<glyph unicode=";" horiz-adv-x="442" d="M41 -127q0 -22 2.5 -36t15.5 -27t37 -13q20 0 41 21q30 30 78 110q12 20 25.5 38t32 40.5t20.5 24.5q14 14 14 57q0 42 -18 74.5t-56 32.5q-23 0 -38 -15q-28 -24 -50 -82q-11 -24 -18 -37q-7 -14 -57 -88q-29 -43 -29 -100zM297 516q0 -17 26.5 -35t51.5 -18q35 0 80 31 l2 6q37 43 37 71q0 19 -25 52q-25 29 -25 51l-14 10q-2 0 -6 4l-6 4q-32 -5 -45.5 -11.5t-36.5 -29.5q-39 -54 -39 -135z" />
<glyph unicode="&#x3c;" horiz-adv-x="747" d="M43 399q0 -33 41 -63q71 -55 219 -117q55 -24 107 -51q44 -23 71 -29l76 -24q85 -28 117 -70l6 2q25 16 25 62v16q0 9 -3 18l-8 41q0 9 -8 9l-88 61q-74 51 -205 76q-10 2 -52.5 9.5t-59 11t-47 12.5t-54.5 20l-8 8q78 38 207 70q143 41 221 47q31 47 31 106q0 72 -21 72 q-8 0 -14 -2q-3 -1 -9 -2t-9 -2l-138 -41l-200 -102q-43 -24 -113 -60q-38 -20 -53 -31q-31 -17 -31 -47z" />
<glyph unicode="=" horiz-adv-x="786" d="M41 408q0 -40 33.5 -68.5t75.5 -28.5q74 0 147 15q70 12 145 18q68 3 125 10q29 2 66 8h12q6 -2 21 -2q22 0 36.5 18t14.5 42q0 19 -12 22q-132 11 -269 11h-346q-20 -5 -34.5 -17t-14.5 -28zM78 627q0 -40 33 -69.5t75 -29.5q78 0 152 15t149 18q68 3 125 10l68 11h12 q6 -2 21 -2q23 0 38 17.5t15 41.5q0 8 -16 18q-27 9 -45 11q-37 4 -127 4h-451q-20 -5 -34.5 -17t-14.5 -28z" />
<glyph unicode="&#x3e;" horiz-adv-x="747" d="M41 109q0 -44 27 -62l6 -2q20 26 49 41q33 18 143 53q29 6 72 29q59 31 108 51l119 55q140 72 140 125q0 29 -29 47q-43 26 -53 31q-104 54 -115 60l-201 102l-137 41q-3 1 -9 2t-9 2q-6 2 -15 2t-12 -8q-10 -12 -10 -45v-19q0 -57 32 -106q79 -6 222 -47 q127 -32 206 -70l-8 -8q-74 -24 -94 -29q-116 -31 -213 -51q-58 -15 -110 -49l-89 -61q-8 0 -8 -9l-8 -41q-4 -28 -4 -34z" />
<glyph unicode="?" horiz-adv-x="483" d="M25 70q2 -14 31.5 -32t54.5 -18q39 0 82 29l2 6q34 34 34 66q0 17 -28 45l-5 5l-5.5 5.5t-4.5 5t-4.5 5.5t-4 6t-3 7t-1.5 7t-1 8l-31 18q-33 -5 -46 -11t-36 -29q-34 -44 -34 -109v-14zM111 330q37 -21 86 -21q57 0 94 37q42 42 53 141q-2 2 -2 21v33q0 110 82 209 q43 53 154 135l24 18q5 6 33 45q3 4 14.5 21t18.5 26q12 31 32 64l31 45q29 53 29 113q0 98 -58 165l-22 27q-16 7 -35 12.5t-34 8t-38 3.5t-35 1.5t-37.5 0t-33.5 -0.5q-74 0 -127 -35q-100 -66 -170 -193q-24 -45 -57 -94l-2 -12q13 -62 73 -62q42 0 99 31q46 24 57 53 q0 2 27 29q22 25 59 57q88 80 127 80q24 0 27 -31v-8q0 -73 -78 -182q-39 -57 -146 -174q-116 -128 -184 -283q-61 -140 -61 -256v-24z" />
<glyph unicode="@" horiz-adv-x="1388" d="M41 113q0 -92 57 -146q63 -63 191 -63q83 0 141 18q113 35 156 92q18 24 18 39q0 25 -43 25q-5 0 -33 -4q-6 -1 -21 -4t-24 -4q-8 -1 -24.5 -4.5t-24.5 -4.5q-32 -4 -45 -4q-180 0 -180 154q0 136 135 342q135 208 303 342q192 156 324 156q98 0 154.5 -92t56.5 -287 q0 -29 -4 -95q-3 -54 -66 -151q-58 -92 -137 -168q-80 -80 -131 -80q-25 0 -37 21v16q0 84 35 168q29 69 61 160q0 1 5.5 13t9.5 23q10 29 12 31l65 131l15 41l65 107v4q0 2 2 4v4q0 10 -8 18q-11 13 -45 37q-4 3 -14 13q-2 2 -15 2h-20h-19q-12 0 -14 -2l-27 -27l-53 -94 l-12 -13q-7 4 -33 8.5t-35 4.5q-51 0 -96 -39q-84 -67 -172 -215l-33 -55l-30 -50q-3 -4 -20 -27.5t-22.5 -32t-19 -30t-18.5 -35t-10 -33t-5 -36.5v-19l27 -53q21 -25 34 -34t38 -9q26 0 53 12q45 18 98 64q30 26 43 35v-68q12 -80 43 -131q39 -70 115 -70q35 0 76 21 q71 33 157 106q38 35 70 60q109 92 172.5 228.5t63.5 277.5q0 206 -136 333q-34 34 -61 43q-30 10 -45 31l-8 10q-10 12 -22.5 21t-22 14t-25 9t-23.5 5t-26 2.5t-25 2.5q-141 -16 -352 -166q-241 -171 -381 -379q-178 -262 -178 -524zM610 473q4 14 29 55q51 72 90 111 q20 20 27 20h14v-14q0 -5 -16 -27q-24 -28 -43 -47q-33 -35 -101 -98z" />
<glyph unicode="A" horiz-adv-x="884" d="M43 197q0 -51 33 -87t86 -36q36 0 59 16q98 77 182 168q54 58 150 186l-2 -14q-35 -88 -35 -174q0 -113 66 -193q57 -69 123 -69q64 0 79 67q2 4 2 21q0 33 -19.5 57.5t-53.5 28.5q-21 -6 -33 -6q-31 0 -31 31q0 19 8 38q4 14 9.5 28.5t13 31.5t10.5 24q8 13 8 23 l105 246q0 6 18 53q3 7 18 44t23 60q66 161 78 183q10 19 43 61q31 39 33 47q44 99 57 142q27 82 35 147v10q0 55 -43.5 95t-101.5 40q-39 0 -76 -16q-72 -37 -146 -117l-82 -84q-6 -12 -16 -22q-17 -17 -20 -25q-270 -331 -535 -850q-37 -83 -45 -147v-8zM295 385l2 14 q0 2 10 15q3 4 6 9.5t4 6.5l54 107q86 173 239 387q51 74 86 121t91 110.5t110 108.5q-8 -33 -20 -45l-170 -279l-54 -109l-55 -63l-266 -352q-29 -29 -37 -31z" />
<glyph unicode="B" horiz-adv-x="1232" d="M41 109q0 -52 47 -80q40 -29 70 -29q8 0 24 16t31 43q33 50 59 127q58 110 115 185l16 14q18 16 60 16q38 0 57 15l103 78q127 94 276 94q42 0 71 -28.5t29 -72.5q0 -42 -21 -80t-45 -59.5t-65 -52.5l-86 -64l-118 -45q-4 -2 -15 -2h-20q-15 0 -25.5 4.5t-14 8.5t-9.5 12 q-16 24 -41 24q-18 0 -45 -24q-33 -29 -33 -53q20 -59 64.5 -98.5t103.5 -39.5q125 0 295 109q65 43 120.5 93t83.5 89q48 63 48 154q0 71 -70 155q-68 78 -109 91l-86 30l-57 17q258 258 420 520q4 12 4 37q0 33 -29 73q-33 46 -92 46q-14 0 -25.5 -2t-24.5 -8t-19.5 -9.5 t-23 -14.5t-22.5 -14q-39 -24 -67 -36q-35 -15 -64 -41q-187 -164 -333 -367l-15 -31l-31 -32l31 92q9 27 15 43q3 8 14 45l12 41q1 4 2 9l1.5 7.5t0.5 3.5q0 33 -30 51l-86 48h-15q-12 -12 -16 -15q-12 -12 -15 -18q-37 -136 -77 -254q-64 -189 -203 -490 q-54 -121 -96 -239l-4 -9q-4 -10 -5 -16q-1 -5 -4 -14.5t-4 -14.5l-8 -24zM678 815v31q0 1 10 14q12 16 25 29l28 35q16 16 25 28q77 89 133.5 144t128.5 104q-49 -70 -112 -142t-108 -117t-130 -126z" />
<glyph unicode="C" horiz-adv-x="1028" d="M41 313q0 -89 57 -172q55 -85 142 -106q10 -2 26 -2h43q142 0 260 80l183 125l34 24q34 24 48 33l43 33q5 4 10.5 8.5t8 6.5t3.5 3q48 37 76 78q25 37 76 76q-28 63 -70 63l-49 -49l-98 -45l-181 -109l-32 -14q-20 -12 -72 -49q-28 -19 -70 -45q-85 -47 -162 -47 q-54 0 -69 18q-10 12 -10 70v12q0 121 73 264q33 69 144 240q77 124 153 214t176 159q63 45 113 45q0 -4 2 -6t2 -4l-2 -5q-55 -131 -131 -247l-33 -45q-14 -20 -80 -82q-55 -52 -86 -74h-2l-4 2q-9 0 -22 -10q-34 -30 -47 -51q-9 -15 -9 -17q0 -36 43 -76q40 -37 82 -37 q53 0 150 97q91 94 168 209q94 140 123 206q16 35 16 103v100l-119 109q-8 0 -14 2h-25h-22h-19q-65 0 -84 -19l-65 -14l-25 -18q-26 -18 -47 -37l-47 -41q-8 -8 -18.5 -17.5t-12.5 -11.5q-154 -165 -262 -321q-80 -118 -217 -375q-49 -85 -49 -234z" />
<glyph unicode="D" horiz-adv-x="1212" d="M41 45q0 -51 29 -88t80 -37q34 0 47 8q25 10 34 49q1 6 11 41l32 82q23 -39 99 -65q56 -19 123 -19q56 0 172 35q110 35 157 82l234 225q0 4 8 17q6 8 18 28l21 31q4 6 9.5 14t6.5 9q103 159 152 274q65 160 65 301v8q-11 143 -51 213q-8 14 -17.5 26t-24.5 26.5t-24 23 t-32 28t-33 27.5q-27 22 -52.5 27.5t-72.5 5.5q-46 0 -90 -12q-72 -23 -158 -84q-72 -48 -77 -51q-23 -17 -31 -17l-68 33h-8q-36 0 -59 -65l-49 -146l-101 -211l-13 -26t-25 -50.5t-27 -54.5q-8 -18 -22.5 -45.5t-18.5 -36.5q-15 -29 -27 -47l-133 -293q-84 -182 -84 -266z M324 213q20 74 63 158q10 19 72 151q38 98 65 154q62 133 133 272q24 44 33 62q86 102 164 153q114 74 215 74h39q29 -10 43 -63q6 -33 6 -99q0 -154 -49 -260q-37 -77 -45 -94l-35 -74q-41 -70 -88 -127q-56 -71 -166 -192l-16 -17q-96 -66 -167.5 -98.5t-160.5 -32.5 q-50 0 -106 33z" />
<glyph unicode="E" horiz-adv-x="819" d="M43 238q0 -100 72.5 -163t193.5 -63q1 0 14 2.5t29.5 6t24.5 6.5l80 24q20 5 71 27q69 31 123 90q0 2 2 4q0 2 2 2v2q-2 2 -2 4v4l-49 45h-8q-71 0 -172 -22q-119 -25 -131 -25q-31 0 -43 11.5t-12 46.5q0 2 2 4v2l55 94q6 6 12 14q37 49 43 56q4 5 10.5 12t8.5 10 q210 257 583 359h19q14 14 25.5 43t11.5 49v2l-9 8q-3 3 -8 9t-8 9l-20 21q-3 3 -9 7.5t-8 6.5l-49 31q-6 0 -14 2t-19 2q-40 0 -78 -27q-40 -29 -75 -39l-189 -61q-14 -6 -78 -6q-25 0 -37 1t-23 8t-11 22q0 12 2 20q2 6 2 16l69 80l89 76q69 52 147 92q100 51 156 51h8 q2 -2 6 -2h8l96 -94q2 -2 5 -2h10q40 0 71.5 33t36.5 72q0 73 -65 135q-65 59 -148 59q-28 0 -59 -6.5t-51.5 -12.5t-57 -24t-48 -24.5t-54 -31.5t-47.5 -28q-4 0 -18.5 -6t-16.5 -8l-53 -47q-54 -41 -96 -68q-48 -29 -86 -67q-86 -83 -86 -199q0 -67 26 -102l113 -109 l-127 -139q-66 -78 -103 -133q-56 -84 -59 -158v-14z" />
<glyph unicode="F" horiz-adv-x="946" d="M41 35q0 -45 16 -76q20 -41 62 -41q39 0 67 25q46 46 66 131q9 39 18 65l72 205q1 2 2.5 8t4.5 15.5t7 19.5q7 29 25 76q4 14 25 74q1 5 14 43q0 28 16 47q28 32 84 49q30 7 45 14q99 38 199 64t199 61l36 16q36 22 39 56l2 8q-9 9 -21.5 16t-21.5 10t-26 5t-22.5 2h-26 h-21.5q-11 0 -27 -2l-65 -11q-99 -14 -207 -36l-70 -15l3 15q8 56 67 141q55 109 143 201q60 62 179 147l90 47l71 31l191 63q68 21 76 72v6q-21 32 -47 40.5t-72 8.5h-12q-41 0 -87 -10.5t-70.5 -20t-82.5 -32.5q-2 -1 -12 -5t-23.5 -9t-25.5 -9q-11 -4 -39 -14 q-19 -8 -39 -23q-14 -8 -31 -22q-23 -15 -35 -25q-16 -13 -26 -20l-111 -94q-24 29 -56.5 47t-56.5 18q-28 0 -49 -35q-47 -76 -71 -176q-26 -94 -76 -200q-33 -75 -45 -127l-4 -31l-25 -64q-3 -4 -6.5 -8t-7 -7.5t-9 -7.5t-9 -6t-11 -6t-10.5 -6t-11.5 -6.5t-11.5 -5.5 q-55 -28 -57 -55v-10q0 -30 18 -62q19 -34 19 -59l-2 -29q0 -8 -6 -29q-8 -32 -33 -114q-3 -9 -8.5 -24.5t-6.5 -20.5q-52 -182 -61 -267q-2 -6 -2 -26z" />
<glyph unicode="G" horiz-adv-x="1122" d="M41 215q0 -75 33 -102q74 -71 102 -86q46 -27 125 -27q71 0 168 53t152 88v-28q-79 -182 -120.5 -342.5t-41.5 -327.5v-16q30 -97 135 -97q20 0 30.5 20t10.5 36q2 2 2 14v25q-2 6 -2 12l14 153l19 111l47 137l145 373q15 34 107 184q68 115 102 146q3 3 14 6q3 1 12 2 t13 2l41 4q31 5 47.5 13t32.5 30v2q0 27 -18 53.5t-48 26.5h-495q-13 0 -25 -31q-8 -21 -8 -41q0 -36 14 -53q20 -32 80 -49q30 -10 51 -23q-190 -178 -401 -301q-16 -10 -46.5 -18t-45.5 -8q-49 0 -58 6q-12 6 -12 28q0 58 29 134q52 127 160 264q75 99 88 117l61 81l33 29 l61 84q83 93 153.5 158.5t153.5 113.5q5 3 12 7t16 10l15 10q22 16 54 16q34 0 51 -20q20 -23 35 -23h10l51 23q29 10 29 35q0 16 -29 65q-31 49 -51 60l-66 24q-6 3 -21 6.5t-27 6t-13 2.5q-78 0 -160 -62q-49 -37 -147 -131l-160 -166q-75 -75 -109 -116 q-71 -82 -143 -187q-24 -37 -67 -94q-100 -135 -134 -199q-61 -115 -61 -223z" />
<glyph unicode="H" horiz-adv-x="978" d="M41 186q0 -75 100 -75q16 0 29 10q23 23 29 51l6 21l33 83q0 20 18 72q5 15 16 42t15 38q1 5 22 61q8 16 15 37q5 15 10 25l35 12q175 50 213 60l100 26q11 3 22 5.5t15.5 3.5t5.5 1h16q-13 -13 -16 -32q-3 -22 -16 -35l-50 -109q-39 -108 -51 -174q-16 -94 -16 -203 q0 -27 2 -45v-32l84 -68q0 -2 6 -2h6q14 0 35 13t33 30q0 160 45 299q27 88 78.5 204t84 180t109.5 214l154 309l33 68q0 38 -38 71t-91 52q-13 0 -27 -17q-27 -37 -49 -102q-25 -66 -64 -147q-69 -142 -108 -211q-24 -43 -31 -43q-40 -36 -90 -45q-31 -5 -105 -23l-227 -55 q0 5 8 23l9 18l34 69v13q89 141 162 288q79 155 162 287v27q0 20 -6.5 35.5t-23 29.5t-29 22t-39.5 23h-9q-43 0 -67 -24q-42 -42 -64 -133q-8 -35 -22 -62q-63 -131 -139 -262q-67 -116 -138 -260q-3 -6 -8.5 -20.5t-7.5 -18.5q-19 -52 -47 -94q-16 -24 -80 -55 q-21 -9 -21 -41q0 -24 11 -50q10 -23 10 -49v-8q-2 -2 -2 -8v-10l-82 -275v-16q-2 -10 -2 -19z" />
<glyph unicode="I" horiz-adv-x="495" d="M125 121q0 -59 39 -86q34 -27 72 -27q29 0 36 19q47 233 115 446l31 88q20 46 28 62l43 94q5 13 50 110q63 137 94 205l29 62l49 88q0 6 2 14q1 3 2 12t2 13l6 28q2 10 2 23v16q0 5 -14 19l-97 71q-6 0 -12 2h-14q-28 0 -47 -22q-35 -40 -56 -119q-10 -38 -18 -57 q0 -7 -16 -43q-17 -38 -17 -45q-58 -139 -69 -162q-32 -68 -72 -160q-85 -197 -117 -336q-5 -23 -16.5 -70t-16.5 -71q-18 -71 -18 -145v-29z" />
<glyph unicode="J" horiz-adv-x="544" d="M-471 -956q0 -73 43 -148q43 -84 106 -84q36 0 81.5 37.5t72.5 87.5l70 137l67 174q0 6 8 25q7 25 7 27q65 154 118 258q61 119 117 260l33 84l172 350q87 179 145 364q55 175 123 377q6 21 25 66l28 65q31 79 31 136q0 63 -33 97.5t-102 69.5q-32 -8 -49 -32 q-29 -41 -39 -115q-2 -26 -10 -61l-19 -86q-35 -148 -86 -291q-220 -591 -420 -1008l-116 -242q-44 -90 -74 -184q-36 -102 -80 -178v51l19 68l30 159q1 1 8 29l21 111q3 24 6 30q6 41 39 74l5.5 5.5l6 6t5 5.5t5 6.5t4 6.5t3 8t1.5 9t1 11v8q-2 3 -11 19.5t-13 22t-13 17.5 t-16 17t-17.5 9.5t-21.5 4.5q-61 0 -91 -27q-58 -49 -61 -151l-6 -82l-35 -176q-3 -3 -10 -27q-2 -6 -4.5 -12t-3.5 -9t-2 -4q-16 -74 -43 -182q-25 -103 -25 -194z" />
<glyph unicode="K" horiz-adv-x="1036" d="M-6 -109q0 -39 37 -51h28q31 0 45.5 9t26.5 38l39 90l57 152l41 123h88q100 0 172 -19.5t134 -72.5q24 -18 47 -41q14 -17 47 -45q55 -51 118 -51q12 0 32.5 11t21.5 27q-107 133 -219 223t-254 134q37 43 108 114q35 33 117 115q63 66 194 197q66 63 199 196 q20 20 39 31q21 12 39 27q41 32 43 82v4q0 38 -43 69q-47 31 -86 31h-6l-17 -14l-100 -113q-61 -69 -96 -106q-111 -121 -236 -238q-40 -37 -84 -84q-50 -53 -86 -82l37 105q179 390 254 637v30q0 39 -33 65.5t-71 26.5h-17q-8 -8 -16 -14l-16 -16q-51 -161 -101 -291 q-93 -235 -244 -574q-50 -112 -118 -288q-7 -21 -25 -66l-47 -131q-10 -30 -10 -31l-23 -123q-16 -62 -16 -86z" />
<glyph unicode="L" horiz-adv-x="704" d="M41 274q0 -140 86 -229q91 -98 225 -98q74 0 143 31.5t119 87.5q17 17 17 30q0 14 -21.5 37t-38.5 23h-2l-16 -4q-10 -5 -32.5 -12.5t-26.5 -8.5q-16 -3 -19 -6l-108 -29h-15q-10 -2 -18 -2q-61 0 -78 39q-16 33 -16 113q0 48 10 106q17 96 53 187l31 94l18 45 q143 351 340 700q7 11 19 35.5t12 26.5q0 22 -47 63q-52 41 -92 41q-29 0 -41 -12q-26 -23 -29 -62q-4 -21 -8 -30l-139 -271q-44 -89 -64 -149q-43 -113 -119 -266q-37 -81 -51 -121l-12 -39q-7 -28 -37 -125q-17 -60 -21 -78q-8 -31 -10 -49q-1 -9 -4 -24.5t-4 -18.5z" />
<glyph unicode="M" horiz-adv-x="1380" d="M-14 49q0 -5 6 -20q3 -17 16 -37q27 -49 74 -49h6q49 25 72 57q28 36 39 104l41 95q0 1 2.5 5.5t6 11.5l7.5 15l61 113q17 27 19 33l55 110q23 44 76 160q32 78 78 164q100 186 219 285v-33l-8 -27q-2 -6 -10 -31t-13 -42q-35 -130 -61 -187l-60 -145l-2 -17l-145 -366 q-3 -10 -6 -23q-6 -60 -6 -63v-21q0 -55 21.5 -82.5t82.5 -52.5h6q19 0 51 25q27 24 41 41q93 129 181 268q154 248 309 512q70 121 180 289q4 7 24.5 25.5t28.5 23.5q-1 -1 -1.5 -3t-1 -5.5t-1.5 -5.5q-1 -4 -4 -12.5t-4 -12.5l-6 -25q-3 -12 -6 -18q-118 -297 -158 -406 l-31 -86q-11 -32 -18 -49l-19 -35l-24 -92l-4 -12l-15 -41q-1 -2 -2 -4.5t-1.5 -3.5t-0.5 -2l-18 -213q0 -57 45 -84q40 -27 88 -27q26 0 33 19v8q0 131 26 235q38 169 146 404q34 74 80 199l43 145q12 39 30 100q19 65 21 101v6q-12 35 -20.5 54t-23.5 42.5t-35.5 39 t-49.5 26.5h-16l-50 -33l-102 -80l-8 -8q-5 -8 -8 -8q-211 -265 -367 -543q-3 -3 -10 -17q-14 -28 -23 -49q-6 -12 -8 -14l-37 -66l-16 -16l86 256l20 49q6 39 35 152q21 82 21 104q0 11 2 17v14q0 31 -37 84q-46 61 -94 61q-29 0 -50 -6q-38 -14 -82 -55q-33 -33 -53 -51 l-90 -97v9q3 39 29 94q25 56 37 90q-4 4 -16.5 18.5t-17 19t-15.5 16.5t-16.5 17t-16 13.5t-17.5 12t-16.5 8.5t-18.5 6.5t-18 1.5q-12 0 -37 -25q-28 -28 -28 -39q-5 -15 -5 -33v-20v-12q-3 -6 -6 -21q-4 -14 -14 -70q-3 -17 -6 -22l-45 -143q-8 -27 -23.5 -75.5 t-21.5 -68.5l-23 -65q-12 -36 -41 -93q-33 -60 -59 -155q-3 -13 -13.5 -45t-15.5 -47q-35 -111 -141 -394q0 -12 -6 -30v-15q-2 -4 -2 -10z" />
<glyph unicode="N" horiz-adv-x="888" d="M31 166q3 -46 43 -86q37 -37 76 -37q41 0 67 29q37 44 55 145q6 38 19 68l129 237q32 70 74 174q38 95 86 170q56 56 125 166q3 5 12 19t12.5 19t11.5 17t12 17.5t11 15.5t12 16t11 13t11.5 12.5t10.5 9.5h16v-14q-3 -78 -30 -145q-31 -80 -41 -146v-20l-17 -33l-22 -68 q-27 -90 -123 -346q-94 -255 -96 -303v-51q0 -78 18 -104q23 -33 104 -33q28 0 35 18l54 221q33 99 63 164q43 99 66 160q12 44 26 84q30 79 68 170q14 32 14 37q6 30 14 59l25 92q33 136 33 156l8 162v39q0 13 -4 37q-27 52 -57 82q-41 41 -89 41q-58 0 -77 -19l-211 -205 v17l51 135q4 6 8.5 19t7 23t2.5 11q0 46 -41 83.5t-86 37.5q-18 0 -47 -16q-14 -8 -24.5 -21.5t-10.5 -26.5q0 -2 3 -2v-4q-2 -8 -31 -98q-10 -32 -36 -105t-34 -96q-132 -375 -172 -485q-23 -63 -37 -119q-19 -79 -78 -242q-25 -67 -28 -124z" />
<glyph unicode="O" horiz-adv-x="901" d="M66 250q0 -15 2 -21q8 -85 44 -138t117 -75q54 -18 70 -18q5 0 18 8q4 3 8.5 5t7 3t3.5 2q143 37 295 183q153 147 291 358l10 25q5 13 24 57q37 95 37 98q1 4 13 64l28 160q1 9 2 18.5t1.5 14t0.5 7.5q-10 111 -16 134q-12 36 -57 96q-18 26 -21 51l-12 59 q-15 77 -58 105q-5 2 -22 12q-12 5 -29 15q-35 19 -43 22h-16q-23 0 -25 -2l-28 -16l-82 -50q-87 -65 -140 -135q-93 -123 -174 -311q-44 -105 -73 -160l-15 -49l-28 -51l-43 -98q-87 -197 -90 -353v-20zM274 262q4 4 8.5 29t4.5 37l53 196q53 126 94 215q61 141 96 213 l58 58l57 57l98 66q6 2 35 18q18 9 33 14l8 2q15 0 29.5 -17.5t21.5 -33.5q-6 -116 -42 -239.5t-93 -221.5q-68 -114 -147 -202q-60 -67 -172 -174q-63 -59 -135 -82q0 58 -7 65z" />
<glyph unicode="P" horiz-adv-x="847" d="M-102 -471v-12q0 -37 16 -66q28 -57 72 -82q15 -12 20 -12h4q43 0 94 59h-2l27 84q0 19 2 31v31q32 164 94.5 340t171.5 440q11 -14 27 -21.5t25.5 -9t33.5 -2.5h15q106 0 266 156q54 53 103 108.5t67 81.5v-2q0 2 2 4t2 5q99 125 135 198l51 123q3 16 9 25q1 1 14 32 q6 23 12 60q4 50 4 108q0 78 -45 138q-57 70 -135 73h-2q-69 0 -119 -33q-49 -29 -92 -71.5t-94 -104.5q-36 -46 -80 -84q-62 -62 -94 -133q-13 -26 -23.5 -35.5t-32.5 -9.5h-2q-16 0 -28 4q-59 -20 -84 -82q-20 -46 -35 -141q-15 -59 -43 -141q-18 -46 -51 -144 q-64 -175 -94 -286q-6 -30 -23 -58l-57 -147q-91 -231 -123 -381q0 -2 -4 -18q-4 -20 -4 -25zM463 530q3 34 12.5 65.5t18 50t30.5 59.5q55 108 138 215q48 65 202 229q50 31 60 31h2v-2l22 -21q-3 -72 -37 -141q-63 -137 -153 -242q-33 -41 -49 -57q-80 -88 -129 -127 q-70 -60 -115 -60h-2z" />
<glyph unicode="Q" horiz-adv-x="1163" d="M43 313q0 -151 91.5 -242t254.5 -91h23q18 0 28 2h23h12q23 0 60 18q69 32 149 84q36 22 51 27l19 -50l51 -274l51 -309q3 -7 8.5 -20.5t7.5 -18.5q7 -26 15 -41q19 -47 41 -49h67q9 5 22.5 17.5t14.5 17.5v69q0 52 -10 117t-10 117v18q0 13 2 19l-86 532l155 178 q5 8 9 14t6 14.5t3.5 13t2 16.5t0.5 18v24v27q0 86 -47 86q-27 0 -62 -35l-86 -112h-16q-8 125 -51 260l-72 63q-2 2 -22 2h-27q-28 0 -37 -20l-18 -45v-35l18 -193v-49l18 -98v-63q0 -5 -18 -17q-64 -41 -82 -51q-21 -12 -24 -12q-24 -15 -56 -31q-95 -42 -106 -45 q-19 -8 -27 -8h-125l-16 32q-11 16 -17 33v49q12 205 119 433q101 222 268 389q176 176 377 215q57 0 83 -26.5t26 -88.5q0 -53 -12 -82q-8 -19 -78 -143q-11 -29 -31 -56l-16 -24q-9 -12 -9 -15q0 -58 23 -86t86 -28q8 4 18 14l27 23q26 23 41 43q63 94 95 186t32 164 q0 104 -72 188q-85 95 -209 95q-89 0 -163 -27q-147 -52 -273 -162q-68 -55 -125 -104l-3 -4q-3 -4 -5 -5q-8 -5 -8 -10q-289 -344 -365 -745q-14 -49 -14 -103z" />
<glyph unicode="R" horiz-adv-x="1003" d="M41 41q0 -60 20 -96q27 -49 91 -49q43 0 65 15t33 50q33 117 35 127q13 53 37 113q1 -81 57.5 -153t148.5 -126q85 -50 183.5 -79t181.5 -29q39 0 49 8t10 43v31q-3 9 -34 32l-300 127q-5 3 -18 13t-22 16q-25 14 -31 20v68q0 33 20 61l105 132q82 100 188 206l197 197 q246 246 366 434q15 21 25 54t12 57q0 66 -76 125q-75 55 -151 55q-137 0 -295 -86q-22 -12 -46 -27t-40.5 -26t-45 -31t-38.5 -28t-42.5 -32t-37.5 -28q-33 46 -61 74q-39 39 -86 39q-27 0 -39.5 -12t-24.5 -40l-51 -190q-43 -138 -92 -252q-49 -117 -101 -250l-16 -47 q-13 -29 -33 -63q-6 -10 -32 -62q-39 -80 -39 -117l-21 -32zM354 299q0 6 2 10v6q1 2 4.5 11.5t6.5 17.5l3.5 14t5 18.5t5.5 16.5q15 49 29 82l32 82q4 4 9 16q1 7 10 33l12 31l4 16l53 97l17 49l55 65q117 152 236 252q144 125 305 168l69 12q5 0 11 2h12q0 -10 -4 -14 q-26 -60 -68 -117q-71 -98 -184 -206q-17 -17 -98 -97q-31 -34 -71 -75t-69.5 -70.5t-77 -76.5t-71.5 -71q-176 -172 -236 -288v8q-2 4 -2 8z" />
<glyph unicode="S" horiz-adv-x="1171" d="M43 80v12q0 26 20 33q36 -4 125 -4h78h56q62 0 110 22l35 17l178 67l35 17l106 69q86 68 103 88q22 26 22 50q0 27 -32 41q-62 25 -254 34q-36 1 -113.5 5.5t-95.5 5.5q-5 0 -29 4q-7 1 -20 2t-19 2l-37 6q-10 2 -18 2l-72 53q-45 34 -67.5 89t-22.5 116q0 114 115 236 q73 77 221 178q96 66 154 102.5t154.5 79t187.5 57.5q44 0 108 -51q70 -59 70 -119q0 -71 -56 -104l-8 -2l-12 8q-40 22 -72 35q-6 3 -12 5t-11 3t-7 2q-69 0 -170 -43q-84 -38 -166 -96q-139 -81 -224 -180q-77 -89 -77 -154q0 -27 11 -37t44 -22l78 -4q21 -1 62 -2t61 -3 q172 -8 204 -8q106 -3 224 -94q50 -39 80 -87.5t30 -92.5q0 -85 -121 -197q-109 -101 -178 -129q-253 -141 -514 -141h-41q-14 0 -55 10q-76 19 -135 66q-33 20 -33 53z" />
<glyph unicode="T" horiz-adv-x="593" d="M-113 1223q0 -44 34 -81.5t85 -37.5h8q7 0 9 2l34 16l254 64q11 0 19 2q4 1 12.5 2t13.5 2q4 1 12.5 2t12.5 2q8 2 18 2h2q9 0 19 2h20q23 0 35 -4l-20 -68l-140 -329q-6 -13 -8 -21l-12 -33q-3 -9 -7.5 -20.5t-7.5 -19.5t-4 -11q-42 -117 -75 -258l-68 -262 q-3 -10 -7.5 -26t-6.5 -21q-8 -16 -8 -45v-6q0 -36 29.5 -67.5t64.5 -31.5q51 0 98 107q37 84 72 223q39 156 57 207l156 420q2 2 8 14l10 25l12 24q0 2 9 19l73 158q10 10 19 28q10 21 20 23q42 18 90 18q96 0 129 -2q68 -4 144 -16q42 -9 67 -13l58 -2h16q4 -2 12 -2 q22 0 31.5 8t9.5 35q0 69 -60.5 103.5t-158.5 34.5q-52 0 -127 -7q-65 -6 -110 -6q-54 0 -54 17q0 7 5 12l20 29q6 9 6 16q0 17 -35 23q-50 4 -80 4h-108q-6 -2 -23 -19q-16 -16 -18 -16q-9 -31 -64 -47q-74 -23 -266 -35q-59 -3 -117 -10l-139 -23q-10 -8 -30 -20 q-15 -9 -25 -19q-25 -19 -25 -55v-10z" />
<glyph unicode="U" horiz-adv-x="1060" d="M41 203q0 -114 63 -166q45 -37 109 -37q28 0 53 14q43 22 103 86q48 51 114 131q73 89 142 179q33 45 63 82v-289q0 -57 55 -135q50 -74 80 -84q31 -19 97 -19q24 0 59 35q33 33 33 59q0 5 -8 13q-10 14 -43 47q-12 9 -19 16q-4 -4 -17 -10t-18 -6q-22 0 -28 49 q-7 58 -7 104q0 37 3 74.5t11.5 80.5t14.5 71t21 78.5t21 70t25 77.5t23 71q62 195 154 440q9 27 24 57q5 10 14.5 31t14.5 31q33 75 33 121q0 29 -41 59q-45 33 -80 41h-18q-25 0 -31 -19q-1 -4 -17 -40l-24 -60q-31 -74 -45 -102q-22 -51 -62 -125q-38 -72 -57 -129v-17 q-76 -117 -147 -231q-56 -90 -156 -225l-51 -68q-12 -24 -31 -43q-22 -19 -37 -43q-9 -11 -25.5 -29.5t-30.5 -34t-26 -30.5q-34 -41 -88 -92v26q0 76 51 211q59 159 119 357q11 61 31 123q28 81 82 198q18 40 39 101v8q0 36 -49 82q-50 47 -84 47q-35 0 -54 -19 q-28 -28 -39 -98q-6 -39 -24 -90q-2 -8 -10 -29.5t-11 -34.5l-22 -63q-9 -30 -12 -39q-37 -116 -64 -213q-24 -87 -72 -211q0 -6 -8 -27q-39 -128 -43 -143q-2 -8 -10.5 -38t-11.5 -46q-16 -55 -19 -67q-8 -24 -8 -35q-4 -12 -4 -84z" />
<glyph unicode="V" horiz-adv-x="716" d="M41 254q1 -9 2 -29t2 -30q4 -44 8 -62q13 -67 58 -104q29 -25 36 -29q11 -11 25 -18q19 -11 49 -11q36 0 68 19q53 31 96 100q27 45 37 60l53 86l70 139l51 86q1 2 3.5 8.5t7.5 17.5t9 23l33 82q6 18 18 46.5t15 37.5l18 47q92 204 166 330q97 167 181 225q0 4 2 8v8 q0 88 -103 88h-55q-2 0 -9 -7t-8 -11l-139 -174q-81 -102 -143 -236l-117 -249q-118 -251 -209 -416q-1 -1 -3.5 -4.5t-4.5 -5.5l-8 -9q11 184 69 504q58 347 103 520q-27 69 -64 96t-112 27q-27 0 -33 -24q-10 -45 -16 -80l-52 -330q-9 -59 -59 -346q-30 -173 -45 -348v-35 z" />
<glyph unicode="W" horiz-adv-x="1392" d="M76 229l4 -14q3 -12 6 -27q10 -44 14 -51q44 -135 179 -135q20 0 30.5 3.5t26.5 19.5q73 67 131 141q104 135 195 303l98 174l10 10l8 9l-2 -19v-74q-2 -25 -2 -73q0 -172 29 -267q14 -59 80 -129q62 -65 121 -65q57 0 108 45q93 83 172 297q63 169 139 428 q38 123 68 211q79 229 145 305l2 16q-2 26 -34 76q-13 19 -30.5 31t-29.5 12q-47 0 -110 -117q-52 -94 -117 -266q-48 -127 -94 -278l-74 -228q-57 -165 -82 -221q-35 -80 -61 -80q-23 0 -35 39q-25 77 -25 168q-2 25 -2 39l10 92q9 128 11 191q3 104 8 188l-27 55l-14 21 q-59 37 -70 37q-22 0 -57 -47q-71 -91 -156 -248q-14 -24 -36 -64t-31 -55q-62 -109 -140 -215q-67 -90 -151 -199q-6 0 -12 2t-13 2q5 40 8 111q1 12 2.5 34.5t2.5 33.5q2 20 2 43q48 139 92 303q38 142 100 297l12 28q3 8 10.5 24.5t10.5 22.5q31 77 31 78q0 9 2 19 q2 8 2 16q0 40 -33 90q-30 45 -70 45q-27 0 -53 -51q-39 -75 -59 -127q-37 -92 -121 -332l-4 -16q-1 -5 -4 -14.5t-4 -14.5l-7 -31q-1 -3 -1.5 -6t-1 -5t-1 -3t-0.5 -2l-24 -78q-22 -109 -25 -125q-15 -67 -22 -106q-22 -112 -35 -277z" />
<glyph unicode="X" horiz-adv-x="958" d="M41 -4q0 -96 96 -96q24 0 39 6t23 14t30 33l66 102l70 119q10 20 28 47q15 23 42 63t30 44q14 20 16 20v-2q56 -89 125 -166q82 -92 164 -125q2 -2 4 -2h4q4 0 21 14.5t22 22.5v35l-51 68q-33 41 -70 110q-28 50 -65 111l-35 67v13q-2 6 -2 12q0 25 25 67q38 64 137 193 q43 56 76 106l120 154q5 10 15 25q3 3 26 36q30 47 41 58l119 137q0 4 2 8v8q0 51 -51 95q-59 45 -104 45q-25 0 -41 -13q-24 -21 -31 -63q-3 -19 -10 -29q-43 -68 -93 -127q-54 -63 -94 -127q-53 -89 -110 -170q-46 -68 -109 -137q-5 -14 -16 -18q-21 53 -27 104 q-8 48 -24 103q-30 75 -66 118q-55 66 -111 66q-24 0 -36 -31q-9 -27 -9 -53q0 -42 13 -96q22 -103 59 -201l31 -94q1 -1 8 -19q3 -16 10 -33l12 -32q6 -21 -10 -47q-6 -9 -10 -21l-10 -18l-117 -189q-45 -79 -57 -102q-28 -54 -62 -103l-37 -49q-16 -22 -16 -61z" />
<glyph unicode="Y" horiz-adv-x="892" d="M74 -668q7 -34 19 -49.5t40 -15.5q50 0 78 28q41 43 65 142q9 37 21 55l65 219l52 146l104 249l29 56q21 43 55 104q62 119 150 277q7 14 31.5 60.5t37.5 70.5q69 129 101 172l57 80q65 93 65 131q69 123 121 188q6 8 25 27q9 9 29 33q32 46 32 69q0 35 -41 76 q-40 37 -82 37q-29 0 -65 -45q-63 -73 -154 -240q-43 -72 -69 -112l-17 -25l-26 -39q-40 -61 -41 -63q-58 -89 -103 -175q-49 -88 -102 -174q-5 -14 -16 -14h-11q-32 0 -73 41q-27 25 -54 68l-35 79q-1 9 -4 24.5t-4 18.5l-6 39q-4 50 -4 115q0 34 4 80q4 44 12 100 q2 14 2 49v17l-32 47q-19 27 -28.5 37.5t-29 19t-47.5 8.5h-14q-29 -17 -45 -40q-29 -48 -29 -154v-133q0 -90 8 -149.5t33 -114.5q57 -123 236 -265l51 -32q-41 -103 -92 -195q-54 -97 -94 -201q-140 -343 -205 -727z" />
<glyph unicode="Z" horiz-adv-x="1370" d="M41 20q0 -98 90 -153q70 -47 168 -47q27 0 92 12q89 17 311 80q57 16 134 33q156 32 276 32q45 0 84 -8q36 -8 82 -8q51 0 51 68q0 91 -86 123q-55 18 -162 18q-200 0 -465 -59q-150 -35 -294 -82h-19q-6 6 -10 12q-8 5 -8 14q0 11 22 39q32 41 53 64q44 52 136 149 q6 6 30 33q50 50 62 63q87 90 184 199l78 78q121 124 268 301q48 58 94.5 137t57.5 117q10 38 10 45q0 101 -82 160q-73 49 -180 49q-174 0 -367 -72q-91 -35 -143 -76q-82 -64 -82 -131q0 -62 42 -101.5t118 -39.5q33 0 47.5 15.5t23.5 45.5q5 21 9.5 32.5t18.5 26t36 21.5 q64 19 117 43q48 19 108 27h31q73 -5 76 -6q14 -3 14 -10l-16 -37q-137 -198 -308 -375q-140 -145 -335 -354l-226 -242q-60 -60 -92 -106q-49 -74 -49 -130z" />
<glyph unicode="[" horiz-adv-x="499" d="M-27 6q0 -76 27 -76l6 -2l17 -6q1 -1 3 -2l3 -1.5t2 -0.5q12 4 69 29q30 13 76 20l74 13q2 2 11.5 7t10.5 5h9q4 -2 10 -2t16 14t15 27l2 22q0 9 2 15t2 16t-21 16q-37 11 -96 11h-31h-37l72 213l2 16q87 220 115 309q32 104 61 174q31 86 43 172q3 1 16 4.5t21 4.5 l72 12q1 1 6 3.5t8 4.5q2 1 4.5 2t3.5 1.5t2 0.5h9q4 -2 10 -2t15.5 14t14.5 27l3 23q0 8 2 14t2 16t-17 17q-42 10 -86 10h-35h-102q-19 8 -35 8q-20 0 -33 -8h-6q-53 -30 -80 -221q-15 -38 -84 -256q-48 -153 -94 -318q-53 -192 -59 -225l-12 -57q-9 -27 -9 -64z" />
<glyph unicode="\" horiz-adv-x="559" d="M41 938q0 -19 1 -23.5t13 -27.5q4 -9 12.5 -28t10.5 -23q4 -8 11.5 -24.5t10.5 -23.5l13 -28q0 -1 3 -9.5t7 -15.5q2 -4 37 -84q12 -27 30 -76q10 -29 33 -91t25 -66q13 -35 33 -74q17 -39 47 -98q10 -23 10 -29q1 -1 8 -27l25 -86q3 -20 6 -26q8 -21 41 -109 q12 -41 33 -47l12 -2q22 0 37.5 22.5t17.5 47.5v12v16q-1 5 -2 15.5t-2 15.5q-3 31 -8 47q0 7 2 13q0 6 1 19t1 19v11q0 30 -41 151q-38 102 -78 238q-39 110 -65 213q-25 99 -72 213q-23 71 -45 90q-16 12 -62 12q-48 0 -76 -23.5t-28 -86.5q-2 -6 -2 -27z" />
<glyph unicode="]" horiz-adv-x="536" d="M-74 -49q0 -11 19 -14q42 -11 84 -11h30h103q13 -8 33 -8q21 0 34 8h7q32 18 53 73.5t43 147.5q11 24 102 256q55 148 115 318q54 150 78 225q5 18 20 64q8 24 8 77q0 56 -22 56l-6 2q-3 1 -5.5 2.5t-5.5 3t-4 2.5q-4 2 -8 2q-38 -12 -72 -27q-42 -17 -77 -22l-74 -12 q-2 -2 -13 -7.5t-12 -5.5q-4 0 -8 2h-10q-12 0 -33 -41l-4 -22q-6 -24 -6 -35q0 -9 20 -12q31 -10 93 -10h32h37q-8 -14 -12 -29q-2 -5 -5.5 -12.5t-4.5 -10.5l-68 -178q-93 -197 -137 -309q-44 -113 -74 -174q-39 -80 -55 -172l-111 -21q-2 -2 -11.5 -7t-10.5 -5q-4 0 -8 2 h-11q-6 0 -16.5 -14t-15.5 -27l-7 -22q-4 -20 -4 -33z" />
<glyph unicode="_" horiz-adv-x="1019" d="M41 -180q0 -42 45.5 -72.5t103.5 -30.5q103 0 205 15q135 18 377 24q64 3 88 15h21q10 -2 26 -2q30 0 51 19t21 44q0 21 -18 23q-157 12 -373 12h-479q-28 -5 -48 -17.5t-20 -29.5z" />
<glyph unicode="`" horiz-adv-x="483" d="M41 1425q0 -14 2 -18l2 -6q14 -25 51 -62l277 -211l26 5q31 18 37 29.5t6 43.5q-8 22 -23 40t-24 25t-26 19q-101 66 -142 99q-50 37 -82 69l-24 19q-12 12 -23 12q-24 0 -40.5 -18.5t-16.5 -45.5z" />
<glyph unicode="a" d="M41 117l27 -54q21 -26 33.5 -34.5t37.5 -8.5t54 13q47 19 98 63q30 26 43 35v-68q12 -80 43 -131q39 -69 115 -69q23 0 40.5 7t33 23t24 27.5t24.5 36.5q1 7 25 45q16 28 16 35q0 20 -14 26l-41 -26h-12q-31 0 -49 -12q-21 -15 -31 -15q-16 0 -16 45q0 87 34 168 q35 85 62 160q0 1 5 14t9 23q10 29 12 31l66 131l14 41l66 106v4q0 2 2 4v4q0 11 -8 19q-11 13 -45 37q-12 9 -15 12q-2 2 -14 2h-21h-18q-12 0 -14 -2l-27 -27l-53 -94l-12 -12q-7 4 -32.5 8t-35.5 4q-51 0 -96 -39q-84 -70 -170 -215q-25 -38 -66 -104q-2 -3 -17 -23.5 t-19.5 -27.5t-16.5 -25.5t-17 -29.5t-12 -27.5t-9.5 -31.5t-2.5 -30v-18zM295 317q5 16 29 56q48 68 90 110q21 21 26 21h15v-15q0 -2 -17 -26q-24 -28 -43 -47q-48 -50 -100 -99z" />
<glyph unicode="b" horiz-adv-x="917" d="M41 12q0 -10 2 -18v-17l29 -61q26 -35 82 -35q36 0 57 27q27 33 68 129q16 37 40 53q41 -31 86.5 -55.5t69.5 -24.5q1 0 13 2.5t27.5 6t21.5 6.5q150 47 251 233q89 170 89 320q0 22 -17 49q-39 52 -80 78l-12.5 7.5t-8.5 5.5t-5.5 2.5t-7.5 1.5t-11 1h-26q-35 0 -68 -10 q-58 -23 -111 -66q-21 -16 -55 -39q0 12 14 56q1 7 4.5 18.5t4.5 15.5q2 12 8 23l31 61l118 303q59 147 129 297v17q0 28 -34 71q-13 16 -32.5 26.5t-33.5 10.5q-40 0 -55 -30q-74 -170 -273 -691q-167 -437 -235 -587l-78 -156v-14q-2 -8 -2 -17zM367 184l108 156 q69 100 170 190l31 17v-25q0 -87 -60 -188q-53 -90 -127 -150q-18 -18 -30 -18q-9 0 -45 8z" />
<glyph unicode="c" horiz-adv-x="622" d="M41 217q0 -71 47 -141q51 -76 113 -76q69 0 159 41q94 43 144 90q18 13 28 37q6 21 29 41q-15 35 -82 35q-40 0 -125 -33q-89 -33 -129 -33h-4q-4 0 -9 5t-7 10v16l41 96l20 31q24 37 53 70q11 14 17 14q17 0 33 -19q12 -18 34 -18q58 0 76 35l39 98q8 8 17.5 21.5 t16.5 25.5t20.5 34.5t21.5 35.5q8 12 23 37t25.5 41t25 38t28.5 39q0 9 2 17v14q0 41 -30 86q-32 45 -68 45q-20 0 -61 -35q-74 -66 -193 -208q-32 -39 -63.5 -79t-69 -90t-45.5 -61q-40 -54 -43 -59q-1 -2 -11.5 -18.5t-13.5 -21t-12 -19.5t-12.5 -22.5t-10.5 -21.5 t-10 -23.5t-7 -22.5t-5.5 -24.5t-1.5 -23.5v-4z" />
<glyph unicode="d" horiz-adv-x="843" d="M41 98q0 -48 29.5 -87.5t79.5 -39.5h20l57 27q8 6 88 82q81 75 162 160q29 32 29 36q12 -102 37.5 -166.5t91.5 -119.5l29 -10l8 -3q-3 3 -4 3h12q6 -3 16 -3q31 0 42.5 13t11.5 55q0 25 -11 43q-14 14 -49 29q-10 3 -14 14v80q21 155 75.5 296t151.5 339q1 4 33 74 q26 59 35 96q4 4 8 41q0 16 2 24q1 2 1.5 5t1 5t1.5 3l29 67q7 18 18 37q12 21 12 31l-4 10q-1 3 -2.5 6.5t-4 9t-3.5 9.5q-17 35 -31 43l-55 26h-8q-12 0 -27 -8t-22 -18q-82 -223 -125 -318l-14 -26l-17 -54q-21 -60 -55 -135l-33 -80q-10 -25 -22 -49q-15 -39 -70 -78 q-58 48 -86 76q-33 33 -82 33q-41 0 -96 -66q-43 -52 -60 -108q-6 -11 -22.5 -41.5t-24.5 -44.5l-61 -117q-78 -156 -78 -201zM268 250l70 131q14 33 35 59q23 33 37 47l14 15h14l15 -53v-15q-69 -83 -185 -184z" />
<glyph unicode="e" horiz-adv-x="733" d="M41 223q42 -221 223 -221q98 0 217 53q131 60 131 127q0 5 -1.5 9t-5 7t-7.5 5t-10.5 3t-11 2t-12.5 1h-13h-14h-13q-52 0 -96 -12q-55 -18 -100 -25h-41h-9h-10t-9.5 0.5t-9.5 1.5t-7.5 3t-7 5t-4 7t-1.5 10q0 2 2 4v4q93 58 205 158q101 94 178 186q76 92 76 145 l-10 19l-21 37l-16 16q-5 4 -17 13t-20.5 15.5t-9.5 6.5h-47q-49 0 -84 -21q-71 -44 -125 -88q-48 -37 -123 -112l-18 -17q-9 -13 -28 -34.5t-26 -30.5q-38 -48 -51 -72q-53 -84 -53 -162v-43z" />
<glyph unicode="f" horiz-adv-x="598" d="M0 80h2l-2 26q2 41 74 52l63 6q39 0 66 8q0 70 186 586h6v4l25 20l2 6l-4 21q5 11 18.5 34.5t18.5 35.5q38 80 75 131q62 90 154 164q45 37 104 61l23 2h5q28 0 54 -11q28 -11 43 -22.5t43 -36.5q32 -16 41 -45q4 -11 4 -21q0 -25 -27 -37q-14 -6 -29 -6q-27 0 -60 19 q-10 6 -33 10h-8q-61 -3 -111 -59q-43 -48 -100 -162q-6 -13 -16 -30.5t-13 -24.5q-11 -30 -29.5 -85.5t-32 -97t-14.5 -46.5q-1 -6 -4 -18.5t-4 -18.5v-2q-16 -68 -61 -183l-19 -47q-2 -7 -4.5 -15t-3.5 -12t-2 -5v6q-18 -58 -20 -92l-4 -13q9 -24 30 -39q20 -14 29 -39v-2 q-10 -22 -47 -34q-26 -10 -29 -11q-12 -5 -27 -16l-6 -18q-9 -13 -10 -17q-13 -38 -16 -69q-6 -37 -15 -72q-27 -73 -30 -148q-6 -73 -15 -155l-18 -35q-15 -12 -35 -12q-18 0 -33 6l-49 4q-5 12 -26 29q-29 34 -29 88q0 6 2 8v8l2 8v19l61 233q-4 28 -4 47q0 33 -2 47 l-41 -4l-37 4q-20 11 -32 33q-3 4 -9 11.5t-11 13.5t-9 10z" />
<glyph unicode="g" horiz-adv-x="831" d="M-686 -918q0 -107 39 -204t106 -172q65 -74 147.5 -116t166.5 -42q196 0 309 211q9 9 29 53q12 26 106 260q36 92 57 142l45 108l17 43q2 -2 2 -4q26 77 49 154q71 232 125 417l68 226q16 51 38 98q32 74 107 145q21 19 47 48q51 54 51 114l-4 17q-23 23 -49 38l-49 13 h-29q-21 -7 -49 -19q-19 -8 -57 -8q-41 0 -64 2h-39q-8 -2 -49 -39l-28 -26q-10 -8 -19 -17q-4 0 -26 -10t-23 -10l-80 -68q0 -11 -22 -30q-21 -21 -54 -44q-83 -67 -100 -108q-1 -3 -7 -16.5t-9 -22.5q-1 -5 -4.5 -12.5t-4.5 -9.5q-4 -12 -4 -13v-28v-15q-2 -4 -2 -10 q0 -21 39 -57q41 -41 90 -41h15q25 4 47 14q56 20 104 45q19 8 25 14v-10q0 -37 -19 -102q-34 -111 -96 -279q-36 -101 -45 -145v-12q-21 -56 -53 -156q-27 -87 -62 -178q-79 -222 -145 -330q-92 -150 -189 -150q-58 0 -115 42t-104 112q-45 67 -71.5 144.5t-26.5 144.5 q0 17 4 49q-6 22 -27.5 35.5t-46.5 13.5q-36 0 -51 -80q-10 -54 -10 -119zM225 180q27 49 72.5 98t84 80.5t101.5 77.5q4 6 22 15.5t25 11.5q0 -5 -4 -25q-14 -41 -28 -63q-10 -13 -15 -13l-211 -167z" />
<glyph unicode="h" horiz-adv-x="749" d="M41 90q0 -37 22 -76q24 -43 60 -43q29 0 49 17q33 27 53 84q9 24 21 45q60 111 110 180q65 88 119 123v-14q0 -26 -6 -50q-4 -13 -14.5 -47t-14.5 -51q-8 -19 -8 -41q0 -63 27 -115q27 -59 82 -59q15 0 28 25q11 26 29 127q1 6 8 51q13 57 37 123q21 59 21 125v41 q-3 30 -52 67q-47 35 -80 35q-56 0 -129 -59l129 346q16 37 29 77l53 177q20 78 68 170q27 52 27 110q0 55 -21.5 79t-77.5 24q-20 0 -30 -13q-15 -17 -37 -92q-6 -22 -25 -70l-57 -188l-29 -115q0 -1 -4 -10.5t-6 -17.5q-3 -8 -8 -24t-8 -23q-8 -25 -19 -50l-12 -34 l-29 -58l-29 -100l-28 -43v-14q-9 -15 -19 -35t-10 -37l-59 -117q-24 -74 -58 -143q-6 -29 -26 -74q-3 -6 -16 -32.5t-19 -39.5q-41 -84 -41 -141z" />
<glyph unicode="i" horiz-adv-x="581" d="M78 449q0 -28 37 -78q45 -60 80 -60q14 0 16 2q-35 -52 -55.5 -120t-20.5 -113v-37q0 -29 2 -31l43 -63q24 -41 64 -41q37 0 53 16l158 144q4 0 10 8.5t6 13.5v14q0 6 -22 16.5t-35 10.5q-2 0 -6 -4q-2 -2 -6 -4.5t-5 -3.5v-15l-28 -14h-29q-1 0 -3 -1t-5.5 -2.5 t-5.5 -2.5l-13 -4h-16q89 247 158 389q3 6 12 24.5t14 30.5q16 36 33 62v14q-39 58 -61 75t-58 17h-12l-172 -157q-18 -18 -41 -21q-8 -1 -23 -2t-22 -2q-23 -3 -35 -16t-12 -45zM455 979q0 -47 31 -79t75 -32q42 0 72.5 32t30.5 79q0 44 -31 77.5t-72 33.5q-50 0 -78 -34.5 t-28 -76.5z" />
<glyph unicode="j" horiz-adv-x="598" d="M-20 -625q0 -25 47 -55q45 -29 67 -29q60 0 72 31l33 86q35 210 61 340q40 201 92 383q21 72 29 113q9 56 47 104q1 1 4 3.5t8 7t9 8.5l34 32q24 20 35 31l19 19q70 79 79 88q31 36 31 79t-41 76q-39 31 -84 31h-30q-18 -13 -34 -26.5t-32.5 -32.5t-25.5 -29t-26.5 -36 t-21.5 -32t-24.5 -39t-22.5 -36q-10 -23 -22 -35q-21 -18 -60 -27q-4 -1 -8.5 -2.5l-9 -3t-6.5 -2.5q-25 0 -45 20q-21 21 -50 21q-19 0 -34 -21q-17 -20 -29 -20v-19q-2 -10 -2 -22q0 -17 6 -29q10 -24 49 -59q5 -6 19.5 -21.5t21.5 -23.5q3 -3 25 -6q16 -3 22 -9v-45 l-8 -34q-11 -51 -14 -60q-9 -30 -15 -57q-3 -8 -5 -16t-3 -12.5t-2 -6.5q0 -53 -8 -94q-12 -63 -47 -166q-6 -13 -13.5 -32.5t-9.5 -24.5q-7 -48 -16 -60q0 -50 -6 -94q-15 -87 -35 -129q-9 -18 -16 -18zM590 1014q0 -45 30 -77t72 -32q41 0 72 32.5t31 76.5t-31 76t-72 32 q-50 0 -76 -33t-26 -75z" />
<glyph unicode="k" horiz-adv-x="856" d="M0 8q4 11 10 31q31 102 53 164q11 34 31 84l29 114q6 16 41 99q34 79 39 96l65 180q12 37 47 131l19 47v2q5 13 13.5 32.5t29 49.5t43.5 48q19 15 45 14h11q32 -4 65 -39l-23 -57q-62 -189 -96 -289q-48 -137 -92 -297h14q11 6 24 14.5t30 20t28 18.5q99 71 164 107 q34 18 55 18h14l66 -31l14 -18q1 -1 4 -6.5t5 -8.5q4 -7 10.5 -20t9.5 -18q1 -3 3 -6q1 -4 1 -5q0 -40 -59 -69q-27 -12 -54 -21q-28 -9 -47 -22l-47 -29q-81 -49 -119 -80q-24 -21 -24 -33l2 -8q9 0 14 -16q60 -40 76 -49q37 -22 51 -64q-3 -12 -28 -37q-28 -29 -33 -30 h-27q-49 0 -90.5 21.5t-89.5 62.5q-30 -23 -47 -62q-5 -10 -19 -37t-21 -40t-19 -32t-23 -32q-26 -29 -59 -29q-11 0 -17 2h-16q-26 11 -47 49q-29 45 -29 80z" />
<glyph unicode="l" horiz-adv-x="454" d="M98 168q0 -44 15 -94q15 -66 57 -66q22 0 37 35q23 54 47 176q9 47 18 68q46 171 181 461q114 251 274 561q8 16 33 57q20 33 37 66q45 81 45 133q0 28 -45 69q-42 39 -70 39q-21 0 -32.5 -24t-24.5 -76q-30 -122 -72 -164q-9 -13 -25 -47q-18 -41 -38 -82 q-7 -16 -21 -43.5t-20 -40.5q-15 -34 -25 -49q0 -3 -6 -12q-9 -19 -14 -25q-4 -5 -9 -13.5t-6 -9.5q-6 -12 -6 -14l-43 -100q-176 -348 -229 -527q-2 -6 -9 -28.5t-9 -28.5t-8 -26t-8 -27.5t-6.5 -25.5t-6 -28t-4.5 -26.5t-4 -29t-2 -28t-1 -30.5z" />
<glyph unicode="m" horiz-adv-x="1077" d="M41 166q0 -42 37 -82q42 -49 84 -49q21 0 33 6q16 9 30 37q3 10 13 24l135 232l45 90l45 80q30 37 45 49q0 -13 -8 -37l-21 -67q-8 -24 -18.5 -53t-23.5 -63t-19 -50q-1 -5 -39 -115q-23 -71 -23 -121q0 -24 33 -61q31 -39 66 -39h8q17 0 39 16q26 19 37 23l45 37l75 106 l76 90l37 51q26 37 37 52h16q0 -3 4 -19q19 -52 21 -55q4 -14 6 -19l29 -51q4 -4 24 -20l31 -25q39 -31 49 -31q26 2 47 52v12l-47 63v54q0 14 -2 30q-1 8 -2 26.5t-2 27.5t-2 26.5t-2 26.5q-2 16 -2 31v26q-10 49 -44 76t-85 27q-30 0 -43 -15t-25 -51l-45 -51 q-25 -11 -43 -53q-19 -44 -49 -62q-1 -1 -3 -5t-5 -9.5t-6 -11.5l-6 -12t-5.5 -10t-3.5 -5h-16q0 33 18 74q4 11 14 34.5t13 34.5q31 111 31 191q0 49 -33.5 85t-83.5 36h-4q-2 -2 -6 -2h-8q-72 -58 -119 -86q-15 -10 -25 -15q-1 -1 -3 -2l-3 -1.5t-2 -0.5l-2 2q0 21 16 43 q17 20 17 41v6q-61 66 -113 66q-16 0 -43 -35q-26 -29 -26 -55q0 -11 2 -17v-12q0 -1 -2 -4t-3 -6t-4 -9.5t-4 -9.5q-8 -12 -10 -18q-2 -4 -5 -11l-3 -6q-1 -1 -3.5 -6t-4.5 -8q-22 -36 -29 -49q-8 -11 -8 -14l-17 -78q-9 -33 -18 -55q-10 -23 -10 -27v-29l-4 -12 q-8 -13 -11 -23q-8 -16 -10 -22l-6 -10q0 -13 2 -19v-10q0 -14 -22 -43q-25 -37 -25 -47z" />
<glyph unicode="n" horiz-adv-x="806" d="M74 176q11 -44 47 -92q33 -45 57 -45h10q7 0 9 2h-2l18 16v-2l57 60q-3 0 13 16l51 70l31 37l59 69q31 36 80 70l-4 -101v-15q0 -37 8 -61q10 -28 39 -55l22 -20q42 -42 64 -53l6 6q20 12 38.5 33.5t22.5 42.5l-4 22v-2q-20 57 -20 76q0 71 24 158l9 28q28 94 28 154 q0 64 -51 102l-35 13h2l-18 8q-6 0 -19 8l-12 8q-31 -3 -65 -41l-23 -24h2q-22 -25 -61 -54q24 84 24 117q0 66 -57 96l-16 6q-37 13 -52 13q-38 0 -55 -35q-13 -26 -25 -72v2q-2 -2 -2 -12q0 -4 2 -4q-3 -7 -7.5 -23t-11.5 -40t-13 -42q-3 -10 -6.5 -21.5t-8 -23.5 t-6.5 -18l-12 -37l-25 -67l-30 -82q-21 -54 -23 -68l-24 -35q-27 -37 -33 -65z" />
<glyph unicode="o" d="M41 125q0 -26 6 -47l8 -35q2 -5 19 -18q12 -12 35 -25q60 -35 118 -35q98 0 195 64q52 34 127 114l61 60q1 2 7 13.5t6 14.5l45 72l20 25q14 34 17 47q3 10 6 18.5t5.5 15t2.5 7.5l-2 14q-1 5 -15 33q-26 43 -92 43l-20 76q-2 1 -6.5 3.5t-8 5t-6.5 5.5q-20 12 -37 25 l-24 10q-27 12 -70 12q-28 0 -47 -8q-35 -12 -84 -51q-24 -17 -49 -31q0 -5 -10 -18l-53 -60q-16 -16 -25 -31q0 -8 6 -8l-18 -18q-5 -4 -10.5 -8.5t-8.5 -7t-4 -3.5q-19 -22 -32 -51t-13 -47l-12 -39q-37 -76 -37 -137zM233 92v2q0 3 3 6v6l10 62l-4 -2l16 45q0 64 64 156 q52 75 133 139h2q14 0 20 -6l8 -8q0 -1 -4 -5q-4 -2 -10 -8l-12 -12l-17 -37l-43 -41l-8 -18l-22 -39q-4 -5 -7.5 -11.5t-7.5 -13.5t-6 -10q-22 -42 -24 -78l4 -65l-43 -41q-4 0 -6 -2l-13 -7zM461 508l4 10v-6l-2 -4h-2z" />
<glyph unicode="p" horiz-adv-x="933" d="M-188 -625q0 -18 2 -22q3 -50 90 -76q51 0 76 45q6 11 11 24.5t9.5 29.5t5.5 20v-2l70 209q0 3 4 14t8 12l-2 13l20 63v-2q10 38 31 84q4 10 16.5 36t18.5 40l18 45l23 55q10 29 33 29l69 -8q0 -9 54 -9q40 0 65 2q66 3 121 17q24 3 27 10q6 9 24 12l19 4h-2q68 56 96 80 q41 33 80 72v4q47 59 86 139q37 79 37 146l-15 147q-2 12 -14 35l-25 23l-98 67h-90l-78 -31l-27 -20q-4 -3 -14 -10t-18.5 -13.5t-16.5 -11.5l-49 -35q-55 -42 -55 -63q0 -4 -2 -6l-10 -19q6 18 6 43v8q-2 2 -2 9l-2 2q-1 3 -25 22l-22 23q-2 1 -6.5 3.5t-8 5t-6.5 5.5 q-10 7 -39 10q-9 -4 -17 -9t-14 -9t-11.5 -10.5t-9 -10t-7.5 -12t-5.5 -11.5t-4 -12.5t-3.5 -11.5t-3.5 -13t-2.5 -13l-12 -41q-30 -100 -98 -254q-130 -368 -191 -527l-90 -235q-24 -67 -24 -111zM313 111q7 17 35 90q19 48 62 116q102 156 297 252h6q4 0 12 -8l23 -22 q30 -34 30 -62q0 -43 -33 -106t-88 -121q-137 -144 -272 -144q-15 0 -72 5z" />
<glyph unicode="q" horiz-adv-x="851" d="M25 -899v-23q0 -41 30.5 -66.5t75.5 -25.5q50 0 66 27q2 3 3.5 6.5t3 8.5t2.5 9t2 11t2 11t2 13.5t1.5 14t1.5 16.5t2 18q25 105 115 324l18 45q0 9 10 16h-2q4 4 4 7l193 485l27 78q27 78 45.5 126.5t49 112.5t64.5 113v-2q3 11 13 20q57 57 57 97q0 18 -31 45 q-31 24 -51 24q-11 0 -43 -16l-6 -4h2q-2 -2 -10 -6l-17 -6l-65 55q-22 14 -64 14h-20h-8q-2 -2 -9 -2h-24q-254 -200 -369 -436q0 -15 -2 -21t-2 -14q0 -46 17 -74l57 -47q18 -14 55 -14q56 0 101 23t96 67l6 -2l-221 -563l-10 -17l-7 -12q-3 -6 -6 -6l-4 -23l-20 -36 l-74 -191l-16 -53q0 -8 -7 -25q-9 -22 -10 -28zM258 188q2 4 2 13v10v4l119 158q8 11 22 22l13 13l24 24q16 21 39 21q-4 -6 -11 -26t-7 -26l10 -8l39 -22l-31 -52l-63 -40q-71 -55 -156 -91z" />
<glyph unicode="r" horiz-adv-x="684" d="M16 31q10 -30 23 -43q18 -29 47 -43l8 -6q46 3 66 16q22 13 41.5 45.5t52.5 103.5q17 39 84 162q38 69 94 131q69 80 135 80q20 0 35 -6q13 -8 31 -8q23 0 45 29q20 27 20 47l2 10q0 42 -38 70t-89 28q-39 0 -96 -39q-59 -41 -88 -41h-8l94 131q0 6 -8 17q-12 16 -18 26 q-27 35 -39 35q-4 4 -37 4q-66 0 -76 -30q-11 -21 -43 -79t-48.5 -88.5t-40 -77.5t-40.5 -87q-85 -199 -105 -346z" />
<glyph unicode="s" horiz-adv-x="643" d="M-102 -102q0 2 2 4v6q1 12 2 16t4.5 9.5t11.5 9.5l184 59q2 2 33 16q3 1 43 17l47 24q31 17 107 82q40 32 53 45q22 18 23 17l-2 6q-128 22 -226 94q-102 75 -102 166q0 92 131 195q20 15 108 73q10 6 26 16t22 13q23 10 26 10q18 0 45 -35t27 -59q0 -59 -37 -88 q-11 -11 -35 -27q-21 -12 -37 -28l-20 -27l-17 -18q-23 -19 -30 -35q-6 -12 -6 -31q16 -19 47 -22q12 -1 30 -5t19 -4q191 -59 213 -204v-13q0 -6 -2 -8q-2 -4 -2 -8l-23 -60q-160 -135 -323 -219q-128 -67 -220 -67q-40 0 -73 16q-49 22 -49 64z" />
<glyph unicode="t" horiz-adv-x="761" d="M0 436q7 -49 35.5 -84t56.5 -35q45 0 84 19q-6 -18 -6 -49q8 -116 18 -144q8 -24 21 -34q40 -63 65 -78q33 -23 80 -23q63 0 139 21.5t142 58.5q153 85 153 186q0 42 -61 50l-20 -9h-2q-14 -8 -39 -24t-37 -23q-30 -20 -82 -47q-100 -51 -162 -51q-43 0 -43 41 q0 104 41 186q54 108 180 201q-20 33 -57 49q64 126 129 258q62 124 104 264q0 7 4 27q2 10 2 27q0 80 -90 80q-30 0 -51 -27q-30 -42 -59 -146q-7 -30 -19 -59q-118 -282 -225 -457q-9 -14 -51 -32l-80 -33q-63 -16 -111 -41q-56 -27 -59 -66v-6z" />
<glyph unicode="u" horiz-adv-x="749" d="M41 145q0 -43 29 -79.5t69 -36.5q48 0 121 65l100 84h5q2 0 4 2q2 -2 10 -6q12 -9 12 -10q19 -62 47 -117q36 -70 90 -70q34 0 90 70l3 21q0 3 -0.5 6t-2 5.5t-2.5 5t-3.5 5.5t-4 4.5t-5 4.5t-5 4.5t-5.5 5t-5 4.5q-40 31 -47 51l4 20q10 94 67 211q65 138 88 201 q7 7 7 39q0 43 -27.5 69.5t-67.5 26.5q-20 -6 -34 -14q-35 -19 -35 -45v-8q-80 -140 -183 -252q-15 -15 -20 -19l-31 -31l-51 -51v19q8 48 37 94q27 43 47 88l2 16q29 46 47 86q19 46 33 82q0 42 -25.5 80.5t-52.5 38.5q-34 0 -61 -35q-52 -66 -92 -176q-10 -34 -29 -76 l-43 -98q-18 -40 -29 -61q-14 -26 -24 -58q-27 -69 -27 -166z" />
<glyph unicode="v" horiz-adv-x="602" d="M41 96q0 -39 18 -65l43 -78q15 -27 52 -27h6l57 39q4 1 9 7t5 8l31 51q73 95 184 282q99 166 168 250l103 119q11 13 21 36t10 34q0 17 -8.5 26t-17 11.5t-34.5 7.5h-14q-14 -6 -41 -15q-16 -6 -33 -22l-45 -53l-45 -39l-14 -25q0 -2 -21 -27l-14 -16q-4 -6 -8 -10 q-13 -19 -21 -29q-9 -12 -27.5 -35.5t-25.5 -33.5l-14 -19q-23 -39 -60 -111q-27 -55 -74 -96q0 -4 -4.5 -9t-9.5 -5l8 20q1 4 4 15t4 18l15 51v13q4 7 9 32t5 33q16 62 41 111q25 48 47 110q0 19 -12 37q-22 32 -70 60q-13 6 -37 20q-5 -5 -16 -14.5t-16 -14.5 q-19 -16 -25 -36l-12 -39q-5 -13 -15.5 -38.5t-15.5 -39.5q-10 -32 -22 -96q-5 -29 -23 -99q-43 -164 -45 -262v-37z" />
<glyph unicode="w" horiz-adv-x="1044" d="M41 184q0 -32 14 -57q22 -56 64 -98q14 -17 22 -21q4 -4 54 -4q47 0 88 27q63 38 145 139q38 44 68 68q29 -124 69 -183q52 -80 158 -100q2 -1 5 -2l4.5 -1.5t2.5 -0.5q29 0 56 24q45 42 77 113q13 26 13 27q124 237 211 616l2 25q0 82 -84 82h-11q-27 -12 -30 -39 q-2 -19 -15 -49l-22 -54l-78 -213q-11 -28 -30 -81t-23 -64q-25 -72 -82 -135l-21 -19h-16v19q-2 6 -2 26q0 47 4 97q4 46 4 67q0 54 -31 105q-35 54 -90 57q-76 -61 -137 -137q-76 -90 -135 -144q-4 -4 -19 -10q-17 -7 -18 -8l2 8q2 36 41 117q34 77 39 115v10 q0 41 -30.5 72.5t-71.5 31.5q-20 0 -34.5 -6t-25 -23t-14.5 -25.5t-14 -35.5l-50 -123q-2 -12 -14 -53q-3 -10 -10 -30.5t-10 -30.5q-25 -73 -25 -99z" />
<glyph unicode="x" horiz-adv-x="724" d="M41 -27q0 -26 39 -53q14 -10 59 -29h17l18 11q12 3 12 6l209 217h2q2 0 4 2h2q2 -2 5 -2h4q1 -1 16 -10l31 -17q10 -4 21 -10t18.5 -9.5t9.5 -4.5h96q17 2 17 30v35l-129 133l288 351q0 6 2 16v18q0 59 -33 96.5t-81 37.5q-22 0 -56 -46q-11 -14 -71 -106 q-106 -170 -179 -231q-28 70 -69 124q-60 74 -115 74h-8l-31 -33v-30q-2 -16 -2 -33q0 -78 115 -238v-4l2 -4l-2 -6q-4 -10 -37 -61q-26 -39 -59 -72l-50 -51q-35 -40 -47 -62q-13 -22 -18 -39z" />
<glyph unicode="y" horiz-adv-x="741" d="M-233 -645v-8q20 -82 102 -109q36 -14 102 -14q75 0 140 35q121 63 221 219q83 128 157 305q3 7 58 139l16 45l37 144q17 68 39 143q45 154 82 229l31 60v61q-10 23 -44.5 43.5t-58.5 20.5q-19 0 -35 -19q-28 -33 -55 -112l-27 -68q-24 -59 -90 -125q-60 -62 -131 -104 q-2 -2 -16 -9q-17 -7 -29 -14q-40 -22 -47 -24v24q0 82 41 166q48 98 84 176q0 41 -31 80q-34 43 -77 43q-17 0 -27 -10q-15 -15 -27 -56l-10 -26l-94 -197q-17 -52 -17 -100q0 -119 39 -187q42 -77 144 -77q32 0 87.5 28.5t92.5 63.5q-34 -101 -48.5 -143.5t-45 -117 t-62.5 -132.5q-5 -10 -26.5 -48.5t-34.5 -62t-35 -58t-43 -61.5q-108 -139 -217 -139q-30 0 -53 10q-27 10 -54 10q-38 0 -38 -24z" />
<glyph unicode="z" horiz-adv-x="780" d="M43 213q0 -207 193 -207q53 0 86 8q55 12 131 56q68 30 75 32l60 19l28 14q15 6 52 27q71 38 71 65v6q-5 15 -16 19h-68q-19 0 -37.5 -1.5t-41 -5.5t-35 -6.5t-40.5 -9t-36 -8.5q-130 -33 -191 -33q-2 2 -2 5v8q27 43 76 99t80.5 88.5t95.5 96.5q49 49 115 119 q47 53 47 74q0 31 -51 86q-22 23 -46 39t-38 16l-346 17q-50 0 -81.5 -30.5t-31.5 -64.5q0 -31 33 -73q31 -43 68 -43h213q-79 -86 -148 -152q-57 -57 -145 -160q-2 -3 -8.5 -10t-10.5 -12q-18 -23 -22 -29q-11 -18 -19 -29l-4 -6t-3 -5t-2 -3t-1 -2v-4z" />
<glyph unicode="{" horiz-adv-x="765" d="M201 555q0 -48 35 -66q32 -17 83 -20l-14 -27l2 4q-19 -35 -22 -53l-17 -53v2q-20 -69 -20 -135q0 -81 43.5 -131t144.5 -74h15q12 0 20 -2q16 -4 18 -4h52q55 0 104 27q57 28 57 77q0 31 -29.5 53.5t-60.5 22.5h-57q-12 -3 -12 -4l2 -2q0 -2 -8 -2q-20 -4 -43 -4 q-70 0 -70 57q0 21 6 62l21 71q10 30 22 47q9 16 27 41q32 54 32 90q0 16 -10 33q42 40 62 76.5t32 91.5l17 51q28 61 35 95q6 29 22 79q13 38 39.5 65.5t79.5 49.5l55 2q97 5 97 76q0 40 -48 63q-31 15 -65 15q-90 0 -164 -35q-89 -45 -135 -125l-21 -47l-12 -41 q-1 -4 -3.5 -9.5t-4 -9t-2.5 -6.5l-68 -227v2q-16 -38 -49.5 -58.5t-85.5 -35.5q-36 -12 -53 -19t-33 -23.5t-16 -39.5z" />
<glyph unicode="|" horiz-adv-x="348" d="M43 104q0 -52 16 -96q21 -57 68 -57q25 6 41 37q29 62 35 143l6 59q0 1 4 29q1 7 2 22t2 23l6 49q2 16 2 37v17q32 158 49 303q4 34 23 157q10 82 10 154v20v33q-2 10 -2 31v20q-21 24 -35.5 38t-39 29t-46.5 15q-49 0 -63 -45q-12 -32 -12 -88q0 -37 2 -55v-37l-50 -543 q-18 -116 -18 -243v-52z" />
<glyph unicode="}" horiz-adv-x="794" d="M145 102q0 -4 2 -6v-8q0 -44 29 -64t72 -20q164 0 274 92q97 81 140 238q10 72 10 110q0 39 10 84h-2l2 2l39 21q78 36 78 94q0 54 -68 76q2 39 49 119q43 71 62 123q0 8 10 38q10 25 10 82q0 191 -223 191h-21q-42 0 -70 -20t-28 -64q0 -41 27.5 -64.5t70.5 -23.5 q1 0 29 4h2q25 0 31 -2q6 -3 6 -10q0 -29 -12 -56q-13 -23 -27 -55l-37 -74q-36 -78 -51 -137q-14 -46 -14 -59q0 -25 2 -31q1 -3 2 -10t2 -10l-2 -7q-32 -28 -46 -47.5t-14 -46.5q0 -24 5 -49q4 -20 4 -23q0 -182 -95 -260q-67 -53 -190 -57q-43 -20 -55 -39 q-13 -19 -13 -31zM682 528v2l4 2z" />
<glyph unicode="~" horiz-adv-x="1024" d="M41 545q0 -35 25 -65.5t77 -37.5h19q6 -6 12 -6t10 2q6 0 9 13q45 120 88 172q41 47 79 47q24 0 53.5 -18.5t46.5 -35t54 -55.5q50 -52 91.5 -80t90.5 -28q32 0 89.5 18t101.5 51l2 -2q36 27 65 57t29 46q0 12 -37 34q-22 13 -69 29h-39q-14 -1 -28.5 -5.5t-20.5 -7 t-24 -13t-20 -11.5q-65 -36 -100 -41q-6 3 -6 6l-4 7q-51 59 -68 84q-24 36 -53 65q-57 57 -127 57h-20q-53 -4 -111 -32t-106 -70q-49 -43 -79 -91t-30 -89z" />
<glyph unicode="&#xa1;" horiz-adv-x="409" d="M41 96q0 -4 2 -6t2 -6l27 -31l28 -33q5 -9 23 -22q21 -18 63 -18h29q0 7 8 20t19 39q26 59 34 100l29 115q32 99 78 229q23 69 82 277q6 39 18 74q20 58 23 69q26 87 26 154q0 43 -8 67l-4 13q-12 31 -37.5 58.5t-52.5 27.5q-13 0 -16.5 -2.5t-3.5 -12.5l-19 -71 q0 -35 -10 -45l-12 -72q0 -4 -2 -10t-2 -19q-3 -9 -3 -18q-2 -6 -2 -10q-18 -68 -49 -156q-54 -137 -59 -152q-48 -126 -102 -280q-45 -127 -109 -279zM459 1356q0 -21 24 -49q25 -33 25 -54l14 -10q0 2 6 -4l7 -4q32 4 45 11t36 30q39 54 39 135q0 17 -26 35t-51 18 q-36 0 -80 -30l-2 -7q-37 -43 -37 -71z" />
<glyph unicode="&#xa2;" horiz-adv-x="720" d="M41 438q0 -58 37 -98q57 -62 160 -104q34 -15 34 -27v-19q0 -7 9 -16q16 -16 38 -27q3 -1 6 -3q4 -1 5 -1q14 0 24 13q18 20 39 61q9 16 25 25q34 18 78 34q11 4 73 31q82 35 133 103v2q0 2 3 2v2q0 15 -20.5 25t-37.5 10q-43 0 -92 -21q-47 -20 -86 -20q-8 0 -12 2h-11 q0 13 7 57q11 86 30 135q7 17 17.5 24.5t19.5 8.5t41 2q24 0 70 4q86 11 86 57q0 43 -70 72q-29 10 -115 27l13 110q-46 86 -107 86q-35 0 -51 -22q-20 -36 -27 -131q-3 -39 -16 -72q-7 -34 -14 -41q-102 -47 -174 -113q-89 -82 -113 -165q-2 -2 -2 -7v-6zM227 410 q0 40 45 67v-18v-19q0 -18 -2 -26q-4 -35 -20 -35q-10 0 -16.5 10t-6.5 21z" />
<glyph unicode="&#xa3;" horiz-adv-x="964" d="M41 412q2 -4 9.5 -15.5t12.5 -19.5q16 -27 43 -37l25 -12q29 -14 29 -35v-21q-31 -80 -74 -247v-7v-2q-2 0 -2 -2v-4q0 -139 104 -139q35 0 48 8q29 12 47 49q13 22 26 37q40 48 70.5 68t85.5 41h39q52 0 162 -25q106 -24 161 -24l76 16q16 10 19 20q0 17 2 25v33 q-3 14 -33 26q-45 17 -156 37q-34 5 -63 13q-65 32 -148 32q-51 0 -92 -8t-92 -8h-6q32 147 96 168l49 16l88 62q39 26 39 71q0 21 -14 21h-115l4 61q30 68 35 80q8 20 27.5 62.5t23.5 52.5q74 155 135 219v-12q0 -3 -6 -15l-14 -28q-20 -42 -41 -66v-14q0 -33 34.5 -55.5 t72.5 -22.5q57 0 92 47q59 83 75 207l7 47q0 53 -25 68l-33 14q-23 23 -39.5 28t-64.5 5h-41q-18 -2 -29 -2q-33 -3 -106 -76q-66 -69 -90 -109q-11 -11 -23 -32q-7 -11 -10 -19q-6 -9 -6 -10q-3 -8 -26 -53t-38 -80q-69 -155 -86 -193q-42 -91 -57 -135q-6 -14 -31 -14 q-9 -1 -28 -2t-29 -2q-87 -8 -117 -76z" />
<glyph unicode="&#xa5;" horiz-adv-x="659" d="M41 559q0 -55 27 -94t63 -39q19 0 51 4v-4q-2 -2 -2 -4l2 2q-90 -178 -119 -361v-8q7 -27 18 -39t38 -12q38 0 55 14q25 18 41 74q6 20 21 35l36 109l29 71h-2q10 18 31 60q6 10 15 30.5t13 28.5v-2l27 45q59 3 96 12q39 10 51 15h11q6 -2 18 -2q17 0 29 24t12 55 q0 25 -10 31q-62 9 -117 12q99 161 166 256q30 43 39 52q16 20 22 26l17 25h-2l14 12v-2q43 30 43 68q0 25 -31.5 51t-62.5 26q-29 0 -61 -36t-72 -97l-8 -12q-4 -6 -68 -92q-42 -57 -59 -84l-72 -111q-10 5 -18 11q-14 7 -25 24q-35 49 -35 129q0 31 6 58q4 36 4 53v16 l-14 23q-4 4 -12 13t-10.5 11.5t-9 8.5t-10.5 7.5t-11.5 4.5t-15 3.5t-17.5 0.5h-14q-43 -22 -54 -57q-8 -25 -8 -101v-33q0 -77 23 -127q25 -53 121 -125h-158q-41 -14 -41 -59z" />
<glyph unicode="&#xa6;" horiz-adv-x="348" d="M43 104q0 -52 16 -96q21 -57 68 -57q25 6 41 37q29 62 35 143l6 59q0 1 4 29q1 7 2 22t2 23l6 49q2 16 2 37v17q8 24 8 57q0 54 -25.5 80t-66.5 26q-25 0 -42.5 -12.5t-18.5 -34.5l-19 -84q-18 -116 -18 -243v-52zM90 647q46 -37 78 -37q76 0 113 146q26 104 26 225v20 v33q-2 10 -2 31v20q-21 24 -35.5 38t-39 29t-46.5 15q-49 0 -63 -45q-12 -32 -12 -88q0 -37 2 -55v-37z" />
<glyph unicode="&#xa7;" horiz-adv-x="917" d="M12 59q11 -53 92 -82q65 -26 129 -26q212 0 420 110q71 30 150 103q98 91 98 155q0 56 -59 115q88 99 88 166q-1 6 -2 17.5t-2 15.5q-6 24 -29 41q-26 16 -35 22t-12 19q-2 6 -10 22q-16 32 -54 41l-77 21h-19q-18 0 -24 -2q-12 -4 -23 -4l-70 -21q-158 -58 -276 -184 l-25 -27q-18 9 -18 31q0 44 59 115q58 70 179 135q77 51 139 76q78 32 135 32q66 -30 96 -30q56 0 56 79q0 48 -60 97q-54 41 -92 41q-105 -17 -201.5 -65.5t-206.5 -123.5q-120 -85 -178 -143q-96 -96 -96 -180q0 -105 74 -162l10 -8q-75 -83 -78 -144q0 -14 2 -16 q6 -30 58 -64t174 -34q110 0 213 34q139 46 182 117v-2q0 -53 -33 -92q-61 -72 -188 -113q-93 -30 -205 -43l-49 -4h-45h-64q-72 0 -104 4q-19 -6 -19 -30v-9zM283 309q1 1 8 15q2 3 6.5 12t7.5 14q3 8 17 31q4 6 8.5 17t5.5 12t23.5 25t33.5 38q26 33 58 62q64 60 141 83 l84 27q28 4 37 4h24q21 0 27 -2q2 -1 5 -1.5t4.5 -1t2.5 -1.5q-19 -98 -133 -184q-89 -67 -250 -137q-58 -29 -88 -29q-19 0 -22 16z" />
<glyph unicode="&#xa8;" horiz-adv-x="589" d="M31 1264q0 -18 22.5 -35t46.5 -17q35 0 86 31l2 6q45 45 48 72v8q0 17 -17 43q-18 22 -18 43v8l-13 11q-2 0 -6 4l-4 4q-35 -4 -49 -11t-39 -30q-48 -59 -59 -135v-2zM342 1264q0 -17 23 -34.5t47 -17.5q35 0 86 31l2 6q44 44 47 72v8q0 17 -17 43q-18 22 -18 43v8 l-12 11q-2 0 -6 4l-5 4q-35 -4 -49 -11t-39 -30q-48 -59 -59 -135v-2z" />
<glyph unicode="&#xa9;" horiz-adv-x="532" d="M41 750v4q0 49 55 139v-2l8 14q3 3 7.5 8.5t12.5 16.5t15 20q12 16 146 176q93 108 159 162q35 27 52 27q28 0 59 -39q29 -45 29 -78v-2q-2 -2 -2 -4v-14q-24 -27 -41 -60q-30 -49 -41 -65q-40 -62 -64 -105q-10 -20 -35 -57q-13 -19 -24.5 -24t-36.5 -5q-14 0 -29 15 q-14 14 -26 14q-3 0 -11 -8q-3 -3 -8.5 -11.5t-7.5 -11.5q-6 -10 -18 -26q-2 -4 -8 -12t-7 -11l-30 -72l4 -8q21 0 45 12q26 13 51 13l12 4h-2q68 22 92 22q64 0 82 -43q-14 -11 -26 -32q-51 -51 -125 -89q-82 -45 -150 -45q-54 0 -98 62q-39 55 -39 115z" />
<glyph unicode="&#xaa;" horiz-adv-x="622" d="M43 803q0 -17 2 -21l4 -14l39 -39q44 -26 61 -29q11 -2 27 -2q19 0 38.5 4t32.5 8.5t32 15.5t26.5 16t27 19t23.5 17l13 -49q17 -39 59 -84q46 -53 98 -53q37 0 37 39q0 27 -24 88v4q-11 32 -11 63q0 41 13 91q21 81 22 86l15 47l38 96l7 31l45 80v8q-2 4 -15 14l-55 27 q-10 2 -16 8h-72l-23 -19l-34 -71l-9 -8q-56 8 -75 8q-39 0 -82 -29q-69 -51 -135 -156q-69 -111 -86 -133q-23 -33 -23 -63zM274 913q4 20 17 41q29 50 69 82q15 15 23 15h16l4 -11q0 -5 -12 -20l-33 -33q-48 -48 -84 -74z" />
<glyph unicode="&#xab;" horiz-adv-x="905" d="M41 467q0 -35 25 -74q42 -66 124 -135q7 -7 29 -28t31 -31q24 -24 47 -37l49 -29q56 -36 66 -88l6 2q36 36 45 121l6 51q0 10 -4 10l-49 78q-26 43 -70 62q-132 55 -156 73q-24 15 -24 33q0 12 35 33q57 35 84 47q125 59 209 70q28 48 43.5 91t25.5 111q0 21 -8 21 t-27 -8l-116 -54q-43 -31 -104.5 -74.5t-76.5 -54.5q-20 -14 -39.5 -27.5t-37.5 -26t-25 -17.5l-49 -37q-15 -12 -21 -21q-18 -30 -18 -61zM418 451q0 -37 24 -74q41 -65 125 -135q8 -8 21 -20.5t22.5 -22t16.5 -17.5q25 -24 47 -37l49 -28q55 -36 65 -88l7 2q36 36 45 121 l6 51q0 10 -4 10l-49 78q-26 41 -70 61q-129 54 -156 74q-24 15 -24 33q0 12 35 33q57 35 84 47q122 57 208 69q54 90 70 203q0 20 -8 20t-27 -8l-117 -53q-44 -32 -105 -75.5t-75 -53.5q-26 -18 -60.5 -42.5t-41.5 -29.5l-49 -37q-16 -13 -21 -20q-18 -30 -18 -61z" />
<glyph unicode="&#xad;" horiz-adv-x="817" d="M41 457q0 -53 35.5 -89t81.5 -36q82 0 161 18q105 23 293 29q49 0 70 18h16q6 -2 21 -2q23 0 39 23t16 53q0 23 -14 29q-100 14 -291 14h-375q-53 -16 -53 -57z" />
<glyph unicode="&#xae;" horiz-adv-x="512" d="M41 666q15 -55 68 -78q38 0 59 12q35 18 86 123q26 57 74 137q44 74 75 109q58 65 113 65q14 0 23 -6t30 -6q22 0 42 26t22 44l2 8q0 37 -34.5 62.5t-80.5 25.5q-30 0 -82 -33q-4 -2 -14 -9t-15 -10t-12.5 -7t-14 -5.5t-13.5 -1.5l73 101q0 2 -6 14q-3 3 -8.5 11.5 t-7.5 11.5q-22 30 -39 34q-12 4 -31 4q-58 0 -71 -30q-50 -89 -77 -140t-65 -131.5t-60 -152.5t-32 -142v3q-4 -20 -4 -39z" />
<glyph unicode="&#xaf;" horiz-adv-x="593" d="M41 1133q3 -37 41 -50l260 23q4 1 11.5 1.5t19 1t20.5 1.5q72 3 131 20q27 9 27 25q0 30 -12 53t-29 23h-2q-10 0 -14 -2q-6 -2 -11 -2q-23 10 -98 10h-47q-45 0 -100 10t-101 10q-41 0 -68.5 -27t-27.5 -83v-14z" />
<glyph unicode="&#xb0;" horiz-adv-x="542" d="M41 940q0 -8 2 -10v-12q6 -55 55.5 -94.5t114.5 -39.5q32 0 82 28t96 71q111 104 111 200v13q-13 39 -13 71q0 5 5 15q1 1 3.5 6t4.5 8v10l-33 43q-22 24 -36.5 29.5t-45.5 5.5q-90 0 -143 -47q-6 -5 -26 -23t-29.5 -27t-25.5 -24t-28.5 -29t-23.5 -28q-70 -87 -70 -166z M201 928v12q11 42 75 117q25 30 50.5 49.5t38.5 19.5v-14q0 -44 -60 -104q-45 -45 -104 -80z" />
<glyph unicode="&#xb1;" horiz-adv-x="817" d="M41 457q0 -53 35.5 -89t81.5 -36q56 0 166 16l-7 -31q-22 -90 -24 -151l-170 -2q-45 -16 -45 -55q0 -48 30.5 -82.5t69.5 -34.5q65 0 137 16q106 27 252 27q45 -3 60 18h12q6 -2 18 -2q20 0 34 21t14 51q0 24 -13 27q-88 14 -248 14h-4q15 70 15 104l32 105q81 3 127 12 l68 12h16q6 -2 21 -2q23 0 39 23t16 53q0 23 -14 29q-41 6 -119 10q-19 1 -58 2t-59 2q29 116 29 207q-63 63 -115 63q-34 0 -49 -30q-8 -18 -8 -60v-43l-27 -137h-260q-53 -16 -53 -57z" />
<glyph unicode="&#xb2;" horiz-adv-x="561" d="M41 956q31 -77 80 -77q18 0 37.5 13t19.5 26v18q51 97 182 172q30 10 33 10v-10l-22 -55l-54 -86l-94 -107q-29 -33 -53 -51q-11 -8 -27.5 -23.5t-19.5 -17.5q-51 -47 -51 -76q0 -22 10 -39q17 -32 47 -49q16 -12 18 -14q22 -12 76 -12q15 0 53 10q69 19 123 51 q25 16 25 27l10 47q0 12 -5.5 15t-18.5 3q-38 0 -78 -12q-76 -23 -78 -23h-10q40 47 75 82q26 26 76 84q82 95 115 191l10 43q0 76 -49 104q-46 27 -115 27q-7 0 -11.5 -0.5t-9 -1.5t-7 -2t-9.5 -4t-12 -5q-186 -79 -266 -247v-11z" />
<glyph unicode="&#xb3;" horiz-adv-x="454" d="M41 639q22 -33 43.5 -43t54.5 -10q50 0 99 37q80 63 145 178q23 48 23 57q0 29 -11 55q-18 34 -61 62q-15 10 -33 35q43 43 74 84q39 56 39 90q0 54 -45 86q-42 28 -86 28l-21 -4q-18 -4 -35 -12q-47 -23 -47 -57q0 -14 23 -45q25 -37 35 -37h26l-55 -64q-22 -16 -59 -35 q-44 -21 -44 -45q0 -48 28.5 -66t64.5 -18q6 0 12 3h12q50 0 68 -23v-10l-8 -21q-1 -1 -3 -4t-6 -8l-8 -10q-19 -27 -35 -45q-65 -74 -88 -97l-55 -30l-29 -11q-4 -1 -10 -8t-8 -12z" />
<glyph unicode="&#xb4;" horiz-adv-x="483" d="M41 1194q0 -27 16.5 -45.5t40.5 -18.5q10 0 23 13l24 18q7 6 35.5 31.5t46.5 40.5q37 28 142 96q53 32 73 84q0 23 -2 32t-11 19.5t-30 22.5l-26 4l-277 -211q-38 -38 -51 -61l-2 -7q-2 -4 -2 -18z" />
<glyph unicode="&#xb7;" horiz-adv-x="278" d="M41 385q0 -17 26.5 -35t51.5 -18q37 0 80 30l2 7q37 43 37 71q0 19 -25 52q-25 29 -25 51l-14 10q-2 0 -6 4l-6 4q-32 -5 -45.5 -11.5t-36.5 -29.5q-39 -54 -39 -135z" />
<glyph unicode="&#xb8;" horiz-adv-x="516" d="M41 -391q0 -40 33 -55q24 -15 49 -15q72 0 172 66q92 63 162 133l16 45q0 6 2 10v6q-10 62 -43.5 96t-87.5 54l-22 6q-23 5 -33 12q0 12 6 21l8 12l25 35l65 55q0 7 4 23q2 8 2 26t-19.5 45t-31.5 27q-4 0 -16 -6q-19 -11 -31 -21l-37 -24q-12 -8 -35 -27 q-79 -65 -79 -139q0 -66 61 -117q57 -51 135 -67q-3 0 -10 -7q-9 -9 -21 -18l-82 -68l-34 -20h2l-31 -16l-107 -37q-4 -2 -7.5 -4t-5.5 -3.5t-3.5 -4t-2 -4t-1 -4.5t-0.5 -4v-5v-6h-2z" />
<glyph unicode="&#xb9;" horiz-adv-x="428" d="M41 631l10 -27q15 -15 55 -45q24 3 33 19q35 111 90 213q61 112 97 208l61 164v27l-55 43h-13q-3 3 -14 6q-13 6 -19.5 3.5t-17.5 -19.5q-15 -27 -22 -47q-29 -63 -29 -97l-41 -106q-21 -54 -63 -133q-36 -61 -52 -138q-2 -10 -12 -40q-8 -24 -8 -31z" />
<glyph unicode="&#xba;" horiz-adv-x="602" d="M41 850q0 -11 4 -39q14 -37 56.5 -67.5t103.5 -30.5q116 0 229 98q79 68 160 193l16 20q23 51 23 82q0 69 -90 72q-8 31 -21.5 52t-23 28.5t-25.5 17.5l-20 8q-27 10 -62 10q-111 0 -235 -168q-51 -69 -83 -145.5t-32 -130.5zM215 844q0 13 6 43l-4 -2l14 39q0 59 56 135 q46 63 119 119h2q11 0 18 -7l6 -6q0 -1 -12 -10q-7 -3 -10 -10q-21 -33 -56 -82q-5 -8 -37 -53q-25 -41 -28 -78l-33 -92q0 -2 -14 -6.5t-19 -4.5q-8 0 -8 15zM410 1180l4 8v-4l-2 -4h-2z" />
<glyph unicode="&#xbb;" horiz-adv-x="905" d="M41 106q0 -45 14 -59l6 -2q13 30 39 53q48 36 111 64q26 14 55 37q50 40 88 65q75 52 97 70q108 87 108 162q0 30 -20 53q-2 2 -15.5 14.5t-23.5 22.5l-82 71q-113 100 -144 129l-100 54q-19 8 -24 8q-10 0 -13 -14l-6 -33q-4 -50 -4 -64q0 -56 20 -112q38 -6 91 -25 q103 -42 165 -86q29 -23 29 -33q0 -16 -29 -32q-24 -16 -184 -80q-45 -14 -86 -62l-72 -78q-1 0 -3.5 -4t-2.5 -6l-10 -51q-4 -46 -4 -62zM430 102q0 -45 14 -59l7 -2q14 32 38 53q48 36 111 64q26 14 55 37q50 40 88 65q75 52 97 70q108 87 108 162q0 30 -20 53 q-2 2 -15.5 14.5t-23.5 22.5l-82 71q-93 82 -143 129l-101 54q-19 8 -24 8q-10 0 -13 -15l-6 -32q-4 -50 -4 -64q0 -53 21 -112q36 -5 90 -25q105 -43 166 -86q28 -22 28 -33q0 -17 -28 -33q-18 -11 -47 -24t-79 -32t-59 -23q-45 -14 -86 -62l-71 -78q-1 0 -4 -4t-3 -6 l-10 -51q-4 -46 -4 -62z" />
<glyph unicode="&#xbc;" horiz-adv-x="1095" d="M41 829q0 -36 27.5 -67t64.5 -37q-27 -86 -27 -162q0 -57 27 -100q30 -49 92 -49q17 0 36.5 9t19.5 26q-5 25 -5 65q0 49 6.5 81.5t24.5 84.5l80 172l92 174q8 14 18 30.5t11 18.5v2q0 11 2 13v6q0 17 -10 34q-22 32 -54 52l-20 12h-6q-2 0 -2 2q-18 0 -31 -6.5 t-18.5 -14t-14.5 -22.5l-6 -12v2q-13 -22 -22 -33q-14 -17 -25 -35h2l-6 -8q-87 -110 -172 -158l-27 -12q-14 -7 -22 -11.5t-17.5 -12t-13.5 -18.5t-4 -26zM119 41q0 -64 31 -64q24 0 71 41q90 87 215 265q97 140 234 356q68 105 161 272q25 48 25 50q-3 0 -8 -5l35 70 q0 1 2.5 8t5.5 16t4 11l66 113q2 3 9.5 12.5t8.5 12t4.5 10t4.5 14t1 16.5q0 20 -22 51q-31 39 -66 39h-16q-34 -15 -54 -35q-32 -32 -49 -84l-18 -47l-16 -35q-36 -90 -80 -159q-54 -89 -78 -138v3l-82 -134q-7 -11 -30 -47t-36 -55h2q-36 -45 -61 -96q-28 -55 -61 -99 l-43 -57q-9 -14 -78 -92q-60 -68 -68 -102q-14 -60 -14 -111zM655 387q0 -44 32.5 -75.5t72.5 -47.5l16 -8v-4q0 -2 2 -2v-4q0 -32 -16 -72q-18 -45 -25 -72q-3 -11 -6 -28q-1 -6 -4 -21t-4 -24q-4 -15 -8 -45q-4 -26 -6 -33v-25q9 -62 32 -82q19 -19 60 -22h18q25 0 39 33 q28 63 35 145q2 23 2 37q11 45 47 147q29 83 57 111l27 24q29 51 29 54q0 52 -30 90.5t-79 38.5h-18q-5 -2 -9.5 -4.5t-8.5 -6.5t-7 -6.5t-6.5 -8.5t-5 -8t-5.5 -9t-5 -8q-25 -42 -41 -50v19q9 31 28 59l37 53q43 65 43 107q0 36 -32 68t-68 32q-25 0 -45 -20 q-38 -41 -66 -109q-5 -9 -12 -23.5t-10 -19.5l-23 -37q-15 -27 -21 -38.5t-11 -30t-5 -41.5v-33z" />
<glyph unicode="&#xbd;" horiz-adv-x="843" d="M43 -72v-43q0 -17 37 -39q40 -24 72 -24q51 0 61 49q23 103 49 174q23 70 68 150q24 53 76 143q61 103 90 131q11 -9 26 -35q17 -30 43 -41l-137 -176l-53 -37q-41 -38 -41 -78q0 -20 31 -65q27 -39 53 -39h43q60 0 153 22q89 22 109 48q15 11 33 43q-3 10 -6.5 18 t-7 13.5t-11 10t-11 7t-16 5t-17 3t-21.5 3t-23 3.5l-45 6q14 38 53 74q52 52 60 61l6 9q76 101 76 153q0 48 -45 86q-43 37 -95 37h-12q-46 -10 -57 -16q-18 -11 -21 -11q-2 0 -2 2q0 8 25 50q8 14 53 84q86 128 100 157l72 125q79 139 190 309v29q-35 72 -100 72h-10 q-11 0 -16 -2.5t-15 -14.5l-24 -38q-38 -55 -82 -127q-21 -35 -27 -43h2q-3 -3 -10 -17q-7 -9 -17 -26q-11 -18 -16 -31l-12 -21l-12 -26v2l-152 -244q-58 -96 -92 -147q-11 -16 -92 -150l-31 -63q-50 -70 -74.5 -106.5t-63.5 -102.5t-61 -119l-8 -23q-45 -108 -45 -174z M43 987q0 -35 20 -64.5t58 -66.5l4 -4q12 -9 49 -14q-12 -50 -12 -97q0 -42 34.5 -72t77.5 -30q19 0 35 23q26 47 33 94l2 18q35 98 73 163.5t97 137.5q1 2 16 29l13 26v44q-24 81 -92 81q-23 0 -64 -41l-16 -20l-62 -98q-22 -32 -52 -54t-58 -22q-15 0 -39 20 q-29 19 -43 19q-20 0 -45 -25q-29 -29 -29 -47z" />
<glyph unicode="&#xbe;" horiz-adv-x="1259" d="M41 559q0 -29 57 -51q49 -19 84 -19h31q62 0 139 52q51 36 103 88l14 12q43 55 43 80q0 11 -4 23t-12.5 29.5t-10.5 21.5l-14 28v4q-2 0 -2 2v2q19 19 29 27l59 60q27 28 34 57t7 78v10q0 48 -23 92q-28 47 -57 57v-2q-9 7 -47 7q-47 0 -76 -11t-73 -43l-25 -30v2 q-2 -3 -9 -15.5t-9.5 -17t-8.5 -15.5t-8 -18t-4 -17.5t-2 -19.5q0 -54 59 -98q-20 -10 -34 -10q-39 0 -56 -17q-9 -12 -18 -47v-14q0 -8 12 -23v-4q74 -74 109 -90q-52 -52 -115 -84q-74 -41 -139 -41q-11 -6 -22 -20.5t-11 -24.5zM293 -2q0 -40 23 -64t55 -24q46 0 73 49 l-4 -2q16 22 21 53q2 24 14 51l47 158q28 113 76 203l43 82q10 21 24 48.5t17 35.5q14 29 27 49q4 7 14.5 26.5l17.5 32.5q55 98 66 117l31 55v-2q3 5 28 54q22 43 29 55l82 147q18 29 31 47q15 21 18 52v24q0 17 -17 47t-38 35v-2q-12 4 -19 4q-13 0 -24.5 -5t-22 -16.5 t-16.5 -20t-15.5 -24.5t-13.5 -22l-129 -225l-80 -142q-13 -24 -39.5 -70t-40.5 -69q-2 -3 -5 -9.5t-9 -18.5t-12 -23q-21 -40 -45 -96q-78 -164 -103 -228q-10 -13 -14 -30l-12 -31q-18 -53 -76 -279v-12q-2 -4 -2 -10zM723 412q0 -28 14 -47q20 -26 72 -76l8 -8 q15 -15 45 -15q33 -5 37 -8q-32 -57 -59 -133t-27 -115q0 -57 21 -80.5t75 -23.5q11 6 21.5 20t22.5 41t17.5 41.5t18.5 50.5q68 149 215 371q1 2 10 16q5 10 5 15q0 23 -29 65q-27 39 -53 39q-10 0 -19 -1.5t-17.5 -6.5t-13.5 -8t-13 -11.5t-11 -11.5t-12 -14t-11 -14 q-17 -22 -30.5 -34.5t-40.5 -24t-62 -11.5h-16q23 58 67 119q2 3 6.5 9t6.5 8.5t5.5 8t5 9t4 8.5t3 10t1.5 11t1 12q0 4 -8 20q-18 31 -22 35q-35 49 -78 49q-27 0 -88 -90q-61 -91 -70 -152v-8v-37q-2 -12 -2 -28z" />
<glyph unicode="&#xbf;" horiz-adv-x="692" d="M25 240q0 -100 57 -166l22 -27q19 -9 39.5 -14.5t46.5 -7.5t40.5 -2.5t47 0t39.5 0.5q76 0 129 36q97 64 168 191q20 37 58 94l2 12q-13 62 -74 62q-40 0 -96 -29q-57 -31 -60 -55q0 -2 -24 -29q-37 -37 -60 -57q-88 -80 -129 -80q-23 0 -26 31v8q0 67 80 184 q51 72 143 172q115 126 184 285q62 142 62 254v24q-38 21 -86 21q-57 0 -92 -35q-45 -45 -56 -143q2 -2 2 -19v-35q0 -109 -82 -208q-53 -61 -153 -136l-25 -18q-5 -6 -10.5 -14t-12 -17t-9.5 -14q-3 -4 -14.5 -21t-18.5 -26q-12 -33 -33 -62q-4 -6 -14 -21.5t-15 -23.5 q-30 -48 -30 -114zM555 1335q0 -16 29 -45q28 -28 28 -49l31 -18q32 5 45.5 11.5t36.5 29.5q35 45 35 108v14q-2 14 -31.5 32t-54.5 18q-38 0 -82 -29l-2 -6q-35 -35 -35 -66z" />
<glyph unicode="&#xc0;" horiz-adv-x="884" d="M43 197q0 -51 33 -87t86 -36q36 0 59 16q98 77 182 168q54 58 150 186l-2 -14q-25 -79 -66 -184q-37 -86 -49 -189q-2 -6 -2 -18v-16q0 -62 19 -98t59 -68h47h23q6 -2 18 -2q40 0 88 45q38 32 72 84l2 10q0 51 -60 51q-39 0 -96 -33l6 78l17 43q8 25 26.5 81.5t22.5 68.5 q13 42 20 55l105 246q0 6 18 53q3 7 18 44t23 60q66 161 78 183q10 19 43 61q31 39 33 47q44 99 57 142q27 82 35 147v10q0 55 -43.5 95t-101.5 40q-39 0 -76 -16q-57 -29 -139 -104q-10 -10 -22 -21t-26.5 -24t-23.5 -21l-17 -31q-6 -12 -16 -22q-17 -17 -20 -25 q-270 -331 -535 -850q-37 -83 -45 -147v-8zM295 385l2 14q0 2 10 15q3 4 6 9.5t4 6.5l54 107q86 173 239 387q51 74 86 121t91 110.5t110 108.5q-8 -33 -20 -45l-170 -279l-54 -109l-55 -63l-266 -352q-29 -29 -37 -31zM764 1806q0 -14 2 -18l2 -6q14 -25 51 -62l277 -211 l26 4q30 18 36.5 30t6.5 44q-8 22 -23 40t-24 25t-26 19q-107 70 -142 98q-47 35 -82 70l-24 19q-12 12 -23 12q-24 0 -40.5 -18.5t-16.5 -45.5z" />
<glyph unicode="&#xc1;" horiz-adv-x="884" d="M43 197q0 -51 33 -87t86 -36q36 0 59 16q98 77 182 168q54 58 150 186l-2 -14q-25 -79 -66 -184q-37 -86 -49 -189q-2 -6 -2 -18v-16q0 -62 19 -98t59 -68h47h23q6 -2 18 -2q40 0 88 45q38 32 72 84l2 10q0 51 -60 51q-39 0 -96 -33l6 78l17 43q8 25 26.5 81.5t22.5 68.5 q13 42 20 55l105 246q0 6 18 53q3 7 18 44t23 60q66 161 78 183q10 19 43 61q31 39 33 47q44 99 57 142q27 82 35 147v10q0 55 -43.5 95t-101.5 40q-39 0 -76 -16q-57 -29 -139 -104q-10 -10 -22 -21t-26.5 -24t-23.5 -21l-17 -31q-6 -12 -16 -22q-17 -17 -20 -25 q-270 -331 -535 -850q-37 -83 -45 -147v-8zM295 385l2 14q0 2 10 15q3 4 6 9.5t4 6.5l54 107q86 173 239 387q51 74 86 121t91 110.5t110 108.5q-8 -33 -20 -45l-170 -279l-54 -109l-55 -63l-266 -352q-29 -29 -37 -31zM743 1559q0 -26 16.5 -45t41.5 -19q10 0 22 12l25 19 q75 66 82 71q56 41 141 97q55 33 74 84q0 32 -6 43.5t-37 29.5l-27 4l-276 -210q-37 -37 -51 -62l-3 -6q-2 -4 -2 -18z" />
<glyph unicode="&#xc2;" horiz-adv-x="884" d="M43 197q0 -51 33 -87t86 -36q36 0 59 16q98 77 182 168q54 58 150 186l-2 -14q-25 -79 -66 -184q-37 -86 -49 -189q-2 -6 -2 -18v-16q0 -62 19 -98t59 -68h47h23q6 -2 18 -2q40 0 88 45q38 32 72 84l2 10q0 51 -60 51q-39 0 -96 -33l6 78l17 43q8 25 26.5 81.5t22.5 68.5 q13 42 20 55l105 246q0 6 18 53q3 7 18 44t23 60q66 161 78 183q10 19 43 61q31 39 33 47q44 99 57 142q27 82 35 147v10q0 55 -43.5 95t-101.5 40q-39 0 -76 -16q-57 -29 -139 -104q-10 -10 -22 -21t-26.5 -24t-23.5 -21l-17 -31q-6 -12 -16 -22q-17 -17 -20 -25 q-270 -331 -535 -850q-37 -83 -45 -147v-8zM295 385l2 14q0 2 10 15q3 4 6 9.5t4 6.5l54 107q86 173 239 387q51 74 86 121t91 110.5t110 108.5q-8 -33 -20 -45l-170 -279l-54 -109l-55 -63l-266 -352q-29 -29 -37 -31zM711 1522q15 -6 32 -6q56 0 127 51q54 39 115 100 q52 55 86 82q33 23 45 23q19 0 19 -37q0 -5 -5 -62q-4 -50 -4 -71q0 -63 22.5 -81t86.5 -18q14 0 21 0.5t17.5 3t16.5 9.5t10 18l5 84q16 86 16 131q0 15 -4 47l-2 8q-9 14 -47 39q-41 23 -131 23q-37 0 -64 -6q-51 -12 -78 -35q-4 -3 -13 -9t-13 -8l-39 -24 q-66 -63 -96 -88q-39 -31 -70 -62q-28 -30 -40.5 -54.5t-12.5 -57.5z" />
<glyph unicode="&#xc3;" horiz-adv-x="884" d="M43 197q0 -51 33 -87t86 -36q36 0 59 16q98 77 182 168q54 58 150 186l-2 -14q-25 -79 -66 -184q-37 -86 -49 -189q-2 -6 -2 -18v-16q0 -62 19 -98t59 -68h47h23q6 -2 18 -2q40 0 88 45q38 32 72 84l2 10q0 51 -60 51q-39 0 -96 -33l6 78l17 43q8 25 26.5 81.5t22.5 68.5 q13 42 20 55l105 246q0 6 18 53q3 7 18 44t23 60q66 161 78 183q10 19 43 61q31 39 33 47q44 99 57 142q27 82 35 147v10q0 55 -43.5 95t-101.5 40q-39 0 -76 -16q-57 -29 -139 -104q-10 -10 -22 -21t-26.5 -24t-23.5 -21l-17 -31q-6 -12 -16 -22q-17 -17 -20 -25 q-270 -331 -535 -850q-37 -83 -45 -147v-8zM295 385l2 14q0 2 10 15q3 4 6 9.5t4 6.5l54 107q86 173 239 387q51 74 86 121t91 110.5t110 108.5q-8 -33 -20 -45l-170 -279l-54 -109l-55 -63l-266 -352q-29 -29 -37 -31zM715 1556q0 -41 37 -53l10 -2q2 -1 5 -2l4.5 -1.5 t2.5 -0.5q4 0 14 10q10 0 31 27q28 36 53 61q85 93 175 121l-7 -53q-3 -27 -4 -27q5 -67 39 -112t92 -45q48 0 119 41v-2q31 18 35 22q35 22 63 47q11 11 11 17q0 15 -13.5 34t-31.5 25l-25 4q-23 0 -39 -8q-19 -7 -82 -35q-23 -10 -43 -10q-2 2 -2 10q0 20 8 39v16 q0 144 -98 144q-42 0 -103 -26.5t-118 -67.5q-58 -42 -95.5 -89t-37.5 -84z" />
<glyph unicode="&#xc4;" horiz-adv-x="884" d="M43 197q0 -51 33 -87t86 -36q36 0 59 16q98 77 182 168q54 58 150 186l-2 -14q-25 -79 -66 -184q-37 -86 -49 -189q-2 -6 -2 -18v-16q0 -62 19 -98t59 -68h47h23q6 -2 18 -2q40 0 88 45q38 32 72 84l2 10q0 51 -60 51q-39 0 -96 -33l6 78l17 43q8 25 26.5 81.5t22.5 68.5 q13 42 20 55l105 246q0 6 18 53q3 7 18 44t23 60q66 161 78 183q10 19 43 61q31 39 33 47q44 99 57 142q27 82 35 147v10q0 55 -43.5 95t-101.5 40q-39 0 -76 -16q-57 -29 -139 -104q-10 -10 -22 -21t-26.5 -24t-23.5 -21l-17 -31q-6 -12 -16 -22q-17 -17 -20 -25 q-270 -331 -535 -850q-37 -83 -45 -147v-8zM295 385l2 14q0 2 10 15q3 4 6 9.5t4 6.5l54 107q86 173 239 387q51 74 86 121t91 110.5t110 108.5q-8 -33 -20 -45l-170 -279l-54 -109l-55 -63l-266 -352q-29 -29 -37 -31zM799 1587q0 -17 22.5 -34t46.5 -17q35 0 86 31l2 6 q45 45 48 72v8q0 18 -17 43q-18 22 -18 43v8l-13 10q-2 0 -6 4l-4 4q-35 -4 -49 -11t-39 -30q-48 -59 -59 -135v-2zM1110 1587q0 -17 22.5 -34t47.5 -17q35 0 86 31l2 6q44 44 47 72v8q0 18 -17 43q-18 22 -18 43v8l-12 10q-2 0 -6 4l-5 4q-35 -4 -49 -11t-39 -30 q-48 -59 -59 -135v-2z" />
<glyph unicode="&#xc5;" horiz-adv-x="884" d="M43 197q0 -51 33 -87t86 -36q36 0 59 16q98 77 182 168q54 58 150 186l-2 -14q-9 -31 -37 -100q-26 -66 -37 -101q-43 -117 -43 -206q0 -62 19 -98t59 -68h47h23q6 -2 18 -2q40 0 88 45q38 32 72 84l2 10q0 51 -60 51q-39 0 -96 -33l6 78l17 43q8 25 26.5 81.5t22.5 68.5 q13 42 20 55l105 246q0 6 18 53q3 7 18 44t23 60q66 161 78 183q10 19 43 61q31 39 33 47q44 99 57 142q27 82 35 147v10q0 51 -41 92h8q32 0 82 28t96 71q111 104 111 200v13q-12 36 -12 71q0 7 4 15q1 1 3.5 6t4.5 8v10l-33 43q-22 24 -36.5 29.5t-45.5 5.5q-35 0 -63 -6 t-50.5 -20.5t-35 -24t-33.5 -30.5l-27 -27q-42 -38 -67 -70q-70 -84 -70 -164v-2q0 -8 2 -10v-13q6 -51 51 -90q-38 -3 -73 -18q-67 -34 -138 -105q-39 -39 -69 -63l-17 -31q-6 -12 -16 -22q-17 -17 -20 -25q-270 -331 -535 -850q-37 -83 -45 -147v-8zM295 385l2 14 q0 2 10 15q3 4 6 9.5t4 6.5l54 107q86 173 239 387q51 74 86 121t91 110.5t110 108.5q-8 -33 -20 -45l-170 -279l-54 -109l-55 -63l-266 -352q-29 -29 -37 -31zM1063 1567v12q10 40 76 117q25 30 50 49.5t38 19.5v-14q0 -44 -60 -104q-45 -45 -104 -80z" />
<glyph unicode="&#xc6;" horiz-adv-x="1359" d="M41 197q0 -51 33 -87t86 -36q36 0 59 16q98 77 182 168q54 58 150 186l-2 -14q-12 -102 -12 -170q0 -164 67 -221q46 -39 162 -39q90 0 192 31q152 43 224 125q0 2 2 4q0 2 2 2v2q-2 2 -2 4v4l-49 45h-9q-71 0 -172 -22q-119 -25 -131 -25q-49 0 -71 74q-15 51 -15 116 q0 105 54.5 173.5t160.5 113.5q19 8 42 16.5t42.5 15t49 14.5t48 13t54.5 13t53 11.5t59 12t57.5 11.5t63.5 12t62 12h18q14 14 25.5 43t11.5 49v2l-8 9q-3 3 -8.5 9t-8.5 9l-20 21q-3 3 -8.5 7.5t-7.5 6.5l-50 31q-6 0 -14 2t-18 2q-41 0 -78 -27q-39 -28 -76 -39l-188 -61 q-14 -6 -74 -6q-25 0 -49 4q-22 3 -25 14l33 70q4 10 11 20.5t20 25.5t18 21l78 68q69 52 147 92q100 51 156 51h8q2 -2 6 -2h9l96 -94q2 -2 4 -2h10q40 0 72 32.5t37 71.5q0 72 -66 135q-66 60 -147 60q-51 0 -109.5 -20.5t-90 -37.5t-97.5 -57l6 43q0 55 -43.5 95 t-101.5 40q-39 0 -76 -16q-60 -30 -140 -104q-9 -8 -71 -66l-17 -31q-6 -12 -16 -22q-17 -17 -20 -25q-270 -331 -535 -850q-37 -83 -45 -147v-8zM293 385l2 14q0 2 10 15q3 4 6 9.5t4 6.5l54 107q86 173 239 387q51 74 86 121t91 110.5t110 108.5q-2 -7 -9.5 -24t-11.5 -21 l-169 -279l-54 -109l-55 -63l-266 -352q-29 -29 -37 -31z" />
<glyph unicode="&#xc7;" horiz-adv-x="1081" d="M41 313q0 -95 65 -182q67 -98 158 -98q-8 -19 -8 -47q0 -66 61 -117q59 -52 136 -68q-5 0 -11 -6q-12 -12 -20 -18l-82 -68l-35 -20h2l-31 -17l-106 -37q-5 -2 -8.5 -4t-5.5 -4.5t-3.5 -4t-2 -5t-0.5 -4.5v-6v-6h-3q0 -41 33 -56q22 -14 49 -14q72 0 172 66 q92 63 162 133l17 45q0 6 2 10v6q-10 62 -43.5 96t-87.5 54l-23 6q-23 5 -33 12q0 12 6 21l9 12l24 35l43 36q36 14 92 50l183 125l34 24q34 24 48 33l43 33q5 4 10.5 8.5t8 6.5t3.5 3q48 37 76 78q25 37 76 76q-28 63 -70 63l-49 -49l-98 -45l-181 -109l-32 -14 q-20 -12 -72 -49q-28 -19 -70 -45q-85 -47 -162 -47q-54 0 -69 18q-10 12 -10 70v12q0 121 73 264q33 69 144 240q77 124 153 214t176 159q63 45 113 45q0 -4 2 -6t2 -4l-2 -5q-55 -131 -131 -247l-33 -45q-14 -20 -80 -82q-55 -52 -86 -74h-2l-4 2q-9 0 -22 -10 q-34 -30 -47 -51q-9 -15 -9 -17q0 -36 43 -76q40 -37 82 -37q53 0 150 97q91 94 168 209q94 140 123 206q16 35 16 103v100l-119 109q-8 0 -14 2h-25h-22h-19q-65 0 -84 -19l-65 -14l-25 -18q-26 -18 -47 -37l-47 -41q-8 -8 -18.5 -17.5t-12.5 -11.5q-154 -165 -262 -321 q-80 -118 -217 -375q-49 -90 -49 -234z" />
<glyph unicode="&#xc8;" horiz-adv-x="819" d="M43 238q0 -100 72.5 -163t193.5 -63q1 0 14 2.5t29.5 6t24.5 6.5l80 24q20 5 71 27q69 31 123 90q0 2 2 4q0 2 2 2v2q-2 2 -2 4v4l-49 45h-8q-71 0 -172 -22q-119 -25 -131 -25q-31 0 -43 11.5t-12 46.5q0 2 2 4v2l55 94q6 6 12 14q37 49 43 56q4 5 10.5 12t8.5 10 q210 257 583 359h19q14 14 25.5 43t11.5 49v2l-9 8q-3 3 -8 9t-8 9l-20 21q-3 3 -9 7.5t-8 6.5l-49 31q-6 0 -14 2t-19 2q-40 0 -78 -27q-40 -29 -75 -39l-189 -61q-14 -6 -78 -6q-25 0 -37 1t-23 8t-11 22q0 12 2 20q2 6 2 16l69 80l89 76q69 52 147 92q100 51 156 51h8 q2 -2 6 -2h8l96 -94q2 -2 5 -2h10q40 0 71.5 33t36.5 72q0 73 -65 135q-65 59 -148 59q-28 0 -59 -6.5t-51.5 -12.5t-57 -24t-48 -24.5t-54 -31.5t-47.5 -28q-4 0 -18.5 -6t-16.5 -8l-53 -47q-54 -41 -96 -68q-48 -29 -86 -67q-86 -83 -86 -199q0 -67 26 -102l113 -109 l-127 -139q-66 -78 -103 -133q-56 -84 -59 -158v-14zM377 1753q0 -14 2 -18l2 -6q14 -25 51 -62l277 -211l26 4q30 18 36.5 30t6.5 44q-8 22 -23 40t-24 25t-26 19q-107 70 -142 98q-47 34 -82 70l-24 18q-13 13 -23 13q-24 0 -40.5 -18.5t-16.5 -45.5z" />
<glyph unicode="&#xc9;" horiz-adv-x="819" d="M43 238q0 -100 72.5 -163t193.5 -63q1 0 14 2.5t29.5 6t24.5 6.5l80 24q20 5 71 27q69 31 123 90q0 2 2 4q0 2 2 2v2q-2 2 -2 4v4l-49 45h-8q-71 0 -172 -22q-119 -25 -131 -25q-31 0 -43 11.5t-12 46.5q0 2 2 4v2l55 94q6 6 12 14q37 49 43 56q4 5 10.5 12t8.5 10 q210 257 583 359h19q14 14 25.5 43t11.5 49v2l-9 8q-3 3 -8 9t-8 9l-20 21q-3 3 -9 7.5t-8 6.5l-49 31q-6 0 -14 2t-19 2q-40 0 -78 -27q-40 -29 -75 -39l-189 -61q-14 -6 -78 -6q-25 0 -37 1t-23 8t-11 22q0 12 2 20q2 6 2 16l69 80l89 76q69 52 147 92q100 51 156 51h8 q2 -2 6 -2h8l96 -94q2 -2 5 -2h10q40 0 71.5 33t36.5 72q0 73 -65 135q-65 59 -148 59q-28 0 -59 -6.5t-51.5 -12.5t-57 -24t-48 -24.5t-54 -31.5t-47.5 -28q-4 0 -18.5 -6t-16.5 -8l-53 -47q-54 -41 -96 -68q-48 -29 -86 -67q-86 -83 -86 -199q0 -67 26 -102l113 -109 l-127 -139q-66 -78 -103 -133q-56 -84 -59 -158v-14zM389 1423q0 -27 16 -45t41 -18q11 0 23 12l25 19q7 6 35 31t46 40q48 36 142 97q55 34 74 83q0 23 -2 32t-11 19.5t-30 22.5l-27 4l-277 -211q-38 -38 -51 -61l-2 -6q-2 -4 -2 -19z" />
<glyph unicode="&#xca;" horiz-adv-x="819" d="M43 238q0 -100 72.5 -163t193.5 -63q1 0 14 2.5t29.5 6t24.5 6.5l80 24q20 5 71 27q69 31 123 90q0 2 2 4q0 2 2 2v2q-2 2 -2 4v4l-49 45h-8q-71 0 -172 -22q-119 -25 -131 -25q-31 0 -43 11.5t-12 46.5q0 2 2 4v2l55 94q6 6 12 14q37 49 43 56q4 5 10.5 12t8.5 10 q210 257 583 359h19q14 14 25.5 43t11.5 49v2l-9 8q-3 3 -8 9t-8 9l-20 21q-3 3 -9 7.5t-8 6.5l-49 31q-6 0 -14 2t-19 2q-40 0 -78 -27q-40 -29 -75 -39l-189 -61q-14 -6 -78 -6q-25 0 -37 1t-23 8t-11 22q0 12 2 20q2 6 2 16l69 80l89 76q69 52 147 92q100 51 156 51h8 q2 -2 6 -2h8l96 -94q2 -2 5 -2h10q40 0 71.5 33t36.5 72q0 73 -65 135q-65 59 -148 59q-28 0 -59 -6.5t-51.5 -12.5t-57 -24t-48 -24.5t-54 -31.5t-47.5 -28q-4 0 -18.5 -6t-16.5 -8l-53 -47q-54 -41 -96 -68q-48 -29 -86 -67q-86 -83 -86 -199q0 -67 26 -102l113 -109 l-127 -139q-66 -78 -103 -133q-56 -84 -59 -158v-14zM543 1473q17 -7 32 -7q55 0 127 52q54 39 115 100q52 55 86 82q31 22 45 22q19 0 19 -36q0 -16 -4 -62q-5 -63 -5 -72q0 -63 22.5 -80.5t86.5 -17.5q18 0 28 1t21.5 8.5t16.5 21.5l4 84q16 86 16 131q0 15 -4 47l-2 8 q-9 14 -47 39q-41 23 -131 23q-33 0 -64 -7q-53 -12 -78 -34q-4 -3 -13 -9t-13 -8l-39 -24q-66 -63 -96 -88q-39 -31 -70 -62q-28 -30 -40.5 -54.5t-12.5 -57.5z" />
<glyph unicode="&#xcb;" horiz-adv-x="819" d="M43 238q0 -100 72.5 -163t193.5 -63q1 0 14 2.5t29.5 6t24.5 6.5l80 24q20 5 71 27q69 31 123 90q0 2 2 4q0 2 2 2v2q-2 2 -2 4v4l-49 45h-8q-71 0 -172 -22q-119 -25 -131 -25q-31 0 -43 11.5t-12 46.5q0 2 2 4v2l55 94q6 6 12 14q37 49 43 56q4 5 10.5 12t8.5 10 q210 257 583 359h19q14 14 25.5 43t11.5 49v2l-9 8q-3 3 -8 9t-8 9l-20 21q-3 3 -9 7.5t-8 6.5l-49 31q-6 0 -14 2t-19 2q-40 0 -78 -27q-40 -29 -75 -39l-189 -61q-14 -6 -78 -6q-25 0 -37 1t-23 8t-11 22q0 12 2 20q2 6 2 16l69 80l89 76q69 52 147 92q100 51 156 51h8 q2 -2 6 -2h8l96 -94q2 -2 5 -2h10q40 0 71.5 33t36.5 72q0 73 -65 135q-65 59 -148 59q-28 0 -59 -6.5t-51.5 -12.5t-57 -24t-48 -24.5t-54 -31.5t-47.5 -28q-4 0 -18.5 -6t-16.5 -8l-53 -47q-54 -41 -96 -68q-48 -29 -86 -67q-86 -83 -86 -199q0 -67 26 -102l113 -109 l-127 -139q-66 -78 -103 -133q-56 -84 -59 -158v-14zM516 1534q0 -17 22.5 -34t47.5 -17q36 0 86 30l2 7q44 44 47 71v8q0 19 -16 43q-19 23 -19 44v8l-12 10q-2 0 -6 4l-4 4q-35 -5 -49.5 -11.5t-39.5 -29.5q-48 -59 -59 -135v-2zM827 1534q0 -17 22.5 -34t47.5 -17 q36 0 86 30l2 7q44 44 47 71v8q0 19 -16 43q-19 23 -19 44v8l-12 10q-2 0 -6 4l-4 4q-35 -4 -49 -11t-39 -30q-49 -60 -60 -135v-2z" />
<glyph unicode="&#xcc;" horiz-adv-x="503" d="M43 121q0 -59 39 -86q34 -27 72 -27q29 0 36 19q47 233 115 446l31 88q15 35 29 62l43 94q12 29 49 110l51 111q28 61 45 94q12 27 27 62l49 88q0 6 2 14q1 3 2 12t2 13l6 28q2 10 2 23v16q0 5 -14 19l-97 71q-6 0 -12 2h-14q-28 0 -47 -22q-35 -40 -56 -119 q-10 -38 -18 -57q0 -7 -16 -43q-17 -38 -17 -45q-58 -139 -69 -162q-32 -68 -72 -160q-85 -197 -117 -336q-5 -23 -16.5 -70t-16.5 -71q-18 -71 -18 -145v-29zM289 1729q0 -15 2 -19l2 -6q14 -25 51 -62l277 -210l26 4q31 18 37 30t6 43q-8 22 -23.5 40t-24 24.5t-26.5 19.5 q-96 62 -141 99q-50 37 -82 69l-24 19q-12 12 -23 12q-25 0 -41 -18t-16 -45z" />
<glyph unicode="&#xcd;" horiz-adv-x="503" d="M43 121q0 -59 39 -86q34 -27 72 -27q29 0 36 19q47 233 115 446l31 88q15 35 29 62l43 94q12 29 49 110l51 111q28 61 45 94q12 27 27 62l49 88q0 6 2 14q1 3 2 12t2 13l6 28q2 10 2 23v16q0 5 -14 19l-97 71q-6 0 -12 2h-14q-28 0 -47 -22q-35 -40 -56 -119 q-10 -38 -18 -57q0 -7 -16 -43q-17 -38 -17 -45q-58 -139 -69 -162q-32 -68 -72 -160q-85 -197 -117 -336q-5 -23 -16.5 -70t-16.5 -71q-18 -71 -18 -145v-29zM358 1493q0 -26 16.5 -44.5t41.5 -18.5q10 0 22 12l25 18q7 6 35.5 31.5t46.5 40.5q44 33 141 96q55 33 74 84 q0 23 -2 32t-11 19.5t-30 22.5l-27 4l-276 -211q-41 -41 -52 -61l-2 -7q-2 -4 -2 -18z" />
<glyph unicode="&#xce;" horiz-adv-x="503" d="M43 121q0 -59 39 -86q34 -27 72 -27q29 0 36 19q47 233 115 446l31 88q15 35 29 62l43 94q12 29 49 110l51 111q28 61 45 94q12 27 27 62l49 88q0 6 2 14q1 3 2 12t2 13l6 28q2 10 2 23v16q0 5 -14 19l-97 71q-6 0 -12 2h-14q-28 0 -47 -22q-35 -40 -56 -119 q-10 -38 -18 -57q0 -7 -16 -43q-17 -38 -17 -45q-58 -139 -69 -162q-32 -68 -72 -160q-85 -197 -117 -336q-5 -23 -16.5 -70t-16.5 -71q-18 -71 -18 -145v-29zM307 1497q15 -6 33 -6q56 0 127 51q54 39 115 100q52 55 86 82q33 23 45 23q18 0 18 -37q0 -15 -4 -61 q-4 -50 -4 -72q0 -63 22 -80.5t86 -17.5q15 0 21 0.5t17.5 3t17.5 9t10 17.5l4 84q17 91 17 131q0 8 -5 48l-2 8q-9 14 -47 39q-39 22 -131 22q-36 0 -63 -6q-51 -12 -78 -35q-25 -15 -27 -16l-39 -25q-66 -63 -96 -88q-43 -35 -70 -61q-28 -30 -40.5 -55t-12.5 -58z" />
<glyph unicode="&#xcf;" horiz-adv-x="503" d="M43 121q0 -59 39 -86q34 -27 72 -27q29 0 36 19q47 233 115 446l31 88q15 35 29 62l43 94q12 29 49 110l51 111q28 61 45 94q12 27 27 62l49 88q0 6 2 14q1 3 2 12t2 13l6 28q2 10 2 23v16q0 5 -14 19l-97 71q-6 0 -12 2h-14q-28 0 -47 -22q-35 -40 -56 -119 q-10 -38 -18 -57q0 -7 -16 -43q-17 -38 -17 -45q-58 -139 -69 -162q-32 -68 -72 -160q-85 -197 -117 -336q-5 -23 -16.5 -70t-16.5 -71q-18 -71 -18 -145v-29zM338 1583q0 -17 22.5 -34t47.5 -17q35 0 86 31l2 6q44 44 47 71v9q0 17 -17 43q-18 22 -18 43v8l-12 10 q-3 0 -7 4l-4 4q-35 -4 -49 -11t-39 -30q-48 -59 -59 -135v-2zM649 1583q0 -17 22.5 -34t47.5 -17q35 0 86 31l2 6q44 44 47 71v9q0 19 -16 43q-19 23 -19 43v8l-12 10q-2 0 -6 4l-4 4q-35 -4 -49 -11t-39 -30q-49 -60 -60 -135v-2z" />
<glyph unicode="&#xd0;" horiz-adv-x="1212" d="M41 45q0 -51 29 -88t80 -37q34 0 47 8q25 10 34 49q1 6 11 41l32 82q23 -39 99 -65q56 -19 123 -19q56 0 172 35q110 35 157 82l234 225q0 4 8 17q6 8 18 28l21 31q4 6 9.5 14t6.5 9q103 159 152 274q65 160 65 301v8q-11 143 -51 213q-8 14 -17.5 26t-24.5 26.5t-24 23 t-32 28t-33 27.5q-27 22 -52.5 27.5t-72.5 5.5q-46 0 -90 -12q-72 -23 -158 -84q-72 -48 -77 -51q-23 -17 -31 -17l-68 33h-8q-36 0 -59 -65l-49 -146l-152 -311h-135q-53 -16 -53 -57q0 -46 28 -80.5t68 -42.5l-123 -273q-84 -182 -84 -266zM324 213q20 85 63 156 q47 83 72 153l35 88q55 11 94 13q86 3 135 12l70 12h16q6 -2 20 -2q23 0 39.5 23t16.5 53q0 23 -15 29q-100 14 -290 14h-17q8 15 37.5 75t44.5 87q24 49 45 84q86 102 164 153q114 74 215 74h39q29 -10 43 -63q6 -33 6 -99q0 -154 -49 -260q-37 -77 -45 -94l-35 -74 q-41 -70 -88 -127q-56 -71 -166 -192l-16 -17q-96 -66 -167.5 -98.5t-160.5 -32.5q-50 0 -106 33z" />
<glyph unicode="&#xd1;" horiz-adv-x="921" d="M43 166q7 -48 47 -85.5t78 -37.5q42 0 65 29q35 42 50 145q2 33 14 68l115 237q42 109 63 174q29 91 76 170q41 41 115 166q5 8 20 32.5t21 34.5t17.5 27t21 27t18.5 18h16v-14q0 -74 -22 -145q-26 -88 -33 -146l2 -20l-14 -33l-19 -68q-9 -44 -43 -151l-61 -195 q-78 -253 -78 -303q0 -16 2 -24v-27q2 -78 26.5 -107.5t104.5 -29.5q28 0 35 18l12 84l27 137q18 72 53 164q27 71 57 160q7 34 56 178l26 76q3 10 5.5 19t4 13t1.5 5l12 59q10 51 18 92q25 118 25 156v119q0 70 -10 119q-29 49 -62 82q-44 41 -90 41q-59 0 -78 -19 l-198 -205l-2 17l45 135q3 6 6.5 19t5.5 23t2 11q0 39 -45 84q-40 37 -88 37q-15 0 -43 -14q-35 -19 -35 -43q0 -5 2 -7v-6q-2 -6 -12 -51l-31 -104q-3 -12 -18 -62.5t-23 -81.5l-96 -329q-63 -199 -78 -275q-16 -84 -66 -242q-20 -61 -20 -124v-27zM365 1671q0 -41 36 -53 l11 -2q2 -1 5 -2l4.5 -1.5t2.5 -0.5q4 0 14 10q10 0 31 27q28 36 53 61q86 94 174 121l-6 -53q-3 -27 -4 -27q5 -68 39 -113t92 -45q48 0 119 41v-2q26 16 35 23q35 22 63 47q10 10 10 16q0 15 -13.5 34.5t-31.5 25.5l-24 4q-23 0 -39 -8q-19 -7 -82 -35q-23 -10 -43 -10 q-2 2 -2 10q0 20 8 39v16q0 143 -98 143q-42 0 -103 -26.5t-118 -67.5q-58 -42 -95.5 -88.5t-37.5 -83.5z" />
<glyph unicode="&#xd2;" horiz-adv-x="901" d="M66 250q0 -15 2 -21q8 -85 44 -138t117 -75q54 -18 70 -18q5 0 18 8q4 3 8.5 5t7 3t3.5 2q143 37 295 183q153 147 291 358l10 25q5 13 24 57q37 95 37 98q1 4 13 64l28 160q1 9 2 18.5t1.5 14t0.5 7.5q-10 111 -16 134q-12 36 -57 96q-18 26 -21 51l-12 59 q-15 77 -58 105q-5 2 -22 12q-12 5 -29 15q-35 19 -43 22h-16q-23 0 -25 -2l-28 -16l-82 -50q-87 -65 -140 -135q-93 -123 -174 -311q-44 -105 -73 -160l-15 -49l-28 -51l-43 -98q-87 -197 -90 -353v-20zM274 262q4 4 8.5 29t4.5 37l53 196q53 126 94 215q61 141 96 213 l58 58l57 57l98 66q6 2 35 18q18 9 33 14l8 2q15 0 29.5 -17.5t21.5 -33.5q-6 -116 -42 -239.5t-93 -221.5q-68 -114 -147 -202q-60 -67 -172 -174q-63 -59 -135 -82q0 58 -7 65zM516 1851q0 -14 2 -18l2 -6q14 -25 51 -62l277 -211l26 5q31 18 37.5 30t6.5 43 q-8 22 -23.5 40t-24 24.5t-26.5 19.5q-101 66 -142 99q-47 35 -81 69l-25 19q-12 12 -23 12q-24 0 -40.5 -18.5t-16.5 -45.5z" />
<glyph unicode="&#xd3;" horiz-adv-x="901" d="M66 250q0 -15 2 -21q8 -85 44 -138t117 -75q54 -18 70 -18q5 0 18 8q4 3 8.5 5t7 3t3.5 2q143 37 295 183q153 147 291 358l10 25q5 13 24 57q37 95 37 98q1 4 13 64l28 160q1 9 2 18.5t1.5 14t0.5 7.5q-10 111 -16 134q-12 36 -57 96q-18 26 -21 51l-12 59 q-15 77 -58 105q-5 2 -22 12q-12 5 -29 15q-35 19 -43 22h-16q-23 0 -25 -2l-28 -16l-82 -50q-87 -65 -140 -135q-93 -123 -174 -311q-44 -105 -73 -160l-15 -49l-28 -51l-43 -98q-87 -197 -90 -353v-20zM274 262q4 4 8.5 29t4.5 37l53 196q53 126 94 215q61 141 96 213 l58 58l57 57l98 66q6 2 35 18q18 9 33 14l8 2q15 0 29.5 -17.5t21.5 -33.5q-6 -116 -42 -239.5t-93 -221.5q-68 -114 -147 -202q-60 -67 -172 -174q-63 -59 -135 -82q0 58 -7 65zM569 1579q0 -26 16.5 -44.5t41.5 -18.5q10 0 22 12l25 18q7 6 35.5 31.5t46.5 40.5 q44 33 141 96q55 33 74 84q0 23 -2 32t-11 19.5t-30 22.5l-27 4l-276 -211q-41 -41 -52 -61l-2 -7q-2 -4 -2 -18z" />
<glyph unicode="&#xd4;" horiz-adv-x="901" d="M66 250q0 -15 2 -21q8 -85 44 -138t117 -75q54 -18 70 -18q5 0 18 8q4 3 8.5 5t7 3t3.5 2q143 37 295 183q153 147 291 358l10 25q5 13 24 57q37 95 37 98q1 4 13 64l28 160q1 9 2 18.5t1.5 14t0.5 7.5q-10 111 -16 134q-12 36 -57 96q-18 26 -21 51l-12 59 q-15 77 -58 105q-5 2 -22 12q-12 5 -29 15q-35 19 -43 22h-16q-23 0 -25 -2l-28 -16l-82 -50q-87 -65 -140 -135q-93 -123 -174 -311q-44 -105 -73 -160l-15 -49l-28 -51l-43 -98q-87 -197 -90 -353v-20zM274 262q4 4 8.5 29t4.5 37l53 196q53 126 94 215q61 141 96 213 l58 58l57 57l98 66q6 2 35 18q18 9 33 14l8 2q15 0 29.5 -17.5t21.5 -33.5q-6 -116 -42 -239.5t-93 -221.5q-68 -114 -147 -202q-60 -67 -172 -174q-63 -59 -135 -82q0 58 -7 65zM518 1538q15 -6 33 -6q56 0 127 51q54 39 115 100q52 55 86 82q33 23 45 23q18 0 18 -37 q0 -15 -4 -61q-4 -50 -4 -72q0 -63 22 -80.5t86 -17.5q15 0 21 0.5t17.5 3t17.5 9t10 17.5l4 84q16 86 16 131q0 15 -4 47l-2 9q-9 14 -47 39q-39 22 -131 22q-36 0 -63 -6q-51 -12 -78 -35q-25 -15 -27 -16l-39 -25q-66 -63 -96 -88q-43 -34 -70 -61q-28 -30 -40.5 -54.5 t-12.5 -58.5z" />
<glyph unicode="&#xd5;" horiz-adv-x="901" d="M66 250q0 -15 2 -21q8 -85 44 -138t117 -75q54 -18 70 -18q5 0 18 8q4 3 8.5 5t7 3t3.5 2q143 37 295 183q153 147 291 358l10 25q5 13 24 57q37 95 37 98q1 4 13 64l28 160q1 9 2 18.5t1.5 14t0.5 7.5q-10 111 -16 134q-12 36 -57 96q-18 26 -21 51l-12 59 q-15 77 -58 105q-5 2 -22 12q-12 5 -29 15q-35 19 -43 22h-16q-23 0 -25 -2l-28 -16l-82 -50q-87 -65 -140 -135q-93 -123 -174 -311q-44 -105 -73 -160l-15 -49l-28 -51l-43 -98q-87 -197 -90 -353v-20zM274 262q4 4 8.5 29t4.5 37l53 196q53 126 94 215q61 141 96 213 l58 58l57 57l98 66q6 2 35 18q18 9 33 14l8 2q15 0 29.5 -17.5t21.5 -33.5q-6 -116 -42 -239.5t-93 -221.5q-68 -114 -147 -202q-60 -67 -172 -174q-63 -59 -135 -82q0 58 -7 65zM528 1585q0 -41 37 -53l10 -2q12 -4 13 -4q4 0 14 10q10 0 31 27q28 36 53 61q86 94 174 121 l-6 -53q-3 -27 -4 -27q5 -68 39 -113t92 -45q48 0 119 41v-2q26 16 35 23q35 22 63 47q10 10 10 16q0 15 -13.5 34.5t-31.5 25.5l-24 4q-23 0 -39 -8q-19 -7 -82 -35q-26 -11 -43 -11q-2 2 -2 11q0 20 8 39v16q0 143 -98 143q-42 0 -103 -26.5t-118 -67.5q-58 -42 -96 -88.5 t-38 -83.5z" />
<glyph unicode="&#xd6;" horiz-adv-x="901" d="M66 250q0 -15 2 -21q8 -85 44 -138t117 -75q54 -18 70 -18q5 0 18 8q4 3 8.5 5t7 3t3.5 2q143 37 295 183q153 147 291 358l10 25q5 13 24 57q37 95 37 98q1 4 13 64l28 160q1 9 2 18.5t1.5 14t0.5 7.5q-10 111 -16 134q-12 36 -57 96q-18 26 -21 51l-12 59 q-15 77 -58 105q-5 2 -22 12q-12 5 -29 15q-35 19 -43 22h-16q-23 0 -25 -2l-28 -16l-82 -50q-87 -65 -140 -135q-93 -123 -174 -311q-44 -105 -73 -160l-15 -49l-28 -51l-43 -98q-87 -197 -90 -353v-20zM274 262q4 4 8.5 29t4.5 37l53 196q53 126 94 215q61 141 96 213 l58 58l57 57l98 66q6 2 35 18q18 9 33 14l8 2q15 0 29.5 -17.5t21.5 -33.5q-6 -116 -42 -239.5t-93 -221.5q-68 -114 -147 -202q-60 -67 -172 -174q-63 -59 -135 -82q0 58 -7 65zM598 1624q0 -17 22.5 -34t47.5 -17q35 0 86 31l2 6q44 44 47 71v9q0 18 -17 43q-18 22 -18 43 v8l-12 10q-2 0 -6 4l-5 4q-35 -4 -49 -11t-39 -30q-48 -59 -59 -135v-2zM909 1624q0 -17 22.5 -34t47.5 -17q35 0 86 31l2 6q44 44 47 71v9q0 19 -16 43q-19 23 -19 43v8l-12 10q-2 0 -6 4l-4 4q-35 -4 -49 -11t-39 -30q-49 -60 -60 -135v-2z" />
<glyph unicode="&#xd7;" horiz-adv-x="802" d="M29 158q3 -37 47 -72q46 -37 76 -37l36 12q146 109 244 224l6 2h6q0 -2 5 -2q119 -112 155 -140q53 -41 70 -41q11 0 14 13v6q19 3 19 27q0 36 -60 137q-51 86 -115 172q47 48 175 168q79 71 174 166q8 31 8 63q0 51 -29.5 87t-79.5 40q-85 -49 -186 -178 q-10 -13 -33 -41t-36 -44t-32 -38.5t-37.5 -41t-37.5 -34.5q-52 116 -80 150q-59 73 -137 92q-49 -31 -49 -78q0 -42 14 -80q22 -72 74 -151q6 -10 20 -33.5t21 -36.5l4 -8l-4 -8q-19 -33 -48 -67.5t-44.5 -49t-53.5 -49.5q-88 -81 -106 -129z" />
<glyph unicode="&#xd8;" horiz-adv-x="901" d="M66 250q0 -15 2 -21q13 -156 129 -202q-2 -6 -2 -19v-20q0 -84 34 -84q5 0 15 16l41 80h8q2 -2 6 -2q5 0 18 8q4 3 8.5 5t7 3t3.5 2q143 37 295 183q153 147 291 358l10 25q5 13 24 57q37 95 37 98q1 4 13 64l28 160q1 9 2 18.5t1.5 14t0.5 7.5q-10 108 -16 132 q-12 37 -55 94l30 49l4 16l-6 39q-1 8 -2 22.5t-1.5 20.5t-1.5 16t-2.5 14.5t-4 11t-5.5 9.5t-7.5 6.5t-10.5 5.5t-14 3l-20 2l-21 -29q-9 17 -57 47q-17 9 -68 35h-16q-23 0 -25 -2l-28 -16l-82 -50q-87 -65 -140 -135q-93 -123 -174 -311q-44 -105 -73 -160l-15 -49 l-28 -51l-43 -98q-87 -197 -90 -353v-20zM274 262q4 4 8.5 29t4.5 37l53 196q53 126 94 215q61 141 96 213l58 58l57 57l98 66q5 0 7 2l6 4l-17 -31q-50 -93 -77 -143q-10 -18 -35.5 -66t-40.5 -74q-48 -91 -183 -333l-127 -236q-2 2 -2 6zM418 281q44 87 182 315 q84 140 264 455q-33 -245 -168 -449q-37 -57 -89 -119t-87.5 -99t-101.5 -103z" />
<glyph unicode="&#xd9;" horiz-adv-x="1126" d="M41 203q0 -114 63 -166q45 -37 109 -37q28 0 53 14q43 22 103 86q48 51 114 131q73 89 142 179q33 45 63 82v-289q0 -57 55 -135q50 -74 80 -84q31 -19 97 -19q24 0 59 35q33 33 33 59q0 5 -8 13q-10 14 -43 47q-12 9 -19 16q-4 -4 -17 -10t-18 -6q-22 0 -28 49 q-7 58 -7 104q0 37 3 74.5t11.5 80.5t14.5 71t21 78.5t21 70t25 77.5t23 71q62 195 154 440q9 27 24 57q5 10 14.5 31t14.5 31q33 75 33 121q0 29 -41 59q-45 33 -80 41h-18q-25 0 -31 -19q-1 -4 -17 -40l-24 -60q-31 -74 -45 -102q-22 -51 -62 -125q-38 -72 -57 -129v-17 q-76 -117 -147 -231q-56 -90 -156 -225l-51 -68q-12 -24 -31 -43q-22 -19 -37 -43q-9 -11 -25.5 -29.5t-30.5 -34t-26 -30.5q-34 -41 -88 -92v26q0 76 51 211q59 159 119 357q11 61 31 123q28 81 82 198q18 40 39 101v8q0 36 -49 82q-50 47 -84 47q-35 0 -54 -19 q-28 -28 -39 -98q-6 -39 -24 -90q-2 -8 -10 -29.5t-11 -34.5l-22 -63q-9 -30 -12 -39q-37 -116 -64 -213q-24 -87 -72 -211q0 -6 -8 -27q-39 -128 -43 -143q-2 -8 -10.5 -38t-11.5 -46q-16 -55 -19 -67q-8 -24 -8 -35q-4 -12 -4 -84zM485 1843q0 -14 2 -18l2 -6 q13 -23 52 -62l276 -211l27 4q30 18 36.5 30t6.5 44q-8 22 -23.5 40t-24 24.5t-26.5 19.5q-102 67 -141 98q-46 35 -82 70l-25 18q-13 13 -22 13q-25 0 -41.5 -19t-16.5 -45z" />
<glyph unicode="&#xda;" horiz-adv-x="1126" d="M41 203q0 -114 63 -166q45 -37 109 -37q28 0 53 14q43 22 103 86q48 51 114 131q73 89 142 179q33 45 63 82v-289q0 -57 55 -135q50 -74 80 -84q31 -19 97 -19q24 0 59 35q33 33 33 59q0 5 -8 13q-10 14 -43 47q-12 9 -19 16q-4 -4 -17 -10t-18 -6q-22 0 -28 49 q-7 58 -7 104q0 37 3 74.5t11.5 80.5t14.5 71t21 78.5t21 70t25 77.5t23 71q62 195 154 440q9 27 24 57q5 10 14.5 31t14.5 31q33 75 33 121q0 29 -41 59q-45 33 -80 41h-18q-25 0 -31 -19q-1 -4 -17 -40l-24 -60q-31 -74 -45 -102q-22 -51 -62 -125q-38 -72 -57 -129v-17 q-76 -117 -147 -231q-56 -90 -156 -225l-51 -68q-12 -24 -31 -43q-22 -19 -37 -43q-9 -11 -25.5 -29.5t-30.5 -34t-26 -30.5q-34 -41 -88 -92v26q0 76 51 211q59 159 119 357q11 61 31 123q28 81 82 198q18 40 39 101v8q0 36 -49 82q-50 47 -84 47q-35 0 -54 -19 q-28 -28 -39 -98q-6 -39 -24 -90q-2 -8 -10 -29.5t-11 -34.5l-22 -63q-9 -30 -12 -39q-37 -116 -64 -213q-24 -87 -72 -211q0 -6 -8 -27q-39 -128 -43 -143q-2 -8 -10.5 -38t-11.5 -46q-16 -55 -19 -67q-8 -24 -8 -35q-4 -12 -4 -84zM575 1587q0 -26 16.5 -44.5t41.5 -18.5 q10 0 22 12l25 18q7 6 35.5 31.5t46.5 40.5q44 33 141 96q55 33 74 84q0 23 -2 32t-11 19.5t-30 22.5l-27 4l-276 -211q-38 -38 -51 -61l-2 -6q-3 -6 -3 -19z" />
<glyph unicode="&#xdb;" horiz-adv-x="1126" d="M41 203q0 -114 63 -166q45 -37 109 -37q28 0 53 14q43 22 103 86q48 51 114 131q73 89 142 179q33 45 63 82v-289q0 -57 55 -135q50 -74 80 -84q31 -19 97 -19q24 0 59 35q33 33 33 59q0 5 -8 13q-10 14 -43 47q-12 9 -19 16q-4 -4 -17 -10t-18 -6q-22 0 -28 49 q-7 58 -7 104q0 37 3 74.5t11.5 80.5t14.5 71t21 78.5t21 70t25 77.5t23 71q62 195 154 440q9 27 24 57q5 10 14.5 31t14.5 31q33 75 33 121q0 29 -41 59q-45 33 -80 41h-18q-25 0 -31 -19q-1 -4 -17 -40l-24 -60q-31 -74 -45 -102q-22 -51 -62 -125q-38 -72 -57 -129v-17 q-76 -117 -147 -231q-56 -90 -156 -225l-51 -68q-12 -24 -31 -43q-22 -19 -37 -43q-9 -11 -25.5 -29.5t-30.5 -34t-26 -30.5q-34 -41 -88 -92v26q0 76 51 211q59 159 119 357q11 61 31 123q28 81 82 198q18 40 39 101v8q0 36 -49 82q-50 47 -84 47q-35 0 -54 -19 q-28 -28 -39 -98q-6 -39 -24 -90q-2 -8 -10 -29.5t-11 -34.5l-22 -63q-9 -30 -12 -39q-37 -116 -64 -213q-24 -87 -72 -211q0 -6 -8 -27q-39 -128 -43 -143q-2 -8 -10.5 -38t-11.5 -46q-16 -55 -19 -67q-8 -24 -8 -35q-4 -12 -4 -84zM545 1657q15 -6 33 -6q56 0 127 51 q50 36 114 100q52 55 86 82q33 23 45 23q19 0 19 -37q0 -16 -4 -62q-4 -50 -4 -71q0 -63 22 -81t86 -18q18 0 28 1t21.5 8.5t16.5 21.5l4 84q16 86 16 131q0 15 -4 47l-2 8q-9 14 -47 39q-41 23 -131 23q-37 0 -64 -6q-51 -12 -78 -35l-12 -8t-14 -8l-39 -25 q-66 -63 -96 -88q-39 -31 -70 -62q-28 -30 -40.5 -54.5t-12.5 -57.5z" />
<glyph unicode="&#xdc;" horiz-adv-x="1126" d="M41 203q0 -114 63 -166q45 -37 109 -37q28 0 53 14q43 22 103 86q48 51 114 131q73 89 142 179q33 45 63 82v-289q0 -57 55 -135q50 -74 80 -84q31 -19 97 -19q24 0 59 35q33 33 33 59q0 5 -8 13q-10 14 -43 47q-12 9 -19 16q-4 -4 -17 -10t-18 -6q-22 0 -28 49 q-7 58 -7 104q0 37 3 74.5t11.5 80.5t14.5 71t21 78.5t21 70t25 77.5t23 71q62 195 154 440q9 27 24 57q5 10 14.5 31t14.5 31q33 75 33 121q0 29 -41 59q-45 33 -80 41h-18q-25 0 -31 -19q-1 -4 -17 -40l-24 -60q-31 -74 -45 -102q-22 -51 -62 -125q-38 -72 -57 -129v-17 q-76 -117 -147 -231q-56 -90 -156 -225l-51 -68q-12 -24 -31 -43q-22 -19 -37 -43q-9 -11 -25.5 -29.5t-30.5 -34t-26 -30.5q-34 -41 -88 -92v26q0 76 51 211q59 159 119 357q11 61 31 123q28 81 82 198q18 40 39 101v8q0 36 -49 82q-50 47 -84 47q-35 0 -54 -19 q-28 -28 -39 -98q-6 -39 -24 -90q-2 -8 -10 -29.5t-11 -34.5l-22 -63q-9 -30 -12 -39q-37 -116 -64 -213q-24 -87 -72 -211q0 -6 -8 -27q-39 -128 -43 -143q-2 -8 -10.5 -38t-11.5 -46q-16 -55 -19 -67q-8 -24 -8 -35q-4 -12 -4 -84zM592 1681q0 -17 22.5 -34t47.5 -17 q35 0 86 31l2 6q44 44 47 72v8q0 17 -17 43q-18 22 -18 43v8l-12 10q-3 0 -7 4l-4 5q-35 -4 -49 -11t-39 -30q-48 -59 -59 -136v-2zM903 1681q0 -17 22.5 -34t47.5 -17q35 0 86 31l2 6q44 44 47 72v8q0 19 -16 43q-19 23 -19 43v8l-12 10q-2 0 -6 4l-4 5q-35 -4 -49 -11 t-39 -30q-49 -60 -60 -136v-2z" />
<glyph unicode="&#xdd;" horiz-adv-x="815" d="M-4 -668q7 -34 19 -49.5t40 -15.5q50 0 78 28q42 44 66 142q9 39 20 55l66 219l51 146l104 249l29 56q21 43 55 104q62 119 150 277q8 14 32 60.5t37 70.5q69 129 101 172l57 80q66 95 66 131q72 128 120 188q6 8 25 27q9 9 29 33q33 47 33 69q0 35 -41 76q-40 37 -82 37 q-30 0 -66 -45q-63 -73 -154 -240q-43 -72 -69 -112l-17 -25l-26 -39q-40 -61 -41 -63q-58 -89 -103 -175q-49 -88 -102 -174q-5 -14 -16 -14h-11q-32 0 -73 41q-27 25 -54 68l-34 79q-1 9 -4.5 24t-4.5 19l-6 39q-4 50 -4 115q0 34 4 80q2 20 13 100q2 14 2 49v17l-33 47 q-19 27 -28.5 37.5t-29 19t-47.5 8.5h-14q-29 -17 -45 -40q-29 -48 -29 -154v-133q0 -90 8 -149.5t33 -114.5q57 -123 236 -265l51 -32q-41 -103 -92 -195q-54 -97 -94 -201q-147 -367 -205 -727zM338 1452q0 -27 16 -45t41 -18q11 0 23 12l24 18q7 6 35.5 31.5t46.5 40.5 q37 28 142 96q53 32 73 84q0 23 -2 32t-11 19.5t-30 22.5l-26 4l-277 -211q-38 -38 -51 -61l-2 -7q-2 -4 -2 -18z" />
<glyph unicode="&#xde;" horiz-adv-x="1110" d="M41 -92q0 -46 32.5 -85.5t80.5 -39.5h6q11 8 31.5 28t21.5 25l51 213q47 0 74 -2q25 -2 78 -2q122 0 188 37l39 20q32 14 55 27q62 27 78 43l82 76q16 14 51 57t68 94q92 139 92 238q0 15 -10.5 48t-26.5 54q-42 70 -92 103q-88 59 -238 73q-55 5 -133 19v33 q13 63 43 155q27 82 27 156v10q-22 31 -48 42t-65 11q-32 0 -49 -10q-32 -26 -35 -76q-4 -38 -8 -57l-51 -213l-35 -88l-10 -20q-1 -3 -2.5 -5.5t-3 -5.5t-2.5 -4q-2 0 -4 2h-9q-2 0 -10 -8l-18 -18q-25 -29 -25 -45q0 -5 8 -37q1 -4 2 -12t2 -11q3 -9 3 -12v-16 q-58 -201 -115 -353q-70 -191 -107 -356q-1 -3 -2 -12t-2 -13q-1 -5 -2 -13.5t-2 -12.5l-6 -25zM328 205q0 55 14 98q12 49 74 189q20 47 35 106q1 2 6 17.5t6 18t5.5 15.5t7 17t8 14t10 15t11.5 12.5t15 13.5h25q25 0 39 2h37h26h2q20 0 45 -2q33 -3 78 -16 q105 -32 105 -109q0 -31 -17 -70q-48 -110 -162 -190q-105 -74 -231 -113l-14 -2q-5 -1 -16 -2t-17 -2q-13 -2 -38.5 -6.5t-33.5 -5.5h-20z" />
<glyph unicode="&#xdf;" horiz-adv-x="1101" d="M41 31q0 -31 14 -62q24 -57 92 -125h15q67 0 67 107v94l33 135l8 21q1 5 11 30q2 12 10 31q4 16 4 19l100 251l51 82q61 140 127 236q52 80 140 168h2v-2q0 -2 2 -2v-4q0 -12 -8 -43q-7 -26 -45 -101q-62 -121 -183 -252q-4 -12 -4 -32q0 -28 12 -43q2 -3 15.5 -22 t23.5 -36q3 -4 6 -6.5t6 -4.5l3 -3q4 -4 10 -4q32 0 74 10q31 8 71 8h15q106 -21 135 -61q3 -5 5 -11l3.5 -10.5t2.5 -12.5t2 -12.5t1 -14v-13.5v-15.5v-15.5q0 -54 -18 -86q-21 -33 -82 -82q-67 -67 -141 -96q-46 -18 -93 -18q-18 0 -28 2h-35q-53 0 -78 -8 q-43 -14 -43 -58q0 -32 35 -59q45 -35 82 -35q184 0 315 64q122 57 236 208q49 62 49 168q0 104 -67 181.5t-216 152.5q-5 2 -10.5 7.5t-5.5 9.5q71 107 123 219q78 163 78 282q0 138 -129 138q-34 0 -84 -29q-93 -64 -179 -168l-75 -90q-41 -54 -80 -98q-38 -43 -70 -103 l-65 -117q-8 -13 -27 -53q-21 -40 -41 -82q-54 -107 -66 -133l-34 -84q-22 -70 -39 -133q-29 -121 -31 -154q-2 -14 -2 -30z" />
<glyph unicode="&#xe0;" horiz-adv-x="745" d="M41 117l27 -54q21 -26 33.5 -34.5t37.5 -8.5t54 13q47 19 98 63q30 26 43 35v-68q12 -80 43 -131q39 -69 115 -69q23 0 40.5 7t33 23t24 27.5t24.5 36.5q1 7 25 45q16 28 16 35q0 20 -14 26l-41 -26h-12q-31 0 -49 -12q-21 -15 -31 -15q-16 0 -16 45q0 87 34 168 q35 85 62 160q0 1 5 14t9 23q10 29 12 31l66 131l14 41l66 106v4q0 2 2 4v4q0 11 -8 19q-11 13 -45 37q-12 9 -15 12q-2 2 -14 2h-21h-18q-12 0 -14 -2l-27 -27l-53 -94l-12 -12q-7 4 -32.5 8t-35.5 4q-51 0 -96 -39q-84 -70 -170 -215q-25 -38 -66 -104q-2 -3 -17 -23.5 t-19.5 -27.5t-16.5 -25.5t-17 -29.5t-12 -27.5t-9.5 -31.5t-2.5 -30v-18zM295 317q5 16 29 56q48 68 90 110q21 21 26 21h15v-15q0 -2 -17 -26q-24 -28 -43 -47q-48 -50 -100 -99zM408 1159q0 -14 2 -18l2 -6q14 -25 51 -62l276 -211l27 4q30 18 36.5 30t6.5 44 q-8 22 -23.5 40t-24 24.5t-26.5 19.5q-102 67 -141 98q-47 34 -82 70l-25 18q-13 13 -22 13q-24 0 -40.5 -18.5t-16.5 -45.5z" />
<glyph unicode="&#xe1;" horiz-adv-x="745" d="M41 117l27 -54q21 -26 33.5 -34.5t37.5 -8.5t54 13q47 19 98 63q30 26 43 35v-68q12 -80 43 -131q39 -69 115 -69q23 0 40.5 7t33 23t24 27.5t24.5 36.5q1 7 25 45q16 28 16 35q0 20 -14 26l-41 -26h-12q-31 0 -49 -12q-21 -15 -31 -15q-16 0 -16 45q0 87 34 168 q35 85 62 160q0 1 5 14t9 23q10 29 12 31l66 131l14 41l66 106v4q0 2 2 4v4q0 11 -8 19q-11 13 -45 37q-12 9 -15 12q-2 2 -14 2h-21h-18q-12 0 -14 -2l-27 -27l-53 -94l-12 -12q-7 4 -32.5 8t-35.5 4q-51 0 -96 -39q-84 -70 -170 -215q-25 -38 -66 -104q-2 -3 -17 -23.5 t-19.5 -27.5t-16.5 -25.5t-17 -29.5t-12 -27.5t-9.5 -31.5t-2.5 -30v-18zM295 317q5 16 29 56q48 68 90 110q21 21 26 21h15v-15q0 -2 -17 -26q-24 -28 -43 -47q-48 -50 -100 -99zM449 899q0 -27 16 -45t41 -18q10 0 22 12l25 18q7 6 35.5 31.5t46.5 40.5q44 33 141 96 q55 33 74 84q0 23 -2 32t-11 19.5t-30 22.5l-27 4l-276 -211q-38 -38 -51 -61l-2 -6q-2 -4 -2 -19z" />
<glyph unicode="&#xe2;" horiz-adv-x="745" d="M41 117l27 -54q21 -26 33.5 -34.5t37.5 -8.5t54 13q47 19 98 63q30 26 43 35v-68q12 -80 43 -131q39 -69 115 -69q23 0 40.5 7t33 23t24 27.5t24.5 36.5q1 7 25 45q16 28 16 35q0 20 -14 26l-41 -26h-12q-31 0 -49 -12q-21 -15 -31 -15q-16 0 -16 45q0 87 34 168 q35 85 62 160q0 1 5 14t9 23q10 29 12 31l66 131l14 41l66 106v4q0 2 2 4v4q0 11 -8 19q-11 13 -45 37q-12 9 -15 12q-2 2 -14 2h-21h-18q-12 0 -14 -2l-27 -27l-53 -94l-12 -12q-7 4 -32.5 8t-35.5 4q-51 0 -96 -39q-84 -70 -170 -215q-25 -38 -66 -104q-2 -3 -17 -23.5 t-19.5 -27.5t-16.5 -25.5t-17 -29.5t-12 -27.5t-9.5 -31.5t-2.5 -30v-18zM295 317q5 16 29 56q48 68 90 110q21 21 26 21h15v-15q0 -2 -17 -26q-24 -28 -43 -47q-48 -50 -100 -99zM408 854q15 -6 32 -6q56 0 127 51q54 39 115 100q52 55 86 82q33 23 45 23q18 0 18 -37 q0 -15 -4 -61q-4 -50 -4 -72q0 -63 22.5 -80.5t86.5 -17.5q15 0 21 0.5t17 3t17 9t10 17.5l4 84q17 91 17 131q0 15 -4 47l-2 9q-9 14 -47 39q-39 22 -131 22q-37 0 -64 -6q-51 -12 -78 -35l-12 -8t-14 -8l-39 -25q-57 -54 -97 -88q-39 -31 -69 -61q-28 -30 -40.5 -54.5 t-12.5 -58.5z" />
<glyph unicode="&#xe3;" horiz-adv-x="745" d="M41 117l27 -54q21 -26 33.5 -34.5t37.5 -8.5t54 13q47 19 98 63q30 26 43 35v-68q12 -80 43 -131q39 -69 115 -69q23 0 40.5 7t33 23t24 27.5t24.5 36.5q1 7 25 45q16 28 16 35q0 20 -14 26l-41 -26h-12q-31 0 -49 -12q-21 -15 -31 -15q-16 0 -16 45q0 87 34 168 q35 85 62 160q0 1 5 14t9 23q10 29 12 31l66 131l14 41l66 106v4q0 2 2 4v4q0 11 -8 19q-11 13 -45 37q-12 9 -15 12q-2 2 -14 2h-21h-18q-12 0 -14 -2l-27 -27l-53 -94l-12 -12q-7 4 -32.5 8t-35.5 4q-51 0 -96 -39q-84 -70 -170 -215q-25 -38 -66 -104q-2 -3 -17 -23.5 t-19.5 -27.5t-16.5 -25.5t-17 -29.5t-12 -27.5t-9.5 -31.5t-2.5 -30v-18zM295 317q5 16 29 56q48 68 90 110q21 21 26 21h15v-15q0 -2 -17 -26q-24 -28 -43 -47q-48 -50 -100 -99zM383 926q0 -42 37 -54l10 -2q2 -1 5 -2l4.5 -1.5t2.5 -0.5q4 0 15 11q10 0 30 26 q28 36 54 62q84 92 174 120l-6 -53q-3 -26 -4 -26q5 -68 39 -113t92 -45q47 0 118 41v-2q31 18 35 22q38 25 64 47q10 10 10 17q0 15 -13.5 34t-31.5 25l-25 4q-23 0 -39 -8q-19 -7 -82 -35q-23 -10 -43 -10q-2 2 -2 10q0 18 9 39v17q0 143 -99 143q-42 0 -103 -26.5 t-118 -67.5q-58 -42 -95.5 -88.5t-37.5 -83.5z" />
<glyph unicode="&#xe4;" horiz-adv-x="745" d="M41 117l27 -54q21 -26 33.5 -34.5t37.5 -8.5t54 13q47 19 98 63q30 26 43 35v-68q12 -80 43 -131q39 -69 115 -69q23 0 40.5 7t33 23t24 27.5t24.5 36.5q1 7 25 45q16 28 16 35q0 20 -14 26l-41 -26h-12q-31 0 -49 -12q-21 -15 -31 -15q-16 0 -16 45q0 87 34 168 q35 85 62 160q0 1 5 14t9 23q10 29 12 31l66 131l14 41l66 106v4q0 2 2 4v4q0 11 -8 19q-11 13 -45 37q-12 9 -15 12q-2 2 -14 2h-21h-18q-12 0 -14 -2l-27 -27l-53 -94l-12 -12q-7 4 -32.5 8t-35.5 4q-51 0 -96 -39q-84 -70 -170 -215q-25 -38 -66 -104q-2 -3 -17 -23.5 t-19.5 -27.5t-16.5 -25.5t-17 -29.5t-12 -27.5t-9.5 -31.5t-2.5 -30v-18zM295 317q5 16 29 56q48 68 90 110q21 21 26 21h15v-15q0 -2 -17 -26q-24 -28 -43 -47q-48 -50 -100 -99zM483 944q0 -17 22.5 -34t47.5 -17q35 0 86 31l2 6q44 44 47 71v9q0 19 -16 43q-19 23 -19 43 v8l-12 10q-2 0 -6 4l-4 4q-35 -4 -49 -11t-39 -30q-49 -60 -60 -135v-2zM795 944q0 -17 22.5 -34t46.5 -17q35 0 86 31l2 6q44 44 47 71v9q0 19 -16 43q-18 22 -18 43v8l-13 10q-2 0 -6 4l-4 4q-35 -4 -49 -11t-39 -30q-48 -59 -59 -135v-2z" />
<glyph unicode="&#xe5;" horiz-adv-x="745" d="M41 117l27 -54q21 -26 33.5 -34.5t37.5 -8.5t54 13q47 19 98 63q30 26 43 35v-68q12 -80 43 -131q39 -69 115 -69q23 0 40.5 7t33 23t24 27.5t24.5 36.5q1 7 25 45q16 28 16 35q0 20 -14 26l-41 -26h-12q-31 0 -49 -12q-21 -15 -31 -15q-16 0 -16 45q0 87 34 168 q35 85 62 160q0 1 5 14t9 23q10 29 12 31l66 131l20 51q29 1 76.5 30t91.5 72q107 107 107 197v12q-12 36 -12 72q0 6 4 14q1 1 3.5 6t4.5 8v11l-33 43q-22 24 -36.5 29.5t-45.5 5.5q-35 0 -63 -6.5t-50.5 -20.5t-35.5 -24t-33 -31t-27 -27q-42 -38 -67 -70 q-70 -84 -70 -163v-3q0 -8 2 -10v-12q3 -36 33 -74l-14 -16q-7 4 -32.5 8t-35.5 4q-51 0 -96 -39q-84 -67 -172 -215q-31 -50 -64 -104q-2 -3 -17 -23.5t-19.5 -27.5t-16.5 -25.5t-17 -29.5t-12 -27.5t-9.5 -31.5t-2.5 -30v-18zM295 317q5 16 29 56q48 68 90 110 q21 21 26 21h15v-15q0 -2 -17 -26q-24 -28 -43 -47q-48 -50 -100 -99zM696 819q0 22 21 49q37 52 92 90q24 17 29 17v-14q0 -37 -45 -89q-43 -47 -86 -75q-11 11 -11 22z" />
<glyph unicode="&#xe6;" horiz-adv-x="999" d="M41 117l27 -54q21 -26 33.5 -34.5t37.5 -8.5t54 13q47 19 98 63q30 26 43 35v-68q1 -4 2 -12t2 -12q0 -9 4 -25h2q17 -32 51 -32q44 0 76 41q52 -37 125 -37q98 0 217 53q131 60 131 127q0 5 -1.5 9t-5 7t-7.5 5t-10.5 3t-11 2t-12.5 1h-13h-14h-13q-49 0 -96 -13 q-48 -15 -101 -24h-41h-10h-11.5t-10.5 0.5t-10 2.5t-7.5 4.5t-6 7.5t-1.5 11q0 2 2 4v4q93 58 205 158q98 90 178 187q76 92 76 145l-8 14l-2 4l-21 37l-16 17q-5 4 -17 13t-20.5 15t-9.5 6h-47q-59 0 -119 -43q-4 11 -12 19q-22 22 -43 37q-9 6 -13 10q-2 2 -14 2h-21h-18 q-12 0 -14 -2l-27 -27l-53 -94l-12 -12q-7 4 -32.5 8t-35.5 4q-51 0 -96 -39q-84 -67 -172 -215q-31 -50 -64 -104q-2 -3 -17 -23.5t-19.5 -27.5t-16.5 -25.5t-17 -29.5t-12 -27.5t-9.5 -31.5t-2.5 -30v-18zM295 317q5 16 29 56q48 68 90 110q21 21 26 21h15v-15 q0 -2 -17 -26q-24 -28 -43 -47q-48 -50 -100 -99z" />
<glyph unicode="&#xe7;" horiz-adv-x="622" d="M25 -420q0 -41 32 -55q22 -14 49 -14q75 0 173 65q89 61 161 133l17 45q0 6 2 10v7q-10 62 -43.5 95.5t-87.5 53.5l-23 6q-21 4 -33 13q0 9 7 20l8 12l24 35l31 25q103 41 162 100q18 13 28 37q6 21 29 41q-15 35 -82 35q-40 0 -125 -33q-89 -33 -129 -33h-4q-4 0 -9 5 t-7 10v16l41 96l20 31q24 37 53 70q11 14 17 14q17 0 33 -19q12 -18 34 -18q58 0 76 35l39 98q8 8 17.5 21.5t16.5 25.5t20.5 34.5t21.5 35.5q8 12 23 37t25.5 41t25 38t28.5 39q0 9 2 17v14q0 41 -30 86q-32 45 -68 45q-20 0 -61 -35q-74 -66 -193 -208q-32 -39 -63.5 -79 t-69 -90t-45.5 -61q-40 -54 -43 -59q-1 -2 -11.5 -18.5t-13.5 -21t-12 -19.5t-12.5 -22.5t-10.5 -21.5t-10 -23.5t-7 -22.5t-5.5 -24.5t-1.5 -23.5v-4q0 -51 29 -111q32 -66 73 -90q-10 -30 -10 -51q0 -65 62 -117q57 -51 135 -67q-5 0 -11 -6q-16 -16 -20 -19l-82 -67 l-35 -21h2l-30 -16l-107 -37q-4 -2 -7.5 -4t-5.5 -3.5t-3.5 -4t-2 -4t-1 -4.5t-0.5 -4v-5v-6h-2z" />
<glyph unicode="&#xe8;" horiz-adv-x="733" d="M41 223q42 -221 223 -221q98 0 217 53q131 60 131 127q0 5 -1.5 9t-5 7t-7.5 5t-10.5 3t-11 2t-12.5 1h-13h-14h-13q-52 0 -96 -12q-55 -18 -100 -25h-41h-9h-10t-9.5 0.5t-9.5 1.5t-7.5 3t-7 5t-4 7t-1.5 10q0 2 2 4v4q93 58 205 158q101 94 178 186q76 92 76 145 l-10 19l-21 37l-16 16q-5 4 -17 13t-20.5 15.5t-9.5 6.5h-47q-49 0 -84 -21q-71 -44 -125 -88q-48 -37 -123 -112l-18 -17q-9 -13 -28 -34.5t-26 -30.5q-38 -48 -51 -72q-53 -84 -53 -162v-43zM268 1163q0 -14 2 -18l2 -6q13 -23 52 -62l276 -211l27 4q30 18 36.5 30t6.5 44 q-8 22 -23.5 40t-24 24.5t-26.5 19.5q-102 67 -141 98q-47 34 -82 70l-25 18q-13 13 -22 13q-25 0 -41.5 -19t-16.5 -45z" />
<glyph unicode="&#xe9;" horiz-adv-x="733" d="M41 223q42 -221 223 -221q98 0 217 53q131 60 131 127q0 5 -1.5 9t-5 7t-7.5 5t-10.5 3t-11 2t-12.5 1h-13h-14h-13q-52 0 -96 -12q-55 -18 -100 -25h-41h-9h-10t-9.5 0.5t-9.5 1.5t-7.5 3t-7 5t-4 7t-1.5 10q0 2 2 4v4q93 58 205 158q101 94 178 186q76 92 76 145 l-10 19l-21 37l-16 16q-5 4 -17 13t-20.5 15.5t-9.5 6.5h-47q-49 0 -84 -21q-71 -44 -125 -88q-48 -37 -123 -112l-18 -17q-9 -13 -28 -34.5t-26 -30.5q-38 -48 -51 -72q-53 -84 -53 -162v-43zM268 870q0 -26 16.5 -44.5t41.5 -18.5q10 0 22 12l25 19q76 66 82 71 q56 41 141 97q55 33 74 84q0 32 -6 43.5t-37 29.5l-27 4l-276 -211q-41 -41 -52 -61l-2 -6q-2 -4 -2 -19z" />
<glyph unicode="&#xea;" horiz-adv-x="733" d="M41 223q42 -221 223 -221q98 0 217 53q131 60 131 127q0 5 -1.5 9t-5 7t-7.5 5t-10.5 3t-11 2t-12.5 1h-13h-14h-13q-52 0 -96 -12q-55 -18 -100 -25h-41h-9h-10t-9.5 0.5t-9.5 1.5t-7.5 3t-7 5t-4 7t-1.5 10q0 2 2 4v4q93 58 205 158q101 94 178 186q76 92 76 145 l-10 19l-21 37l-16 16q-5 4 -17 13t-20.5 15.5t-9.5 6.5h-47q-49 0 -84 -21q-71 -44 -125 -88q-48 -37 -123 -112l-18 -17q-9 -13 -28 -34.5t-26 -30.5q-38 -48 -51 -72q-53 -84 -53 -162v-43zM299 825q15 -6 33 -6q56 0 127 51q47 34 114 101q52 55 86 82q31 22 46 22 q18 0 18 -37q0 -15 -4 -61q-4 -50 -4 -72q0 -63 22 -80.5t86 -17.5q18 0 28 1t21.5 8.5t16.5 21.5l4 84q16 86 16 131q0 15 -4 47l-2 8q-9 14 -47 39q-39 22 -131 22q-36 0 -63 -6q-51 -12 -78 -35q-25 -15 -27 -16l-39 -25q-66 -63 -96 -88q-44 -34 -70 -61 q-28 -30 -40.5 -55t-12.5 -58z" />
<glyph unicode="&#xeb;" horiz-adv-x="733" d="M41 223q42 -221 223 -221q98 0 217 53q131 60 131 127q0 5 -1.5 9t-5 7t-7.5 5t-10.5 3t-11 2t-12.5 1h-13h-14h-13q-52 0 -96 -12q-55 -18 -100 -25h-41h-9h-10t-9.5 0.5t-9.5 1.5t-7.5 3t-7 5t-4 7t-1.5 10q0 2 2 4v4q93 58 205 158q101 94 178 186q76 92 76 145 l-10 19l-21 37l-16 16q-5 4 -17 13t-20.5 15.5t-9.5 6.5h-47q-49 0 -84 -21q-71 -44 -125 -88q-48 -37 -123 -112l-18 -17q-9 -13 -28 -34.5t-26 -30.5q-38 -48 -51 -72q-53 -84 -53 -162v-43zM420 911q0 -17 22.5 -34t46.5 -17q35 0 86 31l3 6q44 44 47 72v8q0 17 -17 43 q-18 22 -18 43v8l-12 10q-3 0 -7 4l-4 5q-35 -4 -49 -11t-39 -30q-48 -59 -59 -136v-2zM731 911q0 -17 22.5 -34t47.5 -17q35 0 86 31l2 6q44 44 47 72v8q0 19 -16 43q-19 23 -19 43v8l-12 10q-2 0 -6 4l-4 5q-35 -4 -49 -11t-39 -30q-49 -60 -60 -136v-2z" />
<glyph unicode="&#xec;" horiz-adv-x="518" d="M41 526q0 -27 37 -77q45 -60 80 -60q14 0 16 2q-35 -52 -55.5 -120t-20.5 -113v-37q0 -29 2 -31l43 -63q24 -41 64 -41q37 0 53 16l158 143q4 0 10 9t6 14v14q0 6 -22 16.5t-35 10.5q-2 0 -6 -4q-2 -2 -6 -4.5t-5 -3.5v-15l-28 -14h-29q-1 0 -3 -1t-5.5 -2.5t-5.5 -2.5 l-13 -4h-16q89 247 158 389q3 6 12 24.5t14 30.5q16 36 33 62v14q-39 58 -61 75t-58 17h-12l-172 -158q-16 -16 -41 -20q-8 -1 -23 -2t-22 -2q-23 -3 -35 -16t-12 -46zM106 1143q0 -13 3 -19l2 -6q13 -23 51 -61l276 -211l27 4q30 18 36.5 30t6.5 44q-8 22 -23.5 40 t-24 24.5t-26.5 19.5q-102 67 -141 98q-46 34 -82 70l-25 18q-12 12 -22 12q-25 0 -41.5 -18.5t-16.5 -44.5z" />
<glyph unicode="&#xed;" horiz-adv-x="518" d="M41 526q0 -27 37 -77q45 -60 80 -60q14 0 16 2q-35 -52 -55.5 -120t-20.5 -113v-37q0 -29 2 -31l43 -63q24 -41 64 -41q37 0 53 16l158 143q4 0 10 9t6 14v14q0 6 -22 16.5t-35 10.5q-2 0 -6 -4q-2 -2 -6 -4.5t-5 -3.5v-15l-28 -14h-29q-1 0 -3 -1t-5.5 -2.5t-5.5 -2.5 l-13 -4h-16q89 247 158 389q3 6 12 24.5t14 30.5q16 36 33 62v14q-39 58 -61 75t-58 17h-12l-172 -158q-16 -16 -41 -20q-8 -1 -23 -2t-22 -2q-23 -3 -35 -16t-12 -46zM188 879q0 -26 16.5 -45t41.5 -19q10 0 22 12l25 19q7 6 35.5 31.5t46.5 40.5q44 33 141 96q55 33 74 84 q0 32 -6 43.5t-37 29.5l-27 5l-276 -211q-37 -37 -51 -62l-3 -6q-2 -4 -2 -18z" />
<glyph unicode="&#xee;" horiz-adv-x="518" d="M41 526q0 -27 37 -77q45 -60 80 -60q14 0 16 2q-35 -52 -55.5 -120t-20.5 -113v-37q0 -29 2 -31l43 -63q24 -41 64 -41q37 0 53 16l158 143q4 0 10 9t6 14v14q0 6 -22 16.5t-35 10.5q-2 0 -6 -4q-2 -2 -6 -4.5t-5 -3.5v-15l-28 -14h-29q-1 0 -3 -1t-5.5 -2.5t-5.5 -2.5 l-13 -4h-16q89 247 158 389q3 6 12 24.5t14 30.5q16 36 33 62v14q-39 58 -61 75t-58 17h-12l-172 -158q-16 -16 -41 -20q-8 -1 -23 -2t-22 -2q-23 -3 -35 -16t-12 -46zM115 834q17 -7 32 -7q55 0 127 52q54 39 115 100q52 55 86 82q31 22 45 22q19 0 19 -36q0 -16 -4 -62 q-5 -63 -5 -72q0 -63 22.5 -80.5t86.5 -17.5q18 0 28 1t21.5 8.5t16.5 21.5l4 84q16 86 16 131q0 15 -4 47l-2 8q-9 14 -47 39q-41 23 -131 23q-33 0 -64 -7q-53 -12 -78 -34q-4 -3 -13 -9t-13 -8l-39 -24q-66 -63 -96 -88q-39 -31 -70 -62q-28 -30 -40.5 -54.5t-12.5 -57.5 z" />
<glyph unicode="&#xef;" horiz-adv-x="518" d="M41 526q0 -27 37 -77q45 -60 80 -60q14 0 16 2q-35 -52 -55.5 -120t-20.5 -113v-37q0 -29 2 -31l43 -63q24 -41 64 -41q37 0 53 16l158 143q4 0 10 9t6 14v14q0 6 -22 16.5t-35 10.5q-2 0 -6 -4q-2 -2 -6 -4.5t-5 -3.5v-15l-28 -14h-29q-1 0 -3 -1t-5.5 -2.5t-5.5 -2.5 l-13 -4h-16q89 247 158 389q3 6 12 24.5t14 30.5q16 36 33 62v14q-39 58 -61 75t-58 17h-12l-172 -158q-16 -16 -41 -20q-8 -1 -23 -2t-22 -2q-23 -3 -35 -16t-12 -46zM170 944q0 -17 22.5 -34t47.5 -17q35 0 86 31l2 6q44 44 47 71v9q0 18 -17 43q-18 22 -18 43v8l-12 10 q-2 0 -6 4l-5 4q-35 -4 -49 -11t-39 -30q-48 -59 -59 -135v-2zM481 944q0 -17 22.5 -34t47.5 -17q35 0 86 31l2 6q44 44 47 71v9q0 19 -16 43q-19 23 -19 43v8l-12 10q-2 0 -6 4l-4 4q-35 -4 -49 -11t-39 -30q-49 -60 -60 -135v-2z" />
<glyph unicode="&#xf0;" horiz-adv-x="845" d="M41 182q0 -86 78 -139q61 -43 123 -43q117 0 235 78q74 49 185 160q71 69 106 163t35 197q0 62 -12 121t-38.5 121.5t-48.5 105t-61 111.5l111 102l2 2q4 4 4 8l-6 7q-1 2 -3 7t-3.5 10t-2.5 9q-7 17 -14 29q-19 31 -49 31q-41 0 -84 -19q-43 -18 -88 -18q-14 0 -27 8 q-13 5 -47 29l-76 51q-37 24 -98 37q-65 14 -86 14q-14 -4 -23 -11.5t-12.5 -20t-4.5 -22t-1 -24.5q0 -66 76 -110l115 -50q7 -7 10 -8q2 -2 4.5 -5.5t3.5 -4.5l-84 -84q-79 -79 -84 -86q-4 -5 -7.5 -9t-5.5 -6.5t-3.5 -6.5t-2 -6t-1 -7t-0.5 -7v-9v-10q0 -39 41 -80 q38 -45 82 -45q33 0 59 26q13 12 28 29t24.5 29t28 36t25.5 33q20 28 50 51q53 -56 83.5 -144t30.5 -194q0 -74 -20 -108q-52 36 -96.5 53t-100.5 17q-162 0 -260 -134q-43 -57 -66.5 -128t-23.5 -136zM227 160v4q0 4 4 24l56 154q14 22 65 43q16 7 84 23q23 0 40.5 -20 t17.5 -46q0 -36 -91 -106q-98 -76 -176 -76z" />
<glyph unicode="&#xf1;" horiz-adv-x="806" d="M74 176q11 -44 47 -92q33 -45 57 -45h10q7 0 9 2h-2l18 16v-2l57 60q-3 0 13 16l51 70l31 37l59 69q31 36 80 70l-4 -101q-2 -48 8 -76.5t39 -54.5l22 -20q42 -42 64 -53l6 6q20 12 38.5 33.5t22.5 42.5l-4 22v-2q-20 57 -20 76q0 71 24 158l9 28q28 94 28 154 q0 64 -51 102l-35 13h2l-18 8q-6 0 -19 8l-12 8q-31 -3 -65 -41l-23 -24h2q-22 -25 -61 -54q24 84 24 117q0 66 -57 96l-16 6q-37 13 -52 13q-38 0 -55 -35q-13 -26 -25 -72v2q-2 -2 -2 -12q0 -4 2 -4q-3 -7 -7.5 -23t-11.5 -40t-13 -42q-3 -10 -6.5 -21.5t-8 -23.5 t-6.5 -18l-12 -37l-25 -67l-30 -82q-21 -54 -23 -68l-24 -35q-27 -37 -33 -65zM262 967q0 -42 37 -54l10 -2q12 -4 13 -4q3 0 14 11q11 0 31 26q32 40 53 62q84 92 174 120l-6 -53q-3 -26 -4 -26q5 -68 39 -113t92 -45q48 0 119 41v-2q27 16 34 22q38 25 64 47q10 10 10 17 q0 15 -13.5 34t-31.5 25l-25 4q-22 0 -38 -8q-20 -7 -82 -35q-23 -10 -43 -10q-2 2 -2 10q0 20 8 39v17q0 143 -99 143q-42 0 -103 -26.5t-118 -67.5q-58 -42 -95.5 -88.5t-37.5 -83.5z" />
<glyph unicode="&#xf2;" d="M41 125q0 -26 6 -47l8 -35q2 -5 19 -18q12 -12 35 -25q60 -35 118 -35q98 0 195 64q52 34 127 114l61 60q1 2 7 13.5t6 14.5l45 72l20 25q14 34 17 47q3 10 6 18.5t5.5 15t2.5 7.5l-2 14q-1 5 -15 33q-26 43 -92 43l-20 76q-2 1 -6.5 3.5t-8 5t-6.5 5.5q-20 12 -37 25 l-24 10q-27 12 -70 12q-28 0 -47 -8q-35 -12 -84 -51q-24 -17 -49 -31q0 -5 -10 -18l-53 -60q-16 -16 -25 -31q0 -8 6 -8l-18 -18q-5 -4 -10.5 -8.5t-8.5 -7t-4 -3.5q-19 -22 -32 -51t-13 -47l-12 -39q-37 -76 -37 -137zM233 92v2q0 3 3 6v6l10 62l-4 -2l16 45q0 64 64 156 q52 75 133 139h2q14 0 20 -6l8 -8q0 -1 -4 -5q-4 -2 -10 -8l-12 -12l-17 -37l-43 -41l-8 -18l-22 -39q-4 -5 -7.5 -11.5t-7.5 -13.5t-6 -10q-22 -42 -24 -78l4 -65l-43 -41q-4 0 -6 -2l-13 -7zM264 995q0 -14 2 -18l2 -6q14 -25 51 -62l277 -211l27 4q30 18 36.5 30t6.5 44 q-8 22 -23.5 40t-24 24.5t-26.5 19.5q-102 67 -141 98q-47 34 -82 70l-25 19q-12 12 -22 12q-25 0 -41.5 -19t-16.5 -45zM461 508l4 10v-6l-2 -4h-2z" />
<glyph unicode="&#xf3;" d="M41 125q0 -26 6 -47l8 -35q2 -5 19 -18q12 -12 35 -25q60 -35 118 -35q98 0 195 64q52 34 127 114l61 60q1 2 7 13.5t6 14.5l45 72l20 25q14 34 17 47q3 10 6 18.5t5.5 15t2.5 7.5l-2 14q-1 5 -15 33q-26 43 -92 43l-20 76q-2 1 -6.5 3.5t-8 5t-6.5 5.5q-20 12 -37 25 l-24 10q-27 12 -70 12q-28 0 -47 -8q-35 -12 -84 -51q-24 -17 -49 -31q0 -5 -10 -18l-53 -60q-16 -16 -25 -31q0 -8 6 -8l-18 -18q-5 -4 -10.5 -8.5t-8.5 -7t-4 -3.5q-19 -22 -32 -51t-13 -47l-12 -39q-37 -76 -37 -137zM233 92v2q0 3 3 6v6l10 62l-4 -2l16 45q0 64 64 156 q52 75 133 139h2q14 0 20 -6l8 -8q0 -1 -4 -5q-4 -2 -10 -8l-12 -12l-17 -37l-43 -41l-8 -18l-22 -39q-4 -5 -7.5 -11.5t-7.5 -13.5t-6 -10q-22 -42 -24 -78l4 -65l-43 -41q-4 0 -6 -2l-13 -7zM260 788q0 -27 16 -45t41 -18q11 0 23 12l25 19q7 6 35 31t46 40q48 36 142 97 q55 33 74 84q0 31 -6.5 43t-37.5 30l-26 4l-277 -211q-38 -38 -51 -61l-2 -6q-2 -4 -2 -19zM461 508l4 10v-6l-2 -4h-2z" />
<glyph unicode="&#xf4;" d="M41 125q0 -26 6 -47l8 -35q2 -5 19 -18q12 -12 35 -25q60 -35 118 -35q98 0 195 64q52 34 127 114l61 60q1 2 7 13.5t6 14.5l45 72l20 25q14 34 17 47q3 10 6 18.5t5.5 15t2.5 7.5l-2 14q-1 5 -15 33q-26 43 -92 43l-20 76q-2 1 -6.5 3.5t-8 5t-6.5 5.5q-20 12 -37 25 l-24 10q-27 12 -70 12q-28 0 -47 -8q-35 -12 -84 -51q-24 -17 -49 -31q0 -5 -10 -18l-53 -60q-16 -16 -25 -31q0 -8 6 -8l-18 -18q-5 -4 -10.5 -8.5t-8.5 -7t-4 -3.5q-19 -22 -32 -51t-13 -47l-12 -39q-37 -76 -37 -137zM229 702q15 -6 33 -6q55 0 127 52q54 39 115 100 q52 55 86 82q31 22 45 22q18 0 18 -37q0 -15 -4 -61q-4 -50 -4 -72q0 -63 22.5 -80.5t86.5 -17.5q14 0 21 0.5t17.5 3t16.5 9.5t10 18l4 84q17 91 17 131q0 15 -4 47l-2 8q-8 13 -48 39q-41 23 -131 23q-31 0 -63 -7q-53 -12 -78 -34q-4 -2 -13 -8.5t-14 -8.5l-38 -24 q-57 -54 -97 -88q-34 -27 -69 -62q-28 -30 -41 -55t-13 -58zM233 92v2q0 3 3 6v6l10 62l-4 -2l16 45q0 64 64 156q52 75 133 139h2q14 0 20 -6l8 -8q0 -1 -4 -5q-4 -2 -10 -8l-12 -12l-17 -37l-43 -41l-8 -18l-22 -39q-4 -5 -7.5 -11.5t-7.5 -13.5t-6 -10q-22 -42 -24 -78 l4 -65l-43 -41q-4 0 -6 -2l-13 -7zM461 508l4 10v-6l-2 -4h-2z" />
<glyph unicode="&#xf5;" d="M41 125q0 -26 6 -47l8 -35q2 -5 19 -18q12 -12 35 -25q60 -35 118 -35q98 0 195 64q52 34 127 114l61 60q1 2 7 13.5t6 14.5l45 72l20 25q14 34 17 47q3 10 6 18.5t5.5 15t2.5 7.5l-2 14q-1 5 -15 33q-26 43 -92 43l-20 76q-2 1 -6.5 3.5t-8 5t-6.5 5.5q-20 12 -37 25 l-24 10q-27 12 -70 12q-28 0 -47 -8q-35 -12 -84 -51q-24 -17 -49 -31q0 -5 -10 -18l-53 -60q-16 -16 -25 -31q0 -8 6 -8l-18 -18q-5 -4 -10.5 -8.5t-8.5 -7t-4 -3.5q-19 -22 -32 -51t-13 -47l-12 -39q-37 -76 -37 -137zM233 92v2q0 3 3 6v6l10 62l-4 -2l16 45q0 64 64 156 q52 75 133 139h2q14 0 20 -6l8 -8q0 -1 -4 -5q-4 -2 -10 -8l-12 -12l-17 -37l-43 -41l-8 -18l-22 -39q-4 -5 -7.5 -11.5t-7.5 -13.5t-6 -10q-22 -42 -24 -78l4 -65l-43 -41q-4 0 -6 -2l-13 -7zM236 733q0 -41 36 -53l11 -2q2 -1 5 -2l4.5 -1.5t2.5 -0.5q4 0 14 10 q10 0 31 27q28 36 53 61q86 94 174 121l-6 -53q-3 -27 -4 -27q5 -68 39 -113t92 -45q48 0 119 41v-2q26 16 35 23q35 22 63 47q10 10 10 16q0 15 -13.5 34.5t-31.5 25.5l-24 4q-23 0 -39 -8q-20 -7 -82 -35q-23 -10 -43 -10q-2 2 -2 10q0 20 8 39v16q0 143 -98 143 q-42 0 -103 -26.5t-118 -67.5q-58 -42 -95.5 -88.5t-37.5 -83.5zM461 508l4 10v-6l-2 -4h-2z" />
<glyph unicode="&#xf6;" d="M41 125q0 -26 6 -47l8 -35q2 -5 19 -18q12 -12 35 -25q60 -35 118 -35q98 0 195 64q52 34 127 114l61 60q1 2 7 13.5t6 14.5l45 72l20 25q14 34 17 47q3 10 6 18.5t5.5 15t2.5 7.5l-2 14q-1 5 -15 33q-26 43 -92 43l-20 76q-2 1 -6.5 3.5t-8 5t-6.5 5.5q-20 12 -37 25 l-24 10q-27 12 -70 12q-28 0 -47 -8q-35 -12 -84 -51q-24 -17 -49 -31q0 -5 -10 -18l-53 -60q-16 -16 -25 -31q0 -8 6 -8l-18 -18q-5 -4 -10.5 -8.5t-8.5 -7t-4 -3.5q-19 -22 -32 -51t-13 -47l-12 -39q-37 -76 -37 -137zM233 92v2q0 3 3 6v6l10 62l-4 -2l16 45q0 64 64 156 q52 75 133 139h2q14 0 20 -6l8 -8q0 -1 -4 -5q-4 -2 -10 -8l-12 -12l-17 -37l-43 -41l-8 -18l-22 -39q-4 -5 -7.5 -11.5t-7.5 -13.5t-6 -10q-22 -42 -24 -78l4 -65l-43 -41q-4 0 -6 -2l-13 -7zM309 772q0 -17 22.5 -34t47.5 -17q35 0 86 31l2 6q44 44 47 71v9q0 19 -16 43 q-19 23 -19 43v8l-12 10q-2 0 -6 4l-4 4q-35 -4 -49 -11t-39 -30q-49 -60 -60 -135v-2zM461 508l4 10v-6l-2 -4h-2zM621 772q0 -17 22.5 -34t46.5 -17q35 0 86 31l2 6q44 44 47 71v9q0 19 -16 43q-18 22 -18 43v8l-13 10q-2 0 -6 4l-4 4q-35 -4 -49 -11t-39 -30 q-48 -59 -59 -135v-2z" />
<glyph unicode="&#xf7;" horiz-adv-x="817" d="M41 457q0 -53 35.5 -89t81.5 -36q82 0 161 18q122 27 293 27q50 0 70 20h16q6 -2 21 -2q23 0 39 23t16 53q0 23 -14 29q-100 14 -291 14h-375q-53 -16 -53 -57zM264 127q0 -17 26.5 -35t51.5 -18q36 0 80 30l2 7q37 43 37 71q0 18 -25 51q-24 28 -24 52l-15 10q-2 0 -6 4 l-6 4q-32 -5 -45.5 -11.5t-36.5 -29.5q-39 -54 -39 -135zM358 610q0 -17 26.5 -35t51.5 -18q35 0 80 31l2 6q37 43 37 72q0 18 -25 51q-24 28 -24 51l-14 10q-3 0 -7 4l-6 4q-32 -4 -45.5 -11t-36.5 -30q-39 -54 -39 -135z" />
<glyph unicode="&#xf8;" d="M33 -74v-6q2 -20 17.5 -37.5t39.5 -17.5q18 0 23 8l37 47q0 2 8 14t12 13l14 22q28 -4 43 -4q98 0 195 64q52 34 127 114l61 60q1 2 7 13.5t6 14.5l45 72l20 25q14 34 17 47q3 10 6 18.5t5.5 15t2.5 7.5q0 4 -2 10l-6 20q-18 36 -47 48l45 45q7 7 22.5 21.5t22.5 21.5v8 l-17 18q-2 2 -7 10t-6.5 9.5t-6 7t-6.5 6.5t-7 5t-9 4.5t-10.5 2t-14 2t-17.5 0.5h-22l-35 -28l-29 -31l-35 25l-24 10q-27 12 -70 12q-28 0 -47 -8q-35 -12 -84 -51q-24 -17 -49 -31q0 -5 -10 -18l-53 -60q-16 -16 -25 -31q0 -8 6 -8l-18 -18q-5 -4 -10.5 -8.5t-8.5 -7 t-4 -3.5q-19 -22 -32 -51t-13 -47l-12 -39q-37 -76 -37 -137q0 -26 6 -47l8 -35q4 -11 19 -20q-41 -55 -41 -97zM262 250q14 60 74 137q42 57 119 119h2q14 0 20 -6l4 -6l-10 -15q-3 -3 -6 -7t-4 -5l-4 -2q-94 -97 -156 -170zM461 508l4 10v-6l-2 -4h-2z" />
<glyph unicode="&#xf9;" horiz-adv-x="749" d="M41 145q0 -43 29 -79.5t69 -36.5q48 0 121 65l100 84h5q2 0 4 2q2 -2 10 -6q12 -9 12 -10q19 -62 47 -117q36 -70 90 -70q34 0 90 70l3 21q0 3 -0.5 6t-2 5.5t-2.5 5t-3.5 5.5t-4 4.5t-5 4.5t-5 4.5t-5.5 5t-5 4.5q-40 31 -47 51l4 20q10 94 67 211q65 138 88 201 q7 7 7 39q0 43 -27.5 69.5t-67.5 26.5q-20 -6 -34 -14q-35 -19 -35 -45v-8q-80 -140 -183 -252q-15 -15 -20 -19l-31 -31l-51 -51v19q8 48 37 94q27 43 47 88l2 16q29 46 47 86q19 46 33 82q0 42 -25.5 80.5t-52.5 38.5q-34 0 -61 -35q-52 -66 -92 -176q-10 -34 -29 -76 l-43 -98q-18 -40 -29 -61q-14 -26 -24 -58q-27 -69 -27 -166zM313 1110q0 -14 2 -18l2 -7q11 -20 52 -61l276 -211l27 4q30 18 36.5 30t6.5 44q-8 22 -23.5 40t-24 24.5t-26.5 19.5q-102 67 -141 98q-47 34 -82 70l-25 18q-13 13 -22 13q-25 0 -41.5 -19t-16.5 -45z" />
<glyph unicode="&#xfa;" horiz-adv-x="749" d="M41 145q0 -43 29 -79.5t69 -36.5q48 0 121 65l100 84h5q2 0 4 2q2 -2 10 -6q12 -9 12 -10q19 -62 47 -117q36 -70 90 -70q34 0 90 70l3 21q0 3 -0.5 6t-2 5.5t-2.5 5t-3.5 5.5t-4 4.5t-5 4.5t-5 4.5t-5.5 5t-5 4.5q-40 31 -47 51l4 20q10 94 67 211q65 138 88 201 q7 7 7 39q0 43 -27.5 69.5t-67.5 26.5q-20 -6 -34 -14q-35 -19 -35 -45v-8q-80 -140 -183 -252q-15 -15 -20 -19l-31 -31l-51 -51v19q8 48 37 94q27 43 47 88l2 16q29 46 47 86q19 46 33 82q0 42 -25.5 80.5t-52.5 38.5q-34 0 -61 -35q-52 -66 -92 -176q-10 -34 -29 -76 l-43 -98q-18 -40 -29 -61q-14 -26 -24 -58q-27 -69 -27 -166zM322 956q0 -27 16 -45t41 -18q10 0 22 12l25 19q75 66 82 71q56 41 141 97q55 33 74 84q0 32 -6 43.5t-37 29.5l-27 4l-276 -211q-38 -38 -51 -61l-2 -6q-2 -4 -2 -19z" />
<glyph unicode="&#xfb;" horiz-adv-x="749" d="M41 145q0 -43 29 -79.5t69 -36.5q48 0 121 65l100 84h5q2 0 4 2q2 -2 10 -6q12 -9 12 -10q19 -62 47 -117q36 -70 90 -70q34 0 90 70l3 21q0 3 -0.5 6t-2 5.5t-2.5 5t-3.5 5.5t-4 4.5t-5 4.5t-5 4.5t-5.5 5t-5 4.5q-40 31 -47 51l4 20q10 94 67 211q65 138 88 201 q7 7 7 39q0 43 -27.5 69.5t-67.5 26.5q-20 -6 -34 -14q-35 -19 -35 -45v-8q-80 -140 -183 -252q-15 -15 -20 -19l-31 -31l-51 -51v19q8 48 37 94q27 43 47 88l2 16q29 46 47 86q19 46 33 82q0 42 -25.5 80.5t-52.5 38.5q-34 0 -61 -35q-52 -66 -92 -176q-10 -34 -29 -76 l-43 -98q-18 -40 -29 -61q-14 -26 -24 -58q-27 -69 -27 -166zM238 870q15 -6 32 -6q56 0 127 51q50 36 115 101q52 55 86 82q31 22 45 22q19 0 19 -37q0 -3 -5 -61q-4 -50 -4 -72q0 -63 22.5 -80.5t86.5 -17.5q14 0 21 0.5t17.5 3t16.5 9.5t10 18l4 84q17 91 17 131 q0 15 -4 47l-2 8q-9 14 -47 39q-39 22 -131 22q-37 0 -64 -6q-53 -12 -78 -34q-4 -3 -13 -9t-13 -8l-39 -24q-68 -64 -97 -89q-39 -31 -69 -61q-28 -30 -40.5 -54.5t-12.5 -58.5z" />
<glyph unicode="&#xfc;" horiz-adv-x="749" d="M41 145q0 -43 29 -79.5t69 -36.5q48 0 121 65l100 84h5q2 0 4 2q2 -2 10 -6q12 -9 12 -10q19 -62 47 -117q36 -70 90 -70q34 0 90 70l3 21q0 3 -0.5 6t-2 5.5t-2.5 5t-3.5 5.5t-4 4.5t-5 4.5t-5 4.5t-5.5 5t-5 4.5q-40 31 -47 51l4 20q10 94 67 211q65 138 88 201 q7 7 7 39q0 43 -27.5 69.5t-67.5 26.5q-20 -6 -34 -14q-35 -19 -35 -45v-8q-80 -140 -183 -252q-15 -15 -20 -19l-31 -31l-51 -51v19q8 48 37 94q27 43 47 88l2 16q29 46 47 86q19 46 33 82q0 42 -25.5 80.5t-52.5 38.5q-34 0 -61 -35q-52 -66 -92 -176q-10 -34 -29 -76 l-43 -98q-18 -40 -29 -61q-14 -26 -24 -58q-27 -69 -27 -166zM322 961q0 -18 22.5 -35t46.5 -17q35 0 86 31l2 6q44 44 47 72v8q0 19 -16 43q-18 22 -18 43v8l-13 10q-1 0 -6 5l-4 4q-35 -4 -49 -11t-39 -30q-48 -59 -59 -135v-2zM633 961q0 -18 22.5 -35t46.5 -17 q35 0 86 31l3 6q44 44 47 72v8q0 18 -17 43q-18 22 -18 43v8l-12 10q-2 0 -7 5l-4 4q-35 -4 -49 -11t-39 -30q-48 -59 -59 -135v-2z" />
<glyph unicode="&#xfd;" horiz-adv-x="778" d="M-233 -645v-8q20 -82 102 -109q36 -14 102 -14q75 0 140 35q121 63 221 219q83 128 157 305q3 7 58 139l16 45l37 144q17 68 39 143q45 154 82 229l31 60v61q-10 23 -44.5 43.5t-58.5 20.5q-19 0 -35 -19q-28 -33 -55 -112l-27 -68q-24 -59 -90 -125q-60 -62 -131 -104 q-2 -2 -16 -9q-17 -7 -29 -14q-40 -22 -47 -24v24q0 82 41 166q48 98 84 176q0 41 -31 80q-34 43 -77 43q-17 0 -27 -10q-15 -15 -27 -56l-10 -26l-94 -197q-17 -52 -17 -100q0 -119 39 -187q42 -77 144 -77q32 0 87.5 28.5t92.5 63.5q-34 -101 -48.5 -143.5t-45 -117 t-62.5 -132.5q-5 -10 -26.5 -48.5t-34.5 -62t-35 -58t-43 -61.5q-108 -139 -217 -139q-30 0 -53 10q-27 10 -54 10q-38 0 -38 -24zM303 801q0 -27 16.5 -45.5t40.5 -18.5q10 0 23 13l25 18q10 9 36.5 33.5t44.5 38.5q37 28 142 96q55 33 74 84q0 23 -2 32t-11 19.5t-30 22.5 l-27 4l-277 -211q-37 -37 -51 -62l-2 -6q-2 -4 -2 -18z" />
<glyph unicode="&#xfe;" horiz-adv-x="565" d="M4 -141q0 -43 12 -78q19 -55 56 -55q16 0 32 28q25 57 41 140q8 33 19 59q1 4 8.5 28t11.5 37q5 20 27 70q25 -14 63 -14q30 0 80.5 30t100.5 78q117 117 120 217v11v22q-2 8 -2 25q0 16 1.5 21t9.5 16l4 20l-23 43q-20 28 -34 35.5t-44 7.5h-14q-12 0 -18 -2l92 172 l28 45v-2q53 88 64 127q6 21 6 39q0 27 -41 59q-42 33 -61 33q-15 0 -25.5 -12.5t-16 -27t-12.5 -42.5q-25 -95 -61 -131q-10 -15 -22 -39q-24 -43 -68 -133q-6 -13 -13 -26t-8 -15l-10 -16l-24 -41l-35 -82q-134 -240 -195 -422l-10 -31q-39 -112 -39 -194zM287 238 q26 57 75 112q54 65 82 74v-2q0 -41 -57 -98q-49 -52 -100 -86z" />
<glyph unicode="&#xff;" horiz-adv-x="778" d="M-233 -645v-8q20 -82 102 -109q36 -14 102 -14q75 0 140 35q121 63 221 219q83 128 157 305q3 7 58 139l16 45l37 144q17 68 39 143q45 154 82 229l31 60v61q-10 23 -44.5 43.5t-58.5 20.5q-19 0 -35 -19q-28 -33 -55 -112l-27 -68q-24 -59 -90 -125q-60 -62 -131 -104 q-2 -2 -16 -9q-17 -7 -29 -14q-40 -22 -47 -24v24q0 82 41 166q48 98 84 176q0 41 -31 80q-34 43 -77 43q-17 0 -27 -10q-15 -15 -27 -56l-10 -26l-94 -197q-17 -52 -17 -100q0 -119 39 -187q42 -77 144 -77q32 0 87.5 28.5t92.5 63.5q-34 -101 -48.5 -143.5t-45 -117 t-62.5 -132.5q-5 -10 -26.5 -48.5t-34.5 -62t-35 -58t-43 -61.5q-108 -139 -217 -139q-30 0 -53 10q-27 10 -54 10q-38 0 -38 -24zM344 850q0 -17 22.5 -34t47.5 -17q36 0 86 30l2 7q44 44 47 71v8q0 17 -17 43q-18 22 -18 43v9l-12 10q-2 0 -6 4l-4 4q-35 -5 -49.5 -11.5 t-39.5 -29.5q-48 -59 -59 -135v-2zM655 850q0 -17 22.5 -34t47.5 -17q37 0 86 30l2 7q44 44 47 71v8q0 19 -16 43q-19 23 -19 43v9l-12 10q-2 0 -6 4l-4 4q-35 -4 -49 -11t-39 -30q-49 -60 -60 -135v-2z" />
<glyph unicode="&#x152;" horiz-adv-x="1511" d="M41 250q0 -15 2 -21q8 -85 44.5 -138t117.5 -75q54 -18 69 -18q6 0 19 8q4 2 8.5 4.5t6.5 3.5t3 2q169 45 359 244v-6q0 -100 72.5 -162.5t193.5 -62.5q1 0 14 2t29.5 5.5t24.5 6.5l79 25q27 7 72 26q69 31 123 90q0 2 2 4q0 2 2 2v3q-2 2 -2 4v4l-49 45h-8 q-67 0 -172 -23q-114 -24 -131 -24q-31 0 -43.5 11t-12.5 46q0 2 2 4v2q-14 82 -14 121q0 111 51.5 181.5t153.5 117.5q27 12 56 22.5t69 21t65.5 17t80 17.5t76 15t89.5 16.5t86 15.5h18q14 14 25.5 43t11.5 49v2l-8 8q-3 3 -8 9.5t-8 9.5l-21 20q-3 3 -8.5 8t-7.5 7 l-49 30q-7 0 -15 2t-18 2q-42 0 -78 -26q-39 -28 -76 -39l-188 -62q-14 -6 -78 -6q-25 0 -37 1t-23.5 8t-11.5 22v8q0 8 2 12q3 6 3 13v4l69 80l88 75q71 54 148 93q100 51 155 51h9q2 -2 6 -2h8l96 -94q2 -2 4 -2h10q40 0 72 32.5t37 71.5q0 72 -66 135q-66 60 -147 60 q-28 0 -59 -6.5t-51.5 -12.5t-57 -24t-48 -24.5t-54 -31.5t-47.5 -28q-4 0 -18.5 -6.5t-16.5 -8.5l-54 -47q-10 -8 -29 -21.5t-24 -17.5q-50 -33 -53 -35l-41 62q-16 24 -33 110q-15 75 -57 105q-7 2 -23 12q-9 4 -28 15q-34 19 -43 22h-17q-22 0 -24 -2l-29 -16l-82 -50 q-85 -63 -139 -135q-93 -123 -174 -311q-40 -96 -74 -160l-14 -49l-29 -51l-43 -98q-87 -197 -90 -353v-20zM250 262q4 4 8 28.5t4 37.5l53 196q40 94 95 215q61 141 96 213l57 58q15 15 35.5 35t22.5 22l98 66q7 2 35 18q20 10 32 14l9 2q15 0 29.5 -17.5t21.5 -33.5 q-3 -96 -41 -233q-43 -142 -94 -228q-66 -110 -148 -202q-60 -67 -172 -174q-63 -59 -135 -82q0 59 -6 65z" />
<glyph unicode="&#x153;" horiz-adv-x="1093" d="M41 125q0 -26 6 -47l8 -35q2 -5 19 -18q12 -12 35 -25q60 -35 118 -35q146 0 275 129q61 -104 184 -104q98 0 217 53q131 60 131 127q0 5 -1.5 9t-5 7t-7.5 5t-10.5 3t-11 2t-12.5 1h-13h-14h-13q-49 0 -96 -13q-49 -16 -100 -24h-41h-10h-11.5t-10.5 0.5t-10.5 2.5 t-7.5 4.5t-6 7.5t-2 11q0 2 2 4v5q97 60 205 157q98 90 178 187q76 92 76 145l-8 14l-2 4l-21 37l-16 17q-5 4 -17 13t-20.5 15.5t-9.5 6.5h-47q-20 0 -36.5 -3t-34 -11.5t-27 -14t-30.5 -19.5l-30 -20q0 -4 -51 -43q-52 -40 -123 -111l-37 -39l-12 52q-2 1 -6.5 3.5t-8 5 t-6.5 5.5q-20 12 -37 25l-24 10q-27 12 -70 12q-28 0 -47 -8q-35 -12 -84 -51q-24 -17 -49 -31q0 -5 -10 -18l-53 -60q-16 -16 -25 -31q0 -8 6 -8l-18 -18q-5 -4 -10.5 -8.5t-8.5 -7t-4 -3.5q-19 -22 -32 -51t-13 -47l-12 -39q-37 -76 -37 -137zM233 92v2q0 3 3 6v6l10 62 l-4 -2l16 45q0 64 64 156q52 75 133 139h2q14 0 20 -6l8 -8q0 -1 -4 -5q-4 -2 -10 -8l-12 -12l-17 -37l-43 -41l-8 -18l-22 -39q-4 -5 -7.5 -11.5t-7.5 -13.5t-6 -10q-22 -42 -24 -78l4 -65l-43 -41q-4 0 -6 -2l-13 -7zM461 508l4 10v-6l-2 -4h-2z" />
<glyph unicode="&#x178;" horiz-adv-x="815" d="M-4 -668q7 -34 19 -49.5t40 -15.5q50 0 78 28q42 44 66 142q9 39 20 55l66 219l51 146l104 249l29 56q21 43 55 104q62 119 150 277q8 14 32 60.5t37 70.5q69 129 101 172l57 80q66 95 66 131q72 128 120 188q6 8 25 27q9 9 29 33q33 47 33 69q0 35 -41 76q-40 37 -82 37 q-30 0 -66 -45q-63 -73 -154 -240q-43 -72 -69 -112l-17 -25l-26 -39q-40 -61 -41 -63q-58 -89 -103 -175q-49 -88 -102 -174q-5 -14 -16 -14h-11q-32 0 -73 41q-27 25 -54 68l-34 79q-1 9 -4.5 24t-4.5 19l-6 39q-4 50 -4 115q0 34 4 80q2 20 13 100q2 14 2 49v17l-33 47 q-19 27 -28.5 37.5t-29 19t-47.5 8.5h-14q-29 -17 -45 -40q-29 -48 -29 -154v-133q0 -90 8 -149.5t33 -114.5q57 -123 236 -265l51 -32q-41 -103 -92 -195q-54 -97 -94 -201q-140 -343 -205 -727zM354 1501q0 -17 22.5 -34t47.5 -17q35 0 86 31l2 6q44 44 47 72v8 q0 19 -16 43q-19 23 -19 43v8l-12 10q-2 0 -6 4l-4 4q-35 -4 -49 -11t-39 -30q-49 -60 -60 -135v-2zM666 1501q0 -17 22.5 -34t46.5 -17q35 0 86 31l2 6q44 44 47 72v8q0 19 -16 43q-18 22 -18 43v8l-13 10q-2 0 -6 4l-4 4q-35 -4 -49 -11t-39 -30q-48 -59 -59 -135v-2z" />
<glyph unicode="&#x2c6;" horiz-adv-x="692" d="M41 1305q18 -7 33 -7q55 0 127 52q50 36 114 100q52 55 86 82q31 22 45 22q19 0 19 -36q0 -16 -4 -62q-4 -50 -4 -72q0 -63 22 -80.5t86 -17.5q18 0 28 1t21.5 8.5t16.5 21.5l4 84q16 86 16 131q0 15 -4 47l-2 8q-9 14 -47 39q-41 23 -131 23q-33 0 -64 -7 q-52 -12 -77 -34q-4 -2 -13 -8.5t-14 -8.5l-39 -24q-66 -63 -96 -88q-39 -31 -70 -62q-28 -30 -40.5 -54.5t-12.5 -57.5z" />
<glyph unicode="&#x2dc;" horiz-adv-x="763" d="M41 1122q0 -41 37 -53l10 -2q2 -1 5 -2l4.5 -1.5t2.5 -0.5q5 0 15 10q9 0 30 27q25 32 54 61q86 94 174 121l-6 -53q-3 -27 -5 -27q5 -67 39.5 -112.5t92.5 -45.5q47 0 118 41v-2q26 16 35 23q38 25 64 47q10 10 10 16q0 15 -13.5 34.5t-31.5 25.5l-25 4q-23 0 -39 -8 q-19 -7 -82 -35q-23 -10 -43 -10q-2 2 -2 10q0 18 9 39v16q0 144 -99 144q-41 0 -102 -27t-119 -68q-58 -42 -95.5 -88.5t-37.5 -83.5z" />
<glyph unicode="&#x2000;" horiz-adv-x="1000" />
<glyph unicode="&#x2001;" horiz-adv-x="2001" />
<glyph unicode="&#x2002;" horiz-adv-x="1000" />
<glyph unicode="&#x2003;" horiz-adv-x="2001" />
<glyph unicode="&#x2004;" horiz-adv-x="667" />
<glyph unicode="&#x2005;" horiz-adv-x="500" />
<glyph unicode="&#x2006;" horiz-adv-x="333" />
<glyph unicode="&#x2007;" horiz-adv-x="333" />
<glyph unicode="&#x2008;" horiz-adv-x="250" />
<glyph unicode="&#x2009;" horiz-adv-x="400" />
<glyph unicode="&#x200a;" horiz-adv-x="111" />
<glyph unicode="&#x2010;" horiz-adv-x="817" d="M41 457q0 -53 35.5 -89t81.5 -36q82 0 161 18q105 23 293 29q49 0 70 18h16q6 -2 21 -2q23 0 39 23t16 53q0 23 -14 29q-100 14 -291 14h-375q-53 -16 -53 -57z" />
<glyph unicode="&#x2011;" horiz-adv-x="817" d="M41 457q0 -53 35.5 -89t81.5 -36q82 0 161 18q105 23 293 29q49 0 70 18h16q6 -2 21 -2q23 0 39 23t16 53q0 23 -14 29q-100 14 -291 14h-375q-53 -16 -53 -57z" />
<glyph unicode="&#x2012;" horiz-adv-x="817" d="M41 457q0 -53 35.5 -89t81.5 -36q82 0 161 18q105 23 293 29q49 0 70 18h16q6 -2 21 -2q23 0 39 23t16 53q0 23 -14 29q-100 14 -291 14h-375q-53 -16 -53 -57z" />
<glyph unicode="&#x2013;" horiz-adv-x="1108" d="M41 457q0 -53 49.5 -89t113.5 -36q115 0 225 18q147 23 410 29q68 0 97 18h23q8 -2 29 -2q32 0 54.5 23t22.5 53q0 23 -20 29q-139 14 -406 14h-524q-74 -16 -74 -57z" />
<glyph unicode="&#x2014;" horiz-adv-x="2132" d="M41 457q0 -53 99 -89t228 -36q229 0 450 18q293 23 818 29q137 0 196 18h45q16 -2 58 -2q65 0 109.5 23t44.5 53q0 23 -39 29q-280 14 -813 14h-1048q-148 -16 -148 -57z" />
<glyph unicode="&#x2018;" horiz-adv-x="393" d="M168 854q0 -42 18 -74t56 -32q21 0 37 16q24 21 51 80q11 25 18 37q9 17 58 90q28 42 28 98q0 22 -2.5 36t-15.5 27t-37 13q-20 0 -39 -19q-40 -40 -82 -110q-39 -64 -74 -105q-16 -16 -16 -57z" />
<glyph unicode="&#x2019;" horiz-adv-x="450" d="M225 823q0 -22 3 -36t16 -26.5t37 -12.5q21 0 41 20q26 26 77 111q12 20 25.5 38t31 39t21.5 25q15 15 15 57t-18 74.5t-56 32.5q-24 0 -39 -15q-27 -23 -49 -81q-8 -19 -19 -37q-7 -14 -57 -88q-29 -44 -29 -101z" />
<glyph unicode="&#x201a;" horiz-adv-x="462" d="M156 -90q0 -22 2.5 -36t15.5 -27t37 -13q20 0 41 21q30 30 78 110q12 20 25.5 38t32 40.5t20.5 24.5q14 14 14 57q0 42 -18 74t-56 32q-25 0 -39 -14q-26 -23 -49 -82q-11 -25 -18 -37q-8 -15 -18 -30t-22.5 -32.5t-17.5 -25.5q-28 -42 -28 -100z" />
<glyph unicode="&#x201c;" horiz-adv-x="667" d="M188 854q0 -42 18 -74t56 -32q21 0 37 16q24 21 51 80q8 19 19 37q13 25 57 90q29 44 29 98q0 22 -3 36.5t-16 27t-37 12.5q-20 0 -39 -19q-37 -38 -81 -110q-39 -64 -74 -105q-17 -17 -17 -57zM438 834q0 -42 18 -74.5t56 -32.5q21 0 37 16q24 21 51 80q11 24 18 37 q9 17 58 90q29 44 29 99q0 22 -3 36t-16 26.5t-37 12.5q-21 0 -39 -18q-38 -38 -82 -111q-39 -65 -73 -104q-17 -17 -17 -57z" />
<glyph unicode="&#x201d;" horiz-adv-x="712" d="M233 823q0 -22 3 -36t16 -26.5t37 -12.5q21 0 41 20q29 28 78 111q12 20 25 37.5t31.5 40t20.5 24.5q15 15 15 57t-18 74.5t-56 32.5q-24 0 -39 -15q-27 -23 -49 -81q-8 -19 -19 -37q-7 -14 -57 -88q-29 -44 -29 -101zM483 803q0 -22 3 -36.5t16 -27t37 -12.5q20 0 41 21 q28 27 77 110q12 20 25.5 38t32 40.5t20.5 24.5q15 15 15 57t-18 74t-56 32q-25 0 -39 -14q-26 -23 -49 -82q-8 -19 -19 -37q-7 -14 -57 -88q-29 -43 -29 -100z" />
<glyph unicode="&#x201e;" horiz-adv-x="733" d="M176 -102q0 -22 2.5 -36t15.5 -27t37 -13q21 0 41 20q28 28 78 111q12 20 25.5 38t31 39t21.5 25q14 14 14 58q0 42 -17.5 74t-55.5 32q-25 0 -39 -14q-26 -23 -49 -82q-8 -19 -19 -37q-8 -14 -57 -88q-29 -43 -29 -100zM426 -123q0 -22 2.5 -36t15.5 -27t37 -13 q20 0 41 21q30 30 78 110q12 20 25.5 38t32 40.5t20.5 24.5q14 14 14 57q0 42 -18 74.5t-56 32.5q-23 0 -38 -15q-28 -24 -50 -82q-9 -21 -18 -36q-10 -19 -57 -89q-29 -44 -29 -100z" />
<glyph unicode="&#x2022;" horiz-adv-x="339" d="M41 508q0 -54 38.5 -91.5t92.5 -37.5q52 0 89.5 37.5t37.5 91.5t-38 92.5t-89 38.5q-61 0 -96 -40.5t-35 -90.5z" />
<glyph unicode="&#x2026;" horiz-adv-x="841" d="M43 53q0 -17 26.5 -35t51.5 -18q35 0 80 31l2 6q37 43 37 72q0 18 -25 51q-25 29 -25 51l-14 10q-2 0 -6 4l-6 4q-32 -5 -45.5 -11.5t-36.5 -29.5q-39 -54 -39 -135zM324 53q0 -17 26 -35t51 -18q35 0 80 31l2 6q37 43 37 72q0 19 -24 51q-25 29 -25 51l-14 10q-2 0 -6 4 l-7 4q-32 -5 -45.5 -11.5t-36.5 -29.5q-38 -53 -38 -135zM604 53q0 -17 26.5 -35t51.5 -18q35 0 80 31l2 6q37 43 37 72q0 18 -25 51q-24 28 -24 51l-15 10q-2 0 -6 4l-6 4q-32 -5 -45.5 -11.5t-36.5 -29.5q-39 -54 -39 -135z" />
<glyph unicode="&#x202f;" horiz-adv-x="400" />
<glyph unicode="&#x2039;" horiz-adv-x="532" d="M41 467q0 -35 25 -74q42 -66 124 -135q7 -7 29 -28t31 -31q24 -24 47 -37l49 -29q56 -36 66 -88l6 2q36 36 45 121l6 51q0 10 -4 10l-49 78q-26 43 -70 62q-132 55 -156 73q-24 15 -24 33q0 12 35 33q57 35 84 47q125 59 209 70q28 48 43.5 91t25.5 111q0 21 -8 21 t-27 -8l-116 -54q-43 -31 -104.5 -74.5t-76.5 -54.5q-20 -14 -39.5 -27.5t-37.5 -26t-25 -17.5l-49 -37q-15 -12 -21 -21q-18 -30 -18 -61z" />
<glyph unicode="&#x203a;" horiz-adv-x="581" d="M43 106q0 -45 14 -59l6 -2q13 30 39 53q48 36 111 64q26 14 55 37q50 40 88 65q75 52 97 70q108 87 108 162q0 30 -20 53q-1 2 -14.5 14.5t-24.5 22.5l-82 71q-113 100 -144 129l-100 54q-19 8 -24 8q-10 0 -13 -14l-6 -33q-4 -50 -4 -64q0 -53 21 -112q36 -5 90 -25 q105 -43 166 -86q28 -22 28 -33q0 -16 -28 -32q-14 -9 -39 -20.5t-45.5 -19.5t-54.5 -21.5t-46 -18.5q-45 -14 -86 -62l-72 -78q-1 0 -3.5 -4t-2.5 -6l-10 -51q-4 -46 -4 -62z" />
<glyph unicode="&#x205f;" horiz-adv-x="500" />
<glyph unicode="&#x20ac;" horiz-adv-x="974" d="M41 590q0 -8 8 -27q14 -32 23 -47q34 -63 75 -63q32 0 60 14q14 7 59 22q-10 -32 -26 -43q-37 -22 -93 -22q-30 -4 -45 -8q-47 -14 -47 -70q0 -47 47 -98q44 -47 68 -47q3 0 20 10q13 8 21 8q1 0 6 -6.5t6 -11.5q4 -6 24 -42t28 -47.5t26 -36t36.5 -38t41.5 -23.5h18h27 q10 -2 27 -2h18q62 0 137.5 23t141.5 61q67 38 108 83.5t41 86.5v5q0 18 -1 26t-7.5 15t-20.5 7q-34 0 -71 -16q-53 -27 -70 -35q-85 -36 -142.5 -52.5t-125.5 -16.5q-25 0 -40 2t-28.5 12t-13.5 29q0 24 41 39q30 9 88 30q60 22 93.5 49.5t33.5 77.5q0 46 -74 51h-18 q-8 -2 -27 -2h-27q-10 -2 -20 -2q0 5 -2 9q-2 2 -2 8q0 13 33 22q5 1 30 8t41 11q40 9 72 20q33 9 33 27q0 14 -19 43q-26 33 -37 59q9 9 15 17l12 16q9 7 64 57l30 31q5 4 17 16q33 15 77 15h37q3 0 15 -6q9 -9 12 -9q10 0 39 25q31 27 31 41q0 34 -35 92q-15 26 -32.5 43 t-29.5 17q-12 4 -51 4q-71 0 -160 -72l-67 -66q-80 -81 -101 -102q-27 -31 -57 -61q-33 -33 -39 -41q-67 -9 -102 -11q-46 -4 -117 -16q-133 -29 -133 -92z" />
<glyph unicode="&#x2122;" horiz-adv-x="1191" d="M16 889q6 -42 28 -70t46 -28q28 0 51 10q-2 -6 -2 -15v-12v-10q8 -101 54 -154q33 -41 86 -41q49 0 110 18.5t111 47.5q12 -24 34 -39.5t46 -15.5q17 0 26 6q13 11 21 30q3 10 12 13l98 168l33 67l33 56l18 22q-24 -84 -63 -176l-10 -31q-3 -10 -6.5 -22t-8.5 -26t-8 -23 q-12 -38 -12 -70q0 -23 26 -49q27 -31 52 -31q21 0 47 16q47 35 100 109l57 76l54 69h4q2 -6 6.5 -20t8.5 -25.5t7 -15.5l21 -39l18 -16q44 -39 62 -39t41 39v14l-17 23q-3 3 -9 10t-9 10v39v20q-2 10 -2 37q-1 6 -2 18.5t-2 18.5q-2 12 -2 27v22q-15 76 -99 76 q-20 0 -49 -29q-47 -53 -94 -133q-22 -36 -29 -43h-4q2 15 23 64l12 32q22 78 22 140q0 38 -26 65t-66 27h-4q-2 -2 -6 -2h-6q-29 -24 -70 -53q-24 -17 -30 -19q0 12 12 21q10 10 10 34q-16 19 -24.5 28t-26 18.5t-35.5 9.5q-13 0 -29 -23q-26 -44 -49 -106l-14 -39 q-54 -127 -105 -184q-82 -93 -188 -93q-25 0 -25 23q0 74 31 135q37 75 131 143q-16 26 -39 39l29 58q7 14 27 55.5t28 58t23.5 52t24 58t18 52.5t16.5 58q0 6 2 10v10q0 63 -69 63q-24 0 -39 -18q-27 -37 -41 -104q-9 -30 -19 -50q-81 -189 -161 -325h2q-4 -5 -10 -9.5 t-11.5 -8t-15 -7.5t-15 -6.5t-17.5 -6t-17 -5t-19 -5.5t-18 -5q-46 -15 -72 -31.5t-27 -42.5z" />
<glyph unicode="&#x25fc;" horiz-adv-x="788" d="M0 0v788h788v-788h-788z" />
<glyph unicode="&#xfb01;" horiz-adv-x="1097" d="M41 264q0 -38 42.5 -73t96.5 -35q19 0 49 10q-84 -241 -133 -518l-2 -27v-8q-2 -2 -2 -8q0 -54 29 -88q21 -17 26 -29l50 -4q15 -6 32 -6q20 0 35 12l19 35q38 405 147 688q84 22 203 66q115 40 203 69q-12 -34 -27 -72q-19 -47 -25 -71q-26 -80 -26 -125l4 -25 q2 -19 16 -59q29 -88 88 -88q38 0 54 16l157 144q4 0 10.5 8.5t6.5 13.5v14q0 6 -22.5 16.5t-35.5 10.5q-2 0 -6 -4q-2 -2 -5.5 -4.5t-4.5 -3.5q-19 -8 -37 -19q-35 -18 -47 -20h-16q91 254 157 389q3 6 12.5 24.5t14.5 30.5q16 36 33 62v14q-39 58 -61 75t-58 17l-6 -6 q-28 -3 -43 -24q-20 -29 -35 -39q-93 -74 -191.5 -119t-234.5 -84l24 88q1 6 4.5 18.5t4.5 18.5q4 19 12 33q40 106 100 243q62 143 95 244q5 11 25.5 62.5t32 78.5t31 72.5t39 84t39.5 73.5q125 219 240 219h6l19 -13q-24 -90 -61 -163.5t-101 -165.5q-19 -29 -19 -58 q-3 -32 -12 -57l-12 -35l14 -16l33 -23l14 2q7 3 21.5 10.5t21.5 10.5l43 18l13 13q7 14 31.5 60t34 64t29.5 58t30.5 65t25.5 60.5t25.5 68t19.5 66.5q-19 56 -20 61q-9 32 -39 48q-27 26 -42 38t-43 24.5t-59 12.5h-22q-60 -22 -107 -57q-87 -66 -161 -158 q-37 -46 -80 -127q-5 -10 -12 -21t-15.5 -24.5t-13.5 -21.5l4 -21l-2 -6l-27 -20l-33 -68q-5 -11 -16 -34.5t-16 -35.5l-11 -34q-53 -103 -75 -148t-59 -130t-60 -157v-14q-3 -11 -10 -22q-4 -5 -9.5 -13.5t-5.5 -9.5q-33 -72 -55 -154l-43 -157q-16 -3 -45 -9.5t-45 -9.5 q-39 -7 -84 -22q-84 -27 -84 -66z" />
<glyph unicode="&#xfb02;" horiz-adv-x="987" d="M4 -395q0 -54 29 -88q21 -17 26 -29l50 -4q15 -6 32 -6q20 0 35 12l19 35q6 51 14 156q3 70 31 147q7 77 28 159.5t37 126.5t55 144q106 36 193 80q88 45 192 86q1 0 6 3.5t9 4.5l12 6l-16 -28q-27 -43 -35 -81t-8 -93q0 -25 2 -37v-43q0 -49 14 -95q15 -65 57 -65 q22 0 37 35q23 54 47 176q8 41 19 67q47 176 180 461q114 251 274 561q11 21 33 58q24 39 37 65q45 81 45 133q0 29 -45 70q-42 39 -70 39q-21 0 -32.5 -24t-24.5 -76q-30 -122 -72 -164q-5 -8 -24 -47q-7 -15 -39 -82q-7 -16 -21 -43.5t-20 -40.5q-15 -34 -25 -49 q0 -4 -6 -13q-8 -16 -14 -24q-3 -5 -8 -13t-6 -10l-7 -14l-43 -100l-57 -117q-116 -154 -244 -240q-101 -70 -260 -117l4 21q1 6 4.5 18.5t4.5 18.5q4 19 12 33q40 106 100 243q59 134 94 244q4 10 21 52t25.5 62.5t26 61t30.5 68t30.5 63t34.5 64.5q125 219 240 219h6 l19 -13q-24 -90 -61 -163.5t-101 -165.5q-19 -29 -19 -58q-3 -32 -12 -57l-12 -35l14 -16l33 -23l14 2q7 3 21.5 10.5t21.5 10.5l43 18l13 13q7 14 31.5 60t34 64t29.5 58t30.5 65t25.5 60.5t25.5 68t19.5 66.5q-19 56 -20 61q-9 32 -39 48q-27 26 -42 38t-43 24.5t-59 12.5 h-22q-60 -22 -107 -57q-87 -66 -161 -158q-37 -46 -80 -127q-5 -10 -12 -21t-15.5 -24.5t-13.5 -21.5l-25 -47q-21 -40 -33 -68l-32 -70l-11 -34q-95 -171 -176 -369t-127 -379q-21 -2 -65 -25q-45 -23 -68 -26q-25 -5 -51.5 -43.5t-26.5 -77.5q0 -68 95 -68l57 13 q-50 -195 -84 -283q0 -1 -3.5 -6t-4.5 -8l-13 -35q-7 -21 -20 -78l-33 -143l-2 -27v-8q-2 -2 -2 -8z" />
</font>
</defs>
</svg>
